# Made in Blockbench 5.1.6
mtllib wriggle_nightbug.mtl

o head
v 0.25 1.625 0.25
v 0.25 1.625 -0.25
v 0.25 1.125 0.25
v 0.25 1.125 -0.25
v -0.25 1.625 -0.25
v -0.25 1.625 0.25
v -0.25 1.125 -0.25
v -0.25 1.125 0.25
vt 0.0625 0.9375
vt 0.125 0.9375
vt 0.125 0.875
vt 0.0625 0.875
vt 0 0.9375
vt 0.0625 0.9375
vt 0.0625 0.875
vt 0 0.875
vt 0.1875 0.9375
vt 0.25 0.9375
vt 0.25 0.875
vt 0.1875 0.875
vt 0.125 0.9375
vt 0.1875 0.9375
vt 0.1875 0.875
vt 0.125 0.875
vt 0.125 0.9375
vt 0.0625 0.9375
vt 0.0625 1
vt 0.125 1
vt 0.1875 1
vt 0.125 1
vt 0.125 0.9375
vt 0.1875 0.9375
vn 0 0 -1
vn 1 0 0
vn 0 0 1
vn -1 0 0
vn 0 1 0
vn 0 -1 0
usemtl m_18f42bdd-f153-878d-4a63-0072cc6b4875
f 4/4/1 7/3/1 5/2/1 2/1/1
f 3/8/2 4/7/2 2/6/2 1/5/2
f 8/12/3 3/11/3 1/10/3 6/9/3
f 7/16/4 8/15/4 6/14/4 5/13/4
f 6/20/5 1/19/5 2/18/5 5/17/5
f 7/24/6 4/23/6 3/22/6 8/21/6
o head
v 0.265625 1.640625 0.265625
v 0.265625 1.640625 -0.265625
v 0.265625 1.109375 0.265625
v 0.265625 1.109375 -0.265625
v -0.265625 1.640625 -0.265625
v -0.265625 1.640625 0.265625
v -0.265625 1.109375 -0.265625
v -0.265625 1.109375 0.265625
vt 0.5390625 0.9375
vt 0.6015625 0.9375
vt 0.6015625 0.875
vt 0.5390625 0.875
vt 0.4765625 0.9375
vt 0.5390625 0.9375
vt 0.5390625 0.875
vt 0.4765625 0.875
vt 0.6640625 0.9375
vt 0.7265625 0.9375
vt 0.7265625 0.875
vt 0.6640625 0.875
vt 0.6015625 0.9375
vt 0.6640625 0.9375
vt 0.6640625 0.875
vt 0.6015625 0.875
vt 0.6015625 0.9375
vt 0.5390625 0.9375
vt 0.5390625 1
vt 0.6015625 1
vt 0.6640625 1
vt 0.6015625 1
vt 0.6015625 0.9375
vt 0.6640625 0.9375
vn 0 0 -1
vn 1 0 0
vn 0 0 1
vn -1 0 0
vn 0 1 0
vn 0 -1 0
usemtl m_18f42bdd-f153-878d-4a63-0072cc6b4875
f 12/28/7 15/27/7 13/26/7 10/25/7
f 11/32/8 12/31/8 10/30/8 9/29/8
f 16/36/9 11/35/9 9/34/9 14/33/9
f 15/40/10 16/39/10 14/38/10 13/37/10
f 14/44/11 9/43/11 10/42/11 13/41/11
f 15/48/12 12/47/12 11/46/12 16/45/12
o headrightAntenna
v 0.359375 1.8200167532439018 -0.33896784492869747
v 0.359375 1.8200167532439018 -0.33896784492869747
v 0.359375 1.3928872501289309 -0.2442755138307775
v 0.359375 1.3928872501289309 -0.2442755138307775
v 0.109375 1.8200167532439018 -0.33896784492869747
v 0.109375 1.8200167532439018 -0.33896784492869747
v 0.109375 1.3928872501289309 -0.2442755138307775
v 0.109375 1.3928872501289309 -0.2442755138307775
vt 0.9375 1
vt 0.96875 1
vt 0.96875 0.9453125
vt 0.9375 0.9453125
vt 0.9375 1
vt 0.9375 1
vt 0.9375 0.9453125
vt 0.9375 0.9453125
vt 0.96875 1
vt 1 1
vt 1 0.9453125
vt 0.96875 0.9453125
vt 0.96875 1
vt 0.96875 1
vt 0.96875 0.9453125
vt 0.96875 0.9453125
vt 0.96875 1
vt 0.9375 1
vt 0.9375 1
vt 0.96875 1
vt 1 1
vt 0.96875 1
vt 0.96875 1
vt 1 1
vn 0 -0.21643961393810288 -0.9762960071199334
vn 1 0 0
vn 0 0.21643961393810288 0.9762960071199334
vn -1 0 0
vn 0 0.9762960071199334 -0.21643961393810288
vn 0 -0.9762960071199334 0.21643961393810288
usemtl m_18f42bdd-f153-878d-4a63-0072cc6b4875
f 20/52/13 23/51/13 21/50/13 18/49/13
f 19/56/14 20/55/14 18/54/14 17/53/14
f 24/60/15 19/59/15 17/58/15 22/57/15
f 23/64/16 24/63/16 22/62/16 21/61/16
f 22/68/17 17/67/17 18/66/17 21/65/17
f 23/72/18 20/71/18 19/70/18 24/69/18
o headleftAntenna
v -0.07812499999999929 1.8193036937523444 -0.33975480317087015
v -0.07812499999999929 1.8193036937523444 -0.33975480317087015
v -0.07812500000000064 1.3921741906373737 -0.24506247207294996
v -0.07812500000000064 1.3921741906373737 -0.24506247207294996
v -0.32812499999999933 1.8193036937523452 -0.33975480317087015
v -0.32812499999999933 1.8193036937523452 -0.33975480317087015
v -0.32812500000000067 1.3921741906373746 -0.24506247207294996
v -0.32812500000000067 1.3921741906373746 -0.24506247207294996
vt 0.96875 1
vt 0.9375 1
vt 0.9375 0.9453125
vt 0.96875 0.9453125
vt 0.96875 1
vt 0.96875 1
vt 0.96875 0.9453125
vt 0.96875 0.9453125
vt 1 1
vt 0.96875 1
vt 0.96875 0.9453125
vt 1 0.9453125
vt 0.9375 1
vt 0.9375 1
vt 0.9375 0.9453125
vt 0.9375 0.9453125
vt 0.9375 1
vt 0.96875 1
vt 0.96875 1
vt 0.9375 1
vt 0.96875 1
vt 1 1
vt 1 1
vt 0.96875 1
vn -6.789741111292419e-16 -0.21643961393810326 -0.9762960071199333
vn 1 -3.137014055677501e-15 0
vn 6.789741111292419e-16 0.21643961393810326 0.9762960071199333
vn -1 3.137014055677501e-15 0
vn 3.062654296837052e-15 0.9762960071199333 -0.21643961393810326
vn -3.062654296837052e-15 -0.9762960071199333 0.21643961393810326
usemtl m_18f42bdd-f153-878d-4a63-0072cc6b4875
f 28/76/19 31/75/19 29/74/19 26/73/19
f 27/80/20 28/79/20 26/78/20 25/77/20
f 32/84/21 27/83/21 25/82/21 30/81/21
f 31/88/22 32/87/22 30/86/22 29/85/22
f 30/92/23 25/91/23 26/90/23 29/89/23
f 31/96/24 28/95/24 27/94/24 32/93/24
o blink
v 0.25 1.625 -0.250625
v 0.25 1.625 -0.250625
v 0.25 1.125 -0.250625
v 0.25 1.125 -0.250625
v -0.25 1.625 -0.250625
v -0.25 1.625 -0.250625
v -0.25 1.125 -0.250625
v -0.25 1.125 -0.250625
vt 0.25 0.921875
vt 0.3125 0.921875
vt 0.3125 0.859375
vt 0.25 0.859375
vt 0.25 0.921875
vt 0.25 0.921875
vt 0.25 0.859375
vt 0.25 0.859375
vt 0.3125 0.921875
vt 0.375 0.921875
vt 0.375 0.859375
vt 0.3125 0.859375
vt 0.3125 0.921875
vt 0.3125 0.921875
vt 0.3125 0.859375
vt 0.3125 0.859375
vt 0.3125 0.921875
vt 0.25 0.921875
vt 0.25 0.921875
vt 0.3125 0.921875
vt 0.375 0.921875
vt 0.3125 0.921875
vt 0.3125 0.921875
vt 0.375 0.921875
vn 0 0 -1
vn 1 0 0
vn 0 0 1
vn -1 0 0
vn 0 1 0
vn 0 -1 0
usemtl m_18f42bdd-f153-878d-4a63-0072cc6b4875
f 36/100/25 39/99/25 37/98/25 34/97/25
f 35/104/26 36/103/26 34/102/26 33/101/26
f 40/108/27 35/107/27 33/106/27 38/105/27
f 39/112/28 40/111/28 38/110/28 37/109/28
f 38/116/29 33/115/29 34/114/29 37/113/29
f 39/120/30 36/119/30 35/118/30 40/117/30
o armRight
v 0.300788321306399 1.1153274803060822 0.0625
v 0.300788321306399 1.1153274803060822 -0.0625
v 0.5120974521767487 0.6621735867877572 0.0625
v 0.5120974521767487 0.6621735867877572 -0.0625
v 0.18749984792681773 1.0625001975884947 -0.0625
v 0.18749984792681773 1.0625001975884947 0.0625
v 0.3988089787971675 0.6093463040701698 -0.0625
v 0.3988089787971675 0.6093463040701698 0.0625
vt 0.015625 0.6171875
vt 0.03125 0.6171875
vt 0.03125 0.5546875
vt 0.015625 0.5546875
vt 0 0.6171875
vt 0.015625 0.6171875
vt 0.015625 0.5546875
vt 0 0.5546875
vt 0.046875 0.6171875
vt 0.0625 0.6171875
vt 0.0625 0.5546875
vt 0.046875 0.5546875
vt 0.03125 0.6171875
vt 0.046875 0.6171875
vt 0.046875 0.5546875
vt 0.03125 0.5546875
vt 0.03125 0.6171875
vt 0.015625 0.6171875
vt 0.015625 0.6328125
vt 0.03125 0.6328125
vt 0.046875 0.6328125
vt 0.03125 0.6328125
vt 0.03125 0.6171875
vt 0.046875 0.6171875
vn 0 0 -1
vn 0.9063077870366499 0.42261826174069944 0
vn 0 0 1
vn -0.9063077870366499 -0.42261826174069944 0
vn -0.42261826174069944 0.9063077870366499 0
vn 0.42261826174069944 -0.9063077870366499 0
usemtl m_18f42bdd-f153-878d-4a63-0072cc6b4875
f 44/124/31 47/123/31 45/122/31 42/121/31
f 43/128/32 44/127/32 42/126/32 41/125/32
f 48/132/33 43/131/33 41/130/33 46/129/33
f 47/136/34 48/135/34 46/134/34 45/133/34
f 46/140/35 41/139/35 42/138/35 45/137/35
f 47/144/36 44/143/36 43/142/36 48/141/36
o armRight
v 0.3264690755154149 1.134198724654458 0.09375
v 0.3264690755154149 1.134198724654458 -0.09375
v 0.5047611546872725 0.7518501269983715 0.09375
v 0.5047611546872725 0.7518501269983715 -0.09375
v 0.156536365446043 1.0549578005780769 -0.09375
v 0.156536365446043 1.0549578005780769 0.09375
v 0.3348284446179006 0.6726092029219903 -0.09375
v 0.3348284446179006 0.6726092029219903 0.09375
vt 0.1875 0.546875
vt 0.2109375 0.546875
vt 0.2109375 0.5
vt 0.1875 0.5
vt 0.1640625 0.546875
vt 0.1875 0.546875
vt 0.1875 0.5
vt 0.1640625 0.5
vt 0.234375 0.546875
vt 0.2578125 0.546875
vt 0.2578125 0.5
vt 0.234375 0.5
vt 0.2109375 0.546875
vt 0.234375 0.546875
vt 0.234375 0.5
vt 0.2109375 0.5
vt 0.2109375 0.546875
vt 0.1875 0.546875
vt 0.1875 0.5703125
vt 0.2109375 0.5703125
vt 0.234375 0.5703125
vt 0.2109375 0.5703125
vt 0.2109375 0.546875
vt 0.234375 0.546875
vn 0 0 -1
vn 0.9063077870366499 0.42261826174069944 0
vn 0 0 1
vn -0.9063077870366499 -0.42261826174069944 0
vn -0.42261826174069944 0.9063077870366499 0
vn 0.42261826174069944 -0.9063077870366499 0
usemtl m_18f42bdd-f153-878d-4a63-0072cc6b4875
f 52/148/37 55/147/37 53/146/37 50/145/37
f 51/152/38 52/151/38 50/150/38 49/149/38
f 56/156/39 51/155/39 49/154/39 54/153/39
f 55/160/40 56/159/40 54/158/40 53/157/40
f 54/164/41 49/163/41 50/162/41 53/161/41
f 55/168/42 52/167/42 51/166/42 56/165/42
o armLeft
v -0.18749984792681773 1.0625001975884947 0.0625
v -0.18749984792681773 1.0625001975884947 -0.0625
v -0.3988089787971675 0.6093463040701698 0.0625
v -0.3988089787971675 0.6093463040701698 -0.0625
v -0.300788321306399 1.1153274803060822 -0.0625
v -0.300788321306399 1.1153274803060822 0.0625
v -0.5120974521767487 0.6621735867877572 -0.0625
v -0.5120974521767487 0.6621735867877572 0.0625
vt 0.015625 0.6171875
vt 0.03125 0.6171875
vt 0.03125 0.5546875
vt 0.015625 0.5546875
vt 0 0.6171875
vt 0.015625 0.6171875
vt 0.015625 0.5546875
vt 0 0.5546875
vt 0.046875 0.6171875
vt 0.0625 0.6171875
vt 0.0625 0.5546875
vt 0.046875 0.5546875
vt 0.03125 0.6171875
vt 0.046875 0.6171875
vt 0.046875 0.5546875
vt 0.03125 0.5546875
vt 0.03125 0.6171875
vt 0.015625 0.6171875
vt 0.015625 0.6328125
vt 0.03125 0.6328125
vt 0.046875 0.6328125
vt 0.03125 0.6328125
vt 0.03125 0.6171875
vt 0.046875 0.6171875
vn 0 0 -1
vn 0.9063077870366499 -0.42261826174069944 0
vn 0 0 1
vn -0.9063077870366499 0.42261826174069944 0
vn 0.42261826174069944 0.9063077870366499 0
vn -0.42261826174069944 -0.9063077870366499 0
usemtl m_18f42bdd-f153-878d-4a63-0072cc6b4875
f 60/172/43 63/171/43 61/170/43 58/169/43
f 59/176/44 60/175/44 58/174/44 57/173/44
f 64/180/45 59/179/45 57/178/45 62/177/45
f 63/184/46 64/183/46 62/182/46 61/181/46
f 62/188/47 57/187/47 58/186/47 61/185/47
f 63/192/48 60/191/48 59/190/48 64/189/48
o armLeft
v -0.156536365446043 1.0549578005780769 0.09375
v -0.156536365446043 1.0549578005780769 -0.09375
v -0.3348284446179006 0.6726092029219903 0.09375
v -0.3348284446179006 0.6726092029219903 -0.09375
v -0.3264690755154149 1.134198724654458 -0.09375
v -0.3264690755154149 1.134198724654458 0.09375
v -0.5047611546872725 0.7518501269983715 -0.09375
v -0.5047611546872725 0.7518501269983715 0.09375
vt 0.1875 0.546875
vt 0.2109375 0.546875
vt 0.2109375 0.5
vt 0.1875 0.5
vt 0.1640625 0.546875
vt 0.1875 0.546875
vt 0.1875 0.5
vt 0.1640625 0.5
vt 0.234375 0.546875
vt 0.2578125 0.546875
vt 0.2578125 0.5
vt 0.234375 0.5
vt 0.2109375 0.546875
vt 0.234375 0.546875
vt 0.234375 0.5
vt 0.2109375 0.5
vt 0.2109375 0.546875
vt 0.1875 0.546875
vt 0.1875 0.5703125
vt 0.2109375 0.5703125
vt 0.234375 0.5703125
vt 0.2109375 0.5703125
vt 0.2109375 0.546875
vt 0.234375 0.546875
vn 0 0 -1
vn 0.9063077870366499 -0.42261826174069944 0
vn 0 0 1
vn -0.9063077870366499 0.42261826174069944 0
vn 0.42261826174069944 0.9063077870366499 0
vn -0.42261826174069944 -0.9063077870366499 0
usemtl m_18f42bdd-f153-878d-4a63-0072cc6b4875
f 68/196/49 71/195/49 69/194/49 66/193/49
f 67/200/50 68/199/50 66/198/50 65/197/50
f 72/204/51 67/203/51 65/202/51 70/201/51
f 71/208/52 72/207/52 70/206/52 69/205/52
f 70/212/53 65/211/53 66/210/53 69/209/53
f 71/216/54 68/215/54 67/214/54 72/213/54
o body
v 0.1875 1.125 0.1875
v 0.1875 1.125 -0.1875
v 0.1875 0.8125 0.1875
v 0.1875 0.8125 -0.1875
v -0.1875 1.125 -0.1875
v -0.1875 1.125 0.1875
v -0.1875 0.8125 -0.1875
v -0.1875 0.8125 0.1875
vt 0.203125 0.796875
vt 0.25 0.796875
vt 0.25 0.7578125
vt 0.203125 0.7578125
vt 0.15625 0.796875
vt 0.203125 0.796875
vt 0.203125 0.7578125
vt 0.15625 0.7578125
vt 0.296875 0.796875
vt 0.34375 0.796875
vt 0.34375 0.7578125
vt 0.296875 0.7578125
vt 0.25 0.796875
vt 0.296875 0.796875
vt 0.296875 0.7578125
vt 0.25 0.7578125
vt 0.25 0.796875
vt 0.203125 0.796875
vt 0.203125 0.84375
vt 0.25 0.84375
vt 0.296875 0.84375
vt 0.25 0.84375
vt 0.25 0.796875
vt 0.296875 0.796875
vn 0 0 -1
vn 1 0 0
vn 0 0 1
vn -1 0 0
vn 0 1 0
vn 0 -1 0
usemtl m_18f42bdd-f153-878d-4a63-0072cc6b4875
f 76/220/55 79/219/55 77/218/55 74/217/55
f 75/224/56 76/223/56 74/222/56 73/221/56
f 80/228/57 75/227/57 73/226/57 78/225/57
f 79/232/58 80/231/58 78/230/58 77/229/58
f 78/236/59 73/235/59 74/234/59 77/233/59
f 79/240/60 76/239/60 75/238/60 80/237/60
o body
v 0.203125 0.8125 0.1875
v 0.203125 0.8125 -0.1875
v 0.203125 0.75 0.1875
v 0.203125 0.75 -0.1875
v -0.203125 0.8125 -0.1875
v -0.203125 0.8125 0.1875
v -0.203125 0.75 -0.1875
v -0.203125 0.75 0.1875
vt 0.328125 0.5546875
vt 0.375 0.5546875
vt 0.375 0.546875
vt 0.328125 0.546875
vt 0.28125 0.5546875
vt 0.328125 0.5546875
vt 0.328125 0.546875
vt 0.28125 0.546875
vt 0.421875 0.5546875
vt 0.46875 0.5546875
vt 0.46875 0.546875
vt 0.421875 0.546875
vt 0.375 0.5546875
vt 0.421875 0.5546875
vt 0.421875 0.546875
vt 0.375 0.546875
vt 0.375 0.5546875
vt 0.328125 0.5546875
vt 0.328125 0.6015625
vt 0.375 0.6015625
vt 0.421875 0.6015625
vt 0.375 0.6015625
vt 0.375 0.5546875
vt 0.421875 0.5546875
vn 0 0 -1
vn 1 0 0
vn 0 0 1
vn -1 0 0
vn 0 1 0
vn 0 -1 0
usemtl m_18f42bdd-f153-878d-4a63-0072cc6b4875
f 84/244/61 87/243/61 85/242/61 82/241/61
f 83/248/62 84/247/62 82/246/62 81/245/62
f 88/252/63 83/251/63 81/250/63 86/249/63
f 87/256/64 88/255/64 86/254/64 85/253/64
f 86/260/65 81/259/65 82/258/65 85/257/65
f 87/264/66 84/263/66 83/262/66 88/261/66
o body
v 0.21875 0.75 0.1875
v 0.21875 0.75 -0.1875
v 0.21875 0.6875 0.1875
v 0.21875 0.6875 -0.1875
v -0.21875 0.75 -0.1875
v -0.21875 0.75 0.1875
v -0.21875 0.6875 -0.1875
v -0.21875 0.6875 0.1875
vt 0.328125 0.5546875
vt 0.3828125 0.5546875
vt 0.3828125 0.546875
vt 0.328125 0.546875
vt 0.28125 0.5546875
vt 0.328125 0.5546875
vt 0.328125 0.546875
vt 0.28125 0.546875
vt 0.4296875 0.5546875
vt 0.484375 0.5546875
vt 0.484375 0.546875
vt 0.4296875 0.546875
vt 0.3828125 0.5546875
vt 0.4296875 0.5546875
vt 0.4296875 0.546875
vt 0.3828125 0.546875
vt 0.3828125 0.5546875
vt 0.328125 0.5546875
vt 0.328125 0.6015625
vt 0.3828125 0.6015625
vt 0.4375 0.6015625
vt 0.3828125 0.6015625
vt 0.3828125 0.5546875
vt 0.4375 0.5546875
vn 0 0 -1
vn 1 0 0
vn 0 0 1
vn -1 0 0
vn 0 1 0
vn 0 -1 0
usemtl m_18f42bdd-f153-878d-4a63-0072cc6b4875
f 92/268/67 95/267/67 93/266/67 90/265/67
f 91/272/68 92/271/68 90/270/68 89/269/68
f 96/276/69 91/275/69 89/274/69 94/273/69
f 95/280/70 96/279/70 94/278/70 93/277/70
f 94/284/71 89/283/71 90/282/71 93/281/71
f 95/288/72 92/287/72 91/286/72 96/285/72
o body
v 0.25 0.703125 0.203125
v 0.25 0.703125 -0.203125
v 0.25 0.453125 0.203125
v 0.25 0.453125 -0.203125
v -0.25 0.703125 -0.203125
v -0.25 0.703125 0.203125
v -0.25 0.453125 -0.203125
v -0.25 0.453125 0.203125
vt 0.046875 0.828125
vt 0.109375 0.828125
vt 0.109375 0.796875
vt 0.046875 0.796875
vt 0 0.828125
vt 0.046875 0.828125
vt 0.046875 0.796875
vt 0 0.796875
vt 0.15625 0.828125
vt 0.21875 0.828125
vt 0.21875 0.796875
vt 0.15625 0.796875
vt 0.109375 0.828125
vt 0.15625 0.828125
vt 0.15625 0.796875
vt 0.109375 0.796875
vt 0.109375 0.828125
vt 0.046875 0.828125
vt 0.046875 0.875
vt 0.109375 0.875
vt 0.171875 0.875
vt 0.109375 0.875
vt 0.109375 0.828125
vt 0.171875 0.828125
vn 0 0 -1
vn 1 0 0
vn 0 0 1
vn -1 0 0
vn 0 1 0
vn 0 -1 0
usemtl m_18f42bdd-f153-878d-4a63-0072cc6b4875
f 100/292/73 103/291/73 101/290/73 98/289/73
f 99/296/74 100/295/74 98/294/74 97/293/74
f 104/300/75 99/299/75 97/298/75 102/297/75
f 103/304/76 104/303/76 102/302/76 101/301/76
f 102/308/77 97/307/77 98/306/77 101/305/77
f 103/312/78 100/311/78 99/310/78 104/309/78
o body
v 0.046875 1.0625 -0.15625
v 0.046875 1.0625 -0.21875
v 0.046875 1 -0.15625
v 0.046875 1 -0.21875
v -0.015625 1.0625 -0.21875
v -0.015625 1.0625 -0.15625
v -0.015625 1 -0.21875
v -0.015625 1 -0.15625
vt 0.9609375 0.1875
vt 0.96875 0.1875
vt 0.96875 0.1796875
vt 0.9609375 0.1796875
vt 0.953125 0.1875
vt 0.9609375 0.1875
vt 0.9609375 0.1796875
vt 0.953125 0.1796875
vt 0.9765625 0.1875
vt 0.984375 0.1875
vt 0.984375 0.1796875
vt 0.9765625 0.1796875
vt 0.96875 0.1875
vt 0.9765625 0.1875
vt 0.9765625 0.1796875
vt 0.96875 0.1796875
vt 0.96875 0.1875
vt 0.9609375 0.1875
vt 0.9609375 0.1953125
vt 0.96875 0.1953125
vt 0.9765625 0.1953125
vt 0.96875 0.1953125
vt 0.96875 0.1875
vt 0.9765625 0.1875
vn 0 0 -1
vn 1 0 0
vn 0 0 1
vn -1 0 0
vn 0 1 0
vn 0 -1 0
usemtl m_18f42bdd-f153-878d-4a63-0072cc6b4875
f 108/316/79 111/315/79 109/314/79 106/313/79
f 107/320/80 108/319/80 106/318/80 105/317/80
f 112/324/81 107/323/81 105/322/81 110/321/81
f 111/328/82 112/327/82 110/326/82 109/325/82
f 110/332/83 105/331/83 106/330/83 109/329/83
f 111/336/84 108/335/84 107/334/84 112/333/84
o cloakRight
v 0.17870803832501664 1.1249147536383526 0.19309630735221692
v 0.17870803832501664 1.1249147536383526 0.19309630735221692
v 0.35058303832501664 0.48346852108745175 0.3710344008601999
v 0.35058303832501664 0.48346852108745175 0.3710344008601999
v -0.18351414653338394 1.0278576117249072 0.19309630735221692
v -0.18351414653338394 1.0278576117249072 0.19309630735221692
v -0.011639146533383937 0.3864113791740065 0.3710344008601999
v -0.011639146533383937 0.3864113791740065 0.3710344008601999
vt 0.90625 0.0859375
vt 0.953125 0.0859375
vt 0.953125 0
vt 0.90625 0
vt 0.90625 0.0859375
vt 0.90625 0.0859375
vt 0.90625 0
vt 0.90625 0
vt 0.953125 0.0859375
vt 1 0.0859375
vt 1 0
vt 0.953125 0
vt 0.953125 0.0859375
vt 0.953125 0.0859375
vt 0.953125 0
vt 0.953125 0
vt 0.953125 0.0859375
vt 0.90625 0.0859375
vt 0.90625 0.0859375
vt 0.953125 0.0859375
vt 1 0.0859375
vt 0.953125 0.0859375
vt 0.953125 0.0859375
vt 1 0.0859375
vn 0.06698729810778066 -0.24999999999999997 -0.9659258262890683
vn 0.9659258262890683 0.25881904510252074 -2.7755575615628914e-17
vn -0.06698729810778066 0.24999999999999997 0.9659258262890683
vn -0.9659258262890683 -0.25881904510252074 2.7755575615628914e-17
vn -0.24999999999999997 0.9330127018922194 -0.25881904510252074
vn 0.24999999999999997 -0.9330127018922194 0.25881904510252074
usemtl m_18f42bdd-f153-878d-4a63-0072cc6b4875
f 116/340/85 119/339/85 117/338/85 114/337/85
f 115/344/86 116/343/86 114/342/86 113/341/86
f 120/348/87 115/347/87 113/346/87 118/345/87
f 119/352/88 120/351/88 118/350/88 117/349/88
f 118/356/89 113/355/89 114/354/89 117/353/89
f 119/360/90 116/359/90 115/358/90 120/357/90
o bone
v 0.3269026116561765 0.2121297259199792 0.43520046755436725
v 0.3269026116561765 0.2121297259199792 0.43520046755436725
v 0.27819260524925726 0.099908751503526 0.46086733679975134
v 0.27819260524925726 0.099908751503526 0.46086733679975134
v 0.2264404887485939 0.2517942625148051 0.4179674462690707
v 0.2264404887485939 0.2517942625148051 0.4179674462690707
v 0.17773048234167468 0.13957328809835187 0.44363431551445476
v 0.17773048234167468 0.13957328809835187 0.44363431551445476
vt 0.875 0.015625
vt 0.8828125 0.015625
vt 0.8828125 0
vt 0.875 0
vt 0.875 0.015625
vt 0.875 0.015625
vt 0.875 0
vt 0.875 0
vt 0.8828125 0.015625
vt 0.890625 0.015625
vt 0.890625 0
vt 0.8828125 0
vt 0.8828125 0.015625
vt 0.8828125 0.015625
vt 0.8828125 0
vt 0.8828125 0
vt 0.8828125 0.015625
vt 0.875 0.015625
vt 0.875 0.015625
vt 0.8828125 0.015625
vt 0.890625 0.015625
vt 0.8828125 0.015625
vt 0.8828125 0.015625
vt 0.890625 0.015625
vn 0.06698729810778065 -0.25000000000000006 -0.9659258262890684
vn 0.9185108380121838 -0.3626471917241223 0.15755905175128304
vn -0.06698729810778065 0.25000000000000006 0.9659258262890684
vn -0.9185108380121838 0.3626471917241223 -0.15755905175128304
vn 0.38968005125535377 0.8977677953316257 -0.2053349539630727
vn -0.38968005125535377 -0.8977677953316257 0.2053349539630727
usemtl m_18f42bdd-f153-878d-4a63-0072cc6b4875
f 124/364/91 127/363/91 125/362/91 122/361/91
f 123/368/92 124/367/92 122/366/92 121/365/92
f 128/372/93 123/371/93 121/370/93 126/369/93
f 127/376/94 128/375/94 126/374/94 125/373/94
f 126/380/95 121/379/95 122/378/95 125/377/95
f 127/384/96 124/383/96 123/382/96 128/381/96
o bone11
v 0.144721591971771 0.4872601138557388 0.3564235478487886
v 0.144721591971771 0.4872601138557388 0.3564235478487886
v 0.32137448095484267 0.2409401688037812 0.432426781224318
v 0.32137448095484267 0.2409401688037812 0.432426781224318
v 0.0034114093319512206 0.3906114524010053 0.37163815090996277
v 0.0034114093319512206 0.3906114524010053 0.37163815090996277
v 0.18006429831502285 0.14429150734904772 0.44764138428549216
v 0.18006429831502285 0.14429150734904772 0.44764138428549216
vt 0.96875 0.125
vt 0.984375 0.125
vt 0.984375 0.0859375
vt 0.96875 0.0859375
vt 0.96875 0.125
vt 0.96875 0.125
vt 0.96875 0.0859375
vt 0.96875 0.0859375
vt 0.984375 0.125
vt 1 0.125
vt 1 0.0859375
vt 0.984375 0.0859375
vt 0.984375 0.125
vt 0.984375 0.125
vt 0.984375 0.0859375
vt 0.984375 0.0859375
vt 0.984375 0.125
vt 0.96875 0.125
vt 0.96875 0.125
vt 0.984375 0.125
vt 1 0.125
vt 0.984375 0.125
vt 0.984375 0.125
vt 1 0.125
vn 0.06698729810778069 -0.25000000000000006 -0.9659258262890684
vn 0.8221683353589516 0.5623194848275402 -0.08852132690137687
vn -0.06698729810778069 0.25000000000000006 0.9659258262890684
vn -0.8221683353589516 -0.5623194848275402 0.08852132690137687
vn -0.5652892447458292 0.7882238241662644 -0.243210346801694
vn 0.5652892447458292 -0.7882238241662644 0.243210346801694
usemtl m_18f42bdd-f153-878d-4a63-0072cc6b4875
f 132/388/97 135/387/97 133/386/97 130/385/97
f 131/392/98 132/391/98 130/390/98 129/389/98
f 136/396/99 131/395/99 129/394/99 134/393/99
f 135/400/100 136/399/100 134/398/100 133/397/100
f 134/404/101 129/403/101 130/402/101 133/401/101
f 135/408/102 132/407/102 131/406/102 136/405/102
o bone12
v 0.35062512703344184 0.4833124392177387 0.3704306690747543
v 0.35062512703344184 0.4833124392177387 0.3704306690747543
v 0.32079921004816847 0.18166666485242058 0.4464339024502837
v 0.32079921004816847 0.18166666485242058 0.4464339024502837
v 0.17992258832657243 0.4963575439593898 0.3552160660135802
v 0.17992258832657243 0.4963575439593898 0.3552160660135802
v 0.150096671341299 0.19471176959407177 0.4312192993891095
v 0.150096671341299 0.19471176959407177 0.4312192993891095
vt 0.96875 0.125
vt 0.984375 0.125
vt 0.984375 0.0859375
vt 0.96875 0.0859375
vt 0.96875 0.125
vt 0.96875 0.125
vt 0.96875 0.0859375
vt 0.96875 0.0859375
vt 0.984375 0.125
vt 1 0.125
vt 1 0.0859375
vt 0.984375 0.0859375
vt 0.984375 0.125
vt 0.984375 0.125
vt 0.984375 0.0859375
vt 0.984375 0.0859375
vt 0.984375 0.125
vt 0.96875 0.125
vt 0.96875 0.125
vt 0.984375 0.125
vt 1 0.125
vt 0.984375 0.125
vt 0.984375 0.125
vt 1 0.125
vn 0.06698729810778066 -0.25 -0.9659258262890684
vn 0.9931784070217861 -0.0758987912241523 0.08852132690137685
vn -0.06698729810778066 0.25 0.9659258262890684
vn -0.9931784070217861 0.0758987912241523 -0.08852132690137685
vn 0.09544293435287499 0.965266477969018 -0.24321034680169398
vn -0.09544293435287499 -0.965266477969018 0.24321034680169398
usemtl m_18f42bdd-f153-878d-4a63-0072cc6b4875
f 140/412/103 143/411/103 141/410/103 138/409/103
f 139/416/104 140/415/104 138/414/104 137/413/104
f 144/420/105 139/419/105 137/418/105 142/417/105
f 143/424/106 144/423/106 142/422/106 141/421/106
f 142/428/107 137/427/107 138/426/107 141/425/107
f 143/432/108 140/431/108 139/430/108 144/429/108
o cloakLeft
v 0.17499560310565104 1.0256528504492772 0.19309630735221692
v 0.17499560310565104 1.0256528504492772 0.19309630735221692
v 0.003120603105651043 0.3842066178983762 0.3710344008601999
v 0.003120603105651043 0.3842066178983762 0.3710344008601999
v -0.18722658175274953 1.1227099923627222 0.19309630735221692
v -0.18722658175274953 1.1227099923627222 0.19309630735221692
v -0.35910158175274953 0.48126375981182146 0.3710344008601999
v -0.35910158175274953 0.48126375981182146 0.3710344008601999
vt 0.90625 0.0859375
vt 0.953125 0.0859375
vt 0.953125 0
vt 0.90625 0
vt 0.90625 0.0859375
vt 0.90625 0.0859375
vt 0.90625 0
vt 0.90625 0
vt 0.953125 0.0859375
vt 1 0.0859375
vt 1 0
vt 0.953125 0
vt 0.953125 0.0859375
vt 0.953125 0.0859375
vt 0.953125 0
vt 0.953125 0
vt 0.953125 0.0859375
vt 0.90625 0.0859375
vt 0.90625 0.0859375
vt 0.953125 0.0859375
vt 1 0.0859375
vt 0.953125 0.0859375
vt 0.953125 0.0859375
vt 1 0.0859375
vn -0.06698729810778066 -0.24999999999999997 -0.9659258262890683
vn 0.9659258262890683 -0.25881904510252074 2.7755575615628914e-17
vn 0.06698729810778066 0.24999999999999997 0.9659258262890683
vn -0.9659258262890683 0.25881904510252074 -2.7755575615628914e-17
vn 0.24999999999999997 0.9330127018922194 -0.25881904510252074
vn -0.24999999999999997 -0.9330127018922194 0.25881904510252074
usemtl m_18f42bdd-f153-878d-4a63-0072cc6b4875
f 148/436/109 151/435/109 149/434/109 146/433/109
f 147/440/110 148/439/110 146/438/110 145/437/110
f 152/444/111 147/443/111 145/442/111 150/441/111
f 151/448/112 152/447/112 150/446/112 149/445/112
f 150/452/113 145/451/113 146/450/113 149/449/113
f 151/456/114 148/455/114 147/454/114 152/453/114
o bone13
v -0.188357267505303 0.49446531876418814 0.35642345493382976
v -0.188357267505303 0.49446531876418814 0.35642345493382976
v -0.15853135052002953 0.19281954439887 0.43242668830935915
v -0.15853135052002953 0.19281954439887 0.43242668830935915
v -0.3590598062121724 0.48142021402253693 0.37163805799500393
v -0.3590598062121724 0.48142021402253693 0.37163805799500393
v -0.329233889226899 0.17977443965721884 0.4476412913705333
v -0.329233889226899 0.17977443965721884 0.4476412913705333
vt 0.96875 0.125
vt 0.984375 0.125
vt 0.984375 0.0859375
vt 0.96875 0.0859375
vt 0.96875 0.125
vt 0.96875 0.125
vt 0.96875 0.0859375
vt 0.96875 0.0859375
vt 0.984375 0.125
vt 1 0.125
vt 1 0.0859375
vt 0.984375 0.0859375
vt 0.984375 0.125
vt 0.984375 0.125
vt 0.984375 0.0859375
vt 0.984375 0.0859375
vt 0.984375 0.125
vt 0.96875 0.125
vt 0.96875 0.125
vt 0.984375 0.125
vt 1 0.125
vt 0.984375 0.125
vt 0.984375 0.125
vt 1 0.125
vn -0.06698729810778066 -0.25 -0.9659258262890684
vn 0.9931784070217861 0.0758987912241523 -0.08852132690137685
vn 0.06698729810778066 0.25 0.9659258262890684
vn -0.9931784070217861 -0.0758987912241523 0.08852132690137685
vn -0.09544293435287499 0.965266477969018 -0.24321034680169398
vn 0.09544293435287499 -0.965266477969018 0.24321034680169398
usemtl m_18f42bdd-f153-878d-4a63-0072cc6b4875
f 156/460/115 159/459/115 157/458/115 154/457/115
f 155/464/116 156/463/116 154/462/116 153/461/116
f 160/468/117 155/467/117 153/466/117 158/465/117
f 159/472/118 160/471/118 158/470/118 157/469/118
f 158/476/119 153/475/119 154/474/119 157/473/119
f 159/480/120 156/479/120 155/478/120 160/477/120
o bone14
v 0.00307901206150335 0.384050402679922 0.3704306690747543
v 0.00307901206150335 0.384050402679922 0.3704306690747543
v -0.17357387692156828 0.13773045762796446 0.4464339024502837
v -0.17357387692156828 0.13773045762796446 0.4464339024502837
v -0.15107755081830004 0.48948530608508584 0.3538329202807462
v -0.15107755081830004 0.48948530608508584 0.3538329202807462
v -0.3277304398013717 0.24316536103312822 0.42983615365627553
v -0.3277304398013717 0.24316536103312822 0.42983615365627553
vt 0.953125 0.171875
vt 0.9765625 0.171875
vt 0.9765625 0.1328125
vt 0.953125 0.1328125
vt 0.953125 0.171875
vt 0.953125 0.171875
vt 0.953125 0.1328125
vt 0.953125 0.1328125
vt 0.9765625 0.171875
vt 1 0.171875
vt 1 0.1328125
vt 0.9765625 0.1328125
vt 0.9765625 0.171875
vt 0.9765625 0.171875
vt 0.9765625 0.1328125
vt 0.9765625 0.1328125
vt 0.9765625 0.171875
vt 0.953125 0.171875
vt 0.953125 0.171875
vt 0.9765625 0.171875
vt 1 0.171875
vt 0.9765625 0.171875
vt 0.9765625 0.171875
vt 1 0.171875
vn -0.06698729810778069 -0.25000000000000006 -0.9659258262890684
vn 0.8221683353589516 -0.5623194848275402 0.08852132690137687
vn 0.06698729810778069 0.25000000000000006 0.9659258262890684
vn -0.8221683353589516 0.5623194848275402 -0.08852132690137687
vn 0.5652892447458292 0.7882238241662644 -0.243210346801694
vn -0.5652892447458292 -0.7882238241662644 0.243210346801694
usemtl m_18f42bdd-f153-878d-4a63-0072cc6b4875
f 164/484/121 167/483/121 165/482/121 162/481/121
f 163/488/122 164/487/122 162/486/122 161/485/122
f 168/492/123 163/491/123 161/490/123 166/489/123
f 167/496/124 168/495/124 166/494/124 165/493/124
f 166/500/125 161/499/125 162/498/125 165/497/125
f 167/504/126 164/503/126 163/502/126 168/501/126
o bone2
v -0.15790307286655036 0.16488414404574522 0.45122589418169373
v -0.15790307286655036 0.16488414404574522 0.45122589418169373
v -0.25619766304167174 0.09205293256711278 0.4768927634270778
v -0.25619766304167174 0.09205293256711278 0.4768927634270778
v -0.22507355512521857 0.24946570181999325 0.43399287289639715
v -0.22507355512521857 0.24946570181999325 0.43399287289639715
v -0.32336814530033997 0.1766344903413608 0.45965974214178124
v -0.32336814530033997 0.1766344903413608 0.45965974214178124
vt 0.875 0.015625
vt 0.8828125 0.015625
vt 0.8828125 0
vt 0.875 0
vt 0.875 0.015625
vt 0.875 0.015625
vt 0.875 0
vt 0.875 0
vt 0.8828125 0.015625
vt 0.890625 0.015625
vt 0.890625 0
vt 0.8828125 0
vt 0.8828125 0.015625
vt 0.8828125 0.015625
vt 0.8828125 0
vt 0.8828125 0
vt 0.8828125 0.015625
vt 0.875 0.015625
vt 0.875 0.015625
vt 0.8828125 0.015625
vt 0.890625 0.015625
vt 0.8828125 0.015625
vt 0.8828125 0.015625
vt 0.890625 0.015625
vn -0.06698729810778069 -0.25 -0.9659258262890683
vn 0.6141301235078237 -0.7733170996502677 0.1575590517512831
vn 0.06698729810778069 0.25 0.9659258262890683
vn -0.6141301235078237 0.7733170996502677 -0.1575590517512831
vn 0.7863567214009715 0.5826496918290597 -0.20533495396307275
vn -0.7863567214009715 -0.5826496918290597 0.20533495396307275
usemtl m_18f42bdd-f153-878d-4a63-0072cc6b4875
f 172/508/127 175/507/127 173/506/127 170/505/127
f 171/512/128 172/511/128 170/510/128 169/509/128
f 176/516/129 171/515/129 169/514/129 174/513/129
f 175/520/130 176/519/130 174/518/130 173/517/130
f 174/524/131 169/523/131 170/522/131 173/521/131
f 175/528/132 172/527/132 171/526/132 176/525/132
o cloakRight2
v 0.17912670893819027 1.1233522536383527 0.18705927093791022
v 0.17912670893819027 1.1233522536383527 0.18705927093791022
v 0.35100170893819027 0.48190602108745173 0.3649973644458932
v 0.35100170893819027 0.48190602108745173 0.3649973644458932
v -0.1830954759202103 1.0262951117249073 0.18705927093791022
v -0.1830954759202103 1.0262951117249073 0.18705927093791022
v -0.011220475920210332 0.38484887917400645 0.3649973644458932
v -0.011220475920210332 0.38484887917400645 0.3649973644458932
vt 0.90625 0.9453125
vt 0.953125 0.9453125
vt 0.953125 0.859375
vt 0.90625 0.859375
vt 0.90625 0.9453125
vt 0.90625 0.9453125
vt 0.90625 0.859375
vt 0.90625 0.859375
vt 0.953125 0.9453125
vt 1 0.9453125
vt 1 0.859375
vt 0.953125 0.859375
vt 0.953125 0.9453125
vt 0.953125 0.9453125
vt 0.953125 0.859375
vt 0.953125 0.859375
vt 0.953125 0.9453125
vt 0.90625 0.9453125
vt 0.90625 0.9453125
vt 0.953125 0.9453125
vt 1 0.9453125
vt 0.953125 0.9453125
vt 0.953125 0.9453125
vt 1 0.9453125
vn 0.06698729810778066 -0.24999999999999997 -0.9659258262890683
vn 0.9659258262890683 0.25881904510252074 -2.7755575615628914e-17
vn -0.06698729810778066 0.24999999999999997 0.9659258262890683
vn -0.9659258262890683 -0.25881904510252074 2.7755575615628914e-17
vn -0.24999999999999997 0.9330127018922194 -0.25881904510252074
vn 0.24999999999999997 -0.9330127018922194 0.25881904510252074
usemtl m_18f42bdd-f153-878d-4a63-0072cc6b4875
f 180/532/133 183/531/133 181/530/133 178/529/133
f 179/536/134 180/535/134 178/534/134 177/533/134
f 184/540/135 179/539/135 177/538/135 182/537/135
f 183/544/136 184/543/136 182/542/136 181/541/136
f 182/548/137 177/547/137 178/546/137 181/545/137
f 183/552/138 180/551/138 179/550/138 184/549/138
o bone3
v 0.32703533024055254 0.2116344134199792 0.433286727011032
v 0.32703533024055254 0.2116344134199792 0.433286727011032
v 0.27832532383363334 0.099413439003526 0.4589535962564161
v 0.27832532383363334 0.099413439003526 0.4589535962564161
v 0.22657320733296993 0.25129895001480507 0.4160537057257354
v 0.22657320733296993 0.25129895001480507 0.4160537057257354
v 0.1778632009260507 0.13907797559835186 0.4417205749711195
v 0.1778632009260507 0.13907797559835186 0.4417205749711195
vt 0.984375 0.8125
vt 0.9921875 0.8125
vt 0.9921875 0.796875
vt 0.984375 0.796875
vt 0.984375 0.8125
vt 0.984375 0.8125
vt 0.984375 0.796875
vt 0.984375 0.796875
vt 0.9921875 0.8125
vt 1 0.8125
vt 1 0.796875
vt 0.9921875 0.796875
vt 0.9921875 0.8125
vt 0.9921875 0.8125
vt 0.9921875 0.796875
vt 0.9921875 0.796875
vt 0.9921875 0.8125
vt 0.984375 0.8125
vt 0.984375 0.8125
vt 0.9921875 0.8125
vt 1 0.8125
vt 0.9921875 0.8125
vt 0.9921875 0.8125
vt 1 0.8125
vn 0.06698729810778065 -0.25000000000000006 -0.9659258262890684
vn 0.9185108380121838 -0.3626471917241223 0.15755905175128304
vn -0.06698729810778065 0.25000000000000006 0.9659258262890684
vn -0.9185108380121838 0.3626471917241223 -0.15755905175128304
vn 0.38968005125535377 0.8977677953316257 -0.2053349539630727
vn -0.38968005125535377 -0.8977677953316257 0.2053349539630727
usemtl m_18f42bdd-f153-878d-4a63-0072cc6b4875
f 188/556/139 191/555/139 189/554/139 186/553/139
f 187/560/140 188/559/140 186/558/140 185/557/140
f 192/564/141 187/563/141 185/562/141 190/561/141
f 191/568/142 192/567/142 190/566/142 189/565/142
f 190/572/143 185/571/143 186/570/143 189/569/143
f 191/576/144 188/575/144 187/574/144 192/573/144
o bone4
v 0.14522399670757935 0.4853851138557388 0.3491791041516206
v 0.14522399670757935 0.4853851138557388 0.3491791041516206
v 0.321876885690651 0.2390651688037812 0.42518233752715
v 0.321876885690651 0.2390651688037812 0.42518233752715
v 0.003913814067759591 0.3887364524010053 0.3643937072127948
v 0.003913814067759591 0.3887364524010053 0.3643937072127948
v 0.18056670305083122 0.14241650734904773 0.4403969405883241
v 0.18056670305083122 0.14241650734904773 0.4403969405883241
vt 0.96875 0.859375
vt 0.984375 0.859375
vt 0.984375 0.8203125
vt 0.96875 0.8203125
vt 0.96875 0.859375
vt 0.96875 0.859375
vt 0.96875 0.8203125
vt 0.96875 0.8203125
vt 0.984375 0.859375
vt 1 0.859375
vt 1 0.8203125
vt 0.984375 0.8203125
vt 0.984375 0.859375
vt 0.984375 0.859375
vt 0.984375 0.8203125
vt 0.984375 0.8203125
vt 0.984375 0.859375
vt 0.96875 0.859375
vt 0.96875 0.859375
vt 0.984375 0.859375
vt 1 0.859375
vt 0.984375 0.859375
vt 0.984375 0.859375
vt 1 0.859375
vn 0.06698729810778069 -0.25000000000000006 -0.9659258262890684
vn 0.8221683353589516 0.5623194848275402 -0.08852132690137687
vn -0.06698729810778069 0.25000000000000006 0.9659258262890684
vn -0.8221683353589516 -0.5623194848275402 0.08852132690137687
vn -0.5652892447458292 0.7882238241662644 -0.243210346801694
vn 0.5652892447458292 -0.7882238241662644 0.243210346801694
usemtl m_18f42bdd-f153-878d-4a63-0072cc6b4875
f 196/580/145 199/579/145 197/578/145 194/577/145
f 195/584/146 196/583/146 194/582/146 193/581/146
f 200/588/147 195/587/147 193/586/147 198/585/147
f 199/592/148 200/591/148 198/590/148 197/589/148
f 198/596/149 193/595/149 194/594/149 197/593/149
f 199/600/150 196/599/150 195/598/150 200/597/150
o bone5
v 0.3509600635239808 0.48206243921773867 0.36560103994330895
v 0.3509600635239808 0.48206243921773867 0.36560103994330895
v 0.32113414653870737 0.18041666485242058 0.44160427331883834
v 0.32113414653870737 0.18041666485242058 0.44160427331883834
v 0.18025752481711133 0.49510754395938983 0.35038643688213483
v 0.18025752481711133 0.49510754395938983 0.35038643688213483
v 0.1504316078318379 0.19346176959407174 0.42638967025766417
v 0.1504316078318379 0.19346176959407174 0.42638967025766417
vt 0.9609375 0.859375
vt 0.9765625 0.859375
vt 0.9765625 0.8203125
vt 0.9609375 0.8203125
vt 0.9609375 0.859375
vt 0.9609375 0.859375
vt 0.9609375 0.8203125
vt 0.9609375 0.8203125
vt 0.9765625 0.859375
vt 0.9921875 0.859375
vt 0.9921875 0.8203125
vt 0.9765625 0.8203125
vt 0.9765625 0.859375
vt 0.9765625 0.859375
vt 0.9765625 0.8203125
vt 0.9765625 0.8203125
vt 0.9765625 0.859375
vt 0.9609375 0.859375
vt 0.9609375 0.859375
vt 0.9765625 0.859375
vt 0.9921875 0.859375
vt 0.9765625 0.859375
vt 0.9765625 0.859375
vt 0.9921875 0.859375
vn 0.06698729810778066 -0.25 -0.9659258262890684
vn 0.9931784070217861 -0.0758987912241523 0.08852132690137685
vn -0.06698729810778066 0.25 0.9659258262890684
vn -0.9931784070217861 0.0758987912241523 -0.08852132690137685
vn 0.09544293435287499 0.965266477969018 -0.24321034680169398
vn -0.09544293435287499 -0.965266477969018 0.24321034680169398
usemtl m_18f42bdd-f153-878d-4a63-0072cc6b4875
f 204/604/151 207/603/151 205/602/151 202/601/151
f 203/608/152 204/607/152 202/606/152 201/605/152
f 208/612/153 203/611/153 201/610/153 206/609/153
f 207/616/154 208/615/154 206/614/154 205/613/154
f 206/620/155 201/619/155 202/618/155 205/617/155
f 207/624/156 204/623/156 203/622/156 208/621/156
o cloakLeft2
v 0.1745769324924774 1.0240903504492769 0.18705927093791022
v 0.1745769324924774 1.0240903504492769 0.18705927093791022
v 0.002701932492477438 0.38264411789837616 0.3649973644458932
v 0.002701932492477438 0.38264411789837616 0.3649973644458932
v -0.18764525236592317 1.1211474923627223 0.18705927093791022
v -0.18764525236592317 1.1211474923627223 0.18705927093791022
v -0.35952025236592317 0.47970125981182143 0.3649973644458932
v -0.35952025236592317 0.47970125981182143 0.3649973644458932
vt 0.90625 0.9453125
vt 0.953125 0.9453125
vt 0.953125 0.859375
vt 0.90625 0.859375
vt 0.90625 0.9453125
vt 0.90625 0.9453125
vt 0.90625 0.859375
vt 0.90625 0.859375
vt 0.953125 0.9453125
vt 1 0.9453125
vt 1 0.859375
vt 0.953125 0.859375
vt 0.953125 0.9453125
vt 0.953125 0.9453125
vt 0.953125 0.859375
vt 0.953125 0.859375
vt 0.953125 0.9453125
vt 0.90625 0.9453125
vt 0.90625 0.9453125
vt 0.953125 0.9453125
vt 1 0.9453125
vt 0.953125 0.9453125
vt 0.953125 0.9453125
vt 1 0.9453125
vn -0.06698729810778066 -0.24999999999999997 -0.9659258262890683
vn 0.9659258262890683 -0.25881904510252074 2.7755575615628914e-17
vn 0.06698729810778066 0.24999999999999997 0.9659258262890683
vn -0.9659258262890683 0.25881904510252074 -2.7755575615628914e-17
vn 0.24999999999999997 0.9330127018922194 -0.25881904510252074
vn -0.24999999999999997 -0.9330127018922194 0.25881904510252074
usemtl m_18f42bdd-f153-878d-4a63-0072cc6b4875
f 212/628/157 215/627/157 213/626/157 210/625/157
f 211/632/158 212/631/158 210/630/158 209/629/158
f 216/636/159 211/635/159 209/634/159 214/633/159
f 215/640/160 216/639/160 214/638/160 213/637/160
f 214/644/161 209/643/161 210/642/161 213/641/161
f 215/648/162 212/647/162 211/646/162 216/645/162
o bone6
v -0.18885967224111133 0.49259031876418813 0.3491790112366618
v -0.18885967224111133 0.49259031876418813 0.3491790112366618
v -0.1590337552558379 0.19094454439887001 0.4251822446121912
v -0.1590337552558379 0.19094454439887001 0.4251822446121912
v -0.3595622109479808 0.4795452140225369 0.36439361429783595
v -0.3595622109479808 0.4795452140225369 0.36439361429783595
v -0.3297362939627073 0.17789943965721886 0.4403968476733653
v -0.3297362939627073 0.17789943965721886 0.4403968476733653
vt 0.9609375 0.859375
vt 0.9765625 0.859375
vt 0.9765625 0.8203125
vt 0.9609375 0.8203125
vt 0.9609375 0.859375
vt 0.9609375 0.859375
vt 0.9609375 0.8203125
vt 0.9609375 0.8203125
vt 0.9765625 0.859375
vt 0.9921875 0.859375
vt 0.9921875 0.8203125
vt 0.9765625 0.8203125
vt 0.9765625 0.859375
vt 0.9765625 0.859375
vt 0.9765625 0.8203125
vt 0.9765625 0.8203125
vt 0.9765625 0.859375
vt 0.9609375 0.859375
vt 0.9609375 0.859375
vt 0.9765625 0.859375
vt 0.9921875 0.859375
vt 0.9765625 0.859375
vt 0.9765625 0.859375
vt 0.9921875 0.859375
vn -0.06698729810778066 -0.25 -0.9659258262890684
vn 0.9931784070217861 0.0758987912241523 -0.08852132690137685
vn 0.06698729810778066 0.25 0.9659258262890684
vn -0.9931784070217861 -0.0758987912241523 0.08852132690137685
vn -0.09544293435287499 0.965266477969018 -0.24321034680169398
vn 0.09544293435287499 -0.965266477969018 0.24321034680169398
usemtl m_18f42bdd-f153-878d-4a63-0072cc6b4875
f 220/652/163 223/651/163 221/650/163 218/649/163
f 219/656/164 220/655/164 218/654/164 217/653/164
f 224/660/165 219/659/165 217/658/165 222/657/165
f 223/664/166 224/663/166 222/662/166 221/661/166
f 222/668/167 217/667/167 218/666/167 221/665/167
f 223/672/168 220/671/168 219/670/168 224/669/168
o bone7
v 0.002744075570964455 0.38280040267992205 0.36560103994330895
v 0.002744075570964455 0.38280040267992205 0.36560103994330895
v -0.17390881341210718 0.13648045762796446 0.44160427331883834
v -0.17390881341210718 0.13648045762796446 0.44160427331883834
v -0.15141248730883894 0.4882353060850858 0.34900329114930084
v -0.15141248730883894 0.4882353060850858 0.34900329114930084
v -0.32806537629191057 0.24191536103312822 0.4250065245248302
v -0.32806537629191057 0.24191536103312822 0.4250065245248302
vt 0.953125 0.796875
vt 0.9765625 0.796875
vt 0.9765625 0.7578125
vt 0.953125 0.7578125
vt 0.953125 0.796875
vt 0.953125 0.796875
vt 0.953125 0.7578125
vt 0.953125 0.7578125
vt 0.9765625 0.796875
vt 1 0.796875
vt 1 0.7578125
vt 0.9765625 0.7578125
vt 0.9765625 0.796875
vt 0.9765625 0.796875
vt 0.9765625 0.7578125
vt 0.9765625 0.7578125
vt 0.9765625 0.796875
vt 0.953125 0.796875
vt 0.953125 0.796875
vt 0.9765625 0.796875
vt 1 0.796875
vt 0.9765625 0.796875
vt 0.9765625 0.796875
vt 1 0.796875
vn -0.06698729810778069 -0.25000000000000006 -0.9659258262890684
vn 0.8221683353589516 -0.5623194848275402 0.08852132690137687
vn 0.06698729810778069 0.25000000000000006 0.9659258262890684
vn -0.8221683353589516 0.5623194848275402 -0.08852132690137687
vn 0.5652892447458292 0.7882238241662644 -0.243210346801694
vn -0.5652892447458292 -0.7882238241662644 0.243210346801694
usemtl m_18f42bdd-f153-878d-4a63-0072cc6b4875
f 228/676/169 231/675/169 229/674/169 226/673/169
f 227/680/170 228/679/170 226/678/170 225/677/170
f 232/684/171 227/683/171 225/682/171 230/681/171
f 231/688/172 232/687/172 230/686/172 229/685/172
f 230/692/173 225/691/173 226/690/173 229/689/173
f 231/696/174 228/695/174 227/694/174 232/693/174
o bone8
v -0.15911499869050405 0.16036117529574523 0.4337504848732002
v -0.15911499869050405 0.16036117529574523 0.4337504848732002
v -0.2574095888656255 0.08752996381711278 0.4594173541185843
v -0.2574095888656255 0.08752996381711278 0.4594173541185843
v -0.22628548094917225 0.24494273306999326 0.41651746358790365
v -0.22628548094917225 0.24494273306999326 0.41651746358790365
v -0.32458007112429366 0.17211152159136078 0.44218433283328773
v -0.32458007112429366 0.17211152159136078 0.44218433283328773
vt 0.984375 0.8125
vt 0.9921875 0.8125
vt 0.9921875 0.796875
vt 0.984375 0.796875
vt 0.984375 0.8125
vt 0.984375 0.8125
vt 0.984375 0.796875
vt 0.984375 0.796875
vt 0.9921875 0.8125
vt 1 0.8125
vt 1 0.796875
vt 0.9921875 0.796875
vt 0.9921875 0.8125
vt 0.9921875 0.8125
vt 0.9921875 0.796875
vt 0.9921875 0.796875
vt 0.9921875 0.8125
vt 0.984375 0.8125
vt 0.984375 0.8125
vt 0.9921875 0.8125
vt 1 0.8125
vt 0.9921875 0.8125
vt 0.9921875 0.8125
vt 1 0.8125
vn -0.06698729810778069 -0.25 -0.9659258262890683
vn 0.6141301235078237 -0.7733170996502677 0.1575590517512831
vn 0.06698729810778069 0.25 0.9659258262890683
vn -0.6141301235078237 0.7733170996502677 -0.1575590517512831
vn 0.7863567214009715 0.5826496918290597 -0.20533495396307275
vn -0.7863567214009715 -0.5826496918290597 0.20533495396307275
usemtl m_18f42bdd-f153-878d-4a63-0072cc6b4875
f 236/700/175 239/699/175 237/698/175 234/697/175
f 235/704/176 236/703/176 234/702/176 233/701/176
f 240/708/177 235/707/177 233/706/177 238/705/177
f 239/712/178 240/711/178 238/710/178 237/709/178
f 238/716/179 233/715/179 234/714/179 237/713/179
f 239/720/180 236/719/180 235/718/180 240/717/180
o leftNeckline
v 0.0020182050718570155 1.0700320438682636 -0.1875
v 0.0020182050718570155 1.0700320438682636 -0.19374999999999998
v -0.03548179492814307 1.0050801385844306 -0.1875
v -0.03548179492814307 1.0050801385844306 -0.19374999999999998
v -0.1468299112035934 1.1559695438682636 -0.19374999999999998
v -0.1468299112035934 1.1559695438682636 -0.1875
v -0.1843299112035935 1.0910176385844306 -0.19374999999999998
v -0.1843299112035935 1.0910176385844306 -0.1875
vt 0 0.5
vt 0.015625 0.5
vt 0.015625 0.4921875
vt 0 0.4921875
vt 0 0.5
vt 0 0.5
vt 0 0.4921875
vt 0 0.4921875
vt 0.015625 0.5
vt 0.03125 0.5
vt 0.03125 0.4921875
vt 0.015625 0.4921875
vt 0.015625 0.5
vt 0.015625 0.5
vt 0.015625 0.4921875
vt 0.015625 0.4921875
vt 0.015625 0.5
vt 0 0.5
vt 0 0.5
vt 0.015625 0.5
vt 0.03125 0.5
vt 0.015625 0.5
vt 0.015625 0.5
vt 0.03125 0.5
vn 0 0 -1
vn 0.8660254037844387 -0.49999999999999994 0
vn 0 0 1
vn -0.8660254037844387 0.49999999999999994 0
vn 0.49999999999999994 0.8660254037844387 0
vn -0.49999999999999994 -0.8660254037844387 0
usemtl m_18f42bdd-f153-878d-4a63-0072cc6b4875
f 244/724/181 247/723/181 245/722/181 242/721/181
f 243/728/182 244/727/182 242/726/182 241/725/182
f 248/732/183 243/731/183 241/730/183 246/729/183
f 247/736/184 248/735/184 246/734/184 245/733/184
f 246/740/185 241/739/185 242/738/185 245/737/185
f 247/744/186 244/743/186 243/742/186 248/741/186
o rightNeckline
v 0.1468299112035934 1.1559695438682636 -0.1875
v 0.1468299112035934 1.1559695438682636 -0.19374999999999998
v 0.1843299112035935 1.0910176385844306 -0.1875
v 0.1843299112035935 1.0910176385844306 -0.19374999999999998
v -0.0020182050718570155 1.0700320438682636 -0.19374999999999998
v -0.0020182050718570155 1.0700320438682636 -0.1875
v 0.03548179492814307 1.0050801385844306 -0.19374999999999998
v 0.03548179492814307 1.0050801385844306 -0.1875
vt 0 0.5
vt 0.015625 0.5
vt 0.015625 0.4921875
vt 0 0.4921875
vt 0 0.5
vt 0 0.5
vt 0 0.4921875
vt 0 0.4921875
vt 0.015625 0.5
vt 0.03125 0.5
vt 0.03125 0.4921875
vt 0.015625 0.4921875
vt 0.015625 0.5
vt 0.015625 0.5
vt 0.015625 0.4921875
vt 0.015625 0.4921875
vt 0.015625 0.5
vt 0 0.5
vt 0 0.5
vt 0.015625 0.5
vt 0.03125 0.5
vt 0.015625 0.5
vt 0.015625 0.5
vt 0.03125 0.5
vn 0 0 -1
vn 0.8660254037844387 0.49999999999999994 0
vn 0 0 1
vn -0.8660254037844387 -0.49999999999999994 0
vn -0.49999999999999994 0.8660254037844387 0
vn 0.49999999999999994 -0.8660254037844387 0
usemtl m_18f42bdd-f153-878d-4a63-0072cc6b4875
f 252/748/187 255/747/187 253/746/187 250/745/187
f 251/752/188 252/751/188 250/750/188 249/749/188
f 256/756/189 251/755/189 249/754/189 254/753/189
f 255/760/190 256/759/190 254/758/190 253/757/190
f 254/764/191 249/763/191 250/762/191 253/761/191
f 255/768/192 252/767/192 251/766/192 256/765/192
o jacketPocket
v -0.046875 1.003125 -0.13125
v -0.046875 1.003125 -0.19375
v -0.046875 0.940625 -0.13125
v -0.046875 0.940625 -0.19375
v -0.171875 1.003125 -0.19375
v -0.171875 1.003125 -0.13125
v -0.171875 0.940625 -0.19375
v -0.171875 0.940625 -0.13125
vt 0.0078125 0.5234375
vt 0.0234375 0.5234375
vt 0.0234375 0.515625
vt 0.0078125 0.515625
vt 0 0.5234375
vt 0.0078125 0.5234375
vt 0.0078125 0.515625
vt 0 0.515625
vt 0.03125 0.5234375
vt 0.046875 0.5234375
vt 0.046875 0.515625
vt 0.03125 0.515625
vt 0.0234375 0.5234375
vt 0.03125 0.5234375
vt 0.03125 0.515625
vt 0.0234375 0.515625
vt 0.0234375 0.5234375
vt 0.0078125 0.5234375
vt 0.0078125 0.53125
vt 0.0234375 0.53125
vt 0.0390625 0.53125
vt 0.0234375 0.53125
vt 0.0234375 0.5234375
vt 0.0390625 0.5234375
vn 0 0 -1
vn 1 0 0
vn 0 0 1
vn -1 0 0
vn 0 1 0
vn 0 -1 0
usemtl m_18f42bdd-f153-878d-4a63-0072cc6b4875
f 260/772/193 263/771/193 261/770/193 258/769/193
f 259/776/194 260/775/194 258/774/194 257/773/194
f 264/780/195 259/779/195 257/778/195 262/777/195
f 263/784/196 264/783/196 262/782/196 261/781/196
f 262/788/197 257/787/197 258/786/197 261/785/197
f 263/792/198 260/791/198 259/790/198 264/789/198
o bone9
v 0.05069195397220316 1.030327114738375 -0.15
v 0.05069195397220316 1.030327114738375 -0.2125
v 0.12993287804858433 0.8603944046690031 -0.15
v 0.12993287804858433 0.8603944046690031 -0.2125
v -0.005952282717587409 1.0039134733795811 -0.2125
v -0.005952282717587409 1.0039134733795811 -0.15
v 0.0732886413587937 0.8339807633102093 -0.2125
v 0.0732886413587937 0.8339807633102093 -0.15
vt 0.9765625 0.2265625
vt 0.984375 0.2265625
vt 0.984375 0.203125
vt 0.9765625 0.203125
vt 0.96875 0.2265625
vt 0.9765625 0.2265625
vt 0.9765625 0.203125
vt 0.96875 0.203125
vt 0.9921875 0.2265625
vt 1 0.2265625
vt 1 0.203125
vt 0.9921875 0.203125
vt 0.984375 0.2265625
vt 0.9921875 0.2265625
vt 0.9921875 0.203125
vt 0.984375 0.203125
vt 0.984375 0.2265625
vt 0.9765625 0.2265625
vt 0.9765625 0.234375
vt 0.984375 0.234375
vt 0.9921875 0.234375
vt 0.984375 0.234375
vt 0.984375 0.2265625
vt 0.9921875 0.2265625
vn 0 0 -1
vn 0.9063077870366499 0.42261826174069944 0
vn 0 0 1
vn -0.9063077870366499 -0.42261826174069944 0
vn -0.42261826174069944 0.9063077870366499 0
vn 0.42261826174069944 -0.9063077870366499 0
usemtl m_18f42bdd-f153-878d-4a63-0072cc6b4875
f 268/796/199 271/795/199 269/794/199 266/793/199
f 267/800/200 268/799/200 266/798/200 265/797/200
f 272/804/201 267/803/201 265/802/201 270/801/201
f 271/808/202 272/807/202 270/806/202 269/805/202
f 270/812/203 265/811/203 266/810/203 269/809/203
f 271/816/204 268/815/204 267/814/204 272/813/204
o bone10
v 0.03898330671482786 1.0023353186403843 -0.14375
v 0.03898330671482786 1.0023353186403843 -0.20625
v -0.009113275940344334 0.8701910438423659 -0.14375
v -0.009113275940344334 0.8701910438423659 -0.20625
v -0.019747482084291446 1.0237115775982386 -0.20625
v -0.019747482084291446 1.0237115775982386 -0.14375
v -0.06784406473946361 0.8915673028002202 -0.20625
v -0.06784406473946361 0.8915673028002202 -0.14375
vt 0.9765625 0.2265625
vt 0.984375 0.2265625
vt 0.984375 0.2109375
vt 0.9765625 0.2109375
vt 0.96875 0.2265625
vt 0.9765625 0.2265625
vt 0.9765625 0.2109375
vt 0.96875 0.2109375
vt 0.9921875 0.2265625
vt 1 0.2265625
vt 1 0.2109375
vt 0.9921875 0.2109375
vt 0.984375 0.2265625
vt 0.9921875 0.2265625
vt 0.9921875 0.2109375
vt 0.984375 0.2109375
vt 0.984375 0.2265625
vt 0.9765625 0.2265625
vt 0.9765625 0.234375
vt 0.984375 0.234375
vt 0.9921875 0.234375
vt 0.984375 0.234375
vt 0.984375 0.2265625
vt 0.9921875 0.2265625
vn 0 0 -1
vn 0.9396926207859084 -0.34202014332566866 0
vn 0 0 1
vn -0.9396926207859084 0.34202014332566866 0
vn 0.34202014332566866 0.9396926207859084 0
vn -0.34202014332566866 -0.9396926207859084 0
usemtl m_18f42bdd-f153-878d-4a63-0072cc6b4875
f 276/820/205 279/819/205 277/818/205 274/817/205
f 275/824/206 276/823/206 274/822/206 273/821/206
f 280/828/207 275/827/207 273/826/207 278/825/207
f 279/832/208 280/831/208 278/830/208 277/829/208
f 278/836/209 273/835/209 274/834/209 277/833/209
f 279/840/210 276/839/210 275/838/210 280/837/210
o legLeft
v -0.046875 0.5625 0.09375
v -0.046875 0.5625 -0.09375
v -0.046875 0 0.09375
v -0.046875 0 -0.09375
v -0.234375 0.5625 -0.09375
v -0.234375 0.5625 0.09375
v -0.234375 0 -0.09375
v -0.234375 0 0.09375
vt 0.0234375 0.0703125
vt 0.046875 0.0703125
vt 0.046875 0
vt 0.0234375 0
vt 0 0.0703125
vt 0.0234375 0.0703125
vt 0.0234375 0
vt 0 0
vt 0.0703125 0.0703125
vt 0.09375 0.0703125
vt 0.09375 0
vt 0.0703125 0
vt 0.046875 0.0703125
vt 0.0703125 0.0703125
vt 0.0703125 0
vt 0.046875 0
vt 0.046875 0.0703125
vt 0.0234375 0.0703125
vt 0.0234375 0.09375
vt 0.046875 0.09375
vt 0.0703125 0.09375
vt 0.046875 0.09375
vt 0.046875 0.0703125
vt 0.0703125 0.0703125
vn 0 0 -1
vn 1 0 0
vn 0 0 1
vn -1 0 0
vn 0 1 0
vn 0 -1 0
usemtl m_18f42bdd-f153-878d-4a63-0072cc6b4875
f 284/844/211 287/843/211 285/842/211 282/841/211
f 283/848/212 284/847/212 282/846/212 281/845/212
f 288/852/213 283/851/213 281/850/213 286/849/213
f 287/856/214 288/855/214 286/854/214 285/853/214
f 286/860/215 281/859/215 282/858/215 285/857/215
f 287/864/216 284/863/216 283/862/216 288/861/216
o legLeft
v -0.012500000000000011 0.625 0.125
v -0.012500000000000011 0.625 -0.125
v -0.012500000000000011 0.375 0.125
v -0.012500000000000011 0.375 -0.125
v -0.2625 0.625 -0.125
v -0.2625 0.625 0.125
v -0.2625 0.375 -0.125
v -0.2625 0.375 0.125
vt 0.28125 0.96875
vt 0.3125 0.96875
vt 0.3125 0.9375
vt 0.28125 0.9375
vt 0.25 0.96875
vt 0.28125 0.96875
vt 0.28125 0.9375
vt 0.25 0.9375
vt 0.34375 0.96875
vt 0.375 0.96875
vt 0.375 0.9375
vt 0.34375 0.9375
vt 0.3125 0.96875
vt 0.34375 0.96875
vt 0.34375 0.9375
vt 0.3125 0.9375
vt 0.3125 0.96875
vt 0.28125 0.96875
vt 0.28125 1
vt 0.3125 1
vt 0.34375 1
vt 0.3125 1
vt 0.3125 0.96875
vt 0.34375 0.96875
vn 0 0 -1
vn 1 0 0
vn 0 0 1
vn -1 0 0
vn 0 1 0
vn 0 -1 0
usemtl m_18f42bdd-f153-878d-4a63-0072cc6b4875
f 292/868/217 295/867/217 293/866/217 290/865/217
f 291/872/218 292/871/218 290/870/218 289/869/218
f 296/876/219 291/875/219 289/874/219 294/873/219
f 295/880/220 296/879/220 294/878/220 293/877/220
f 294/884/221 289/883/221 290/882/221 293/881/221
f 295/888/222 292/887/222 291/886/222 296/885/222
o legLeft
v -0.040624999999999994 0.375 0.109375
v -0.040624999999999994 0.375 -0.109375
v -0.040624999999999994 0.296875 0.109375
v -0.040624999999999994 0.296875 -0.109375
v -0.24375 0.375 -0.109375
v -0.24375 0.375 0.109375
v -0.24375 0.296875 -0.109375
v -0.24375 0.296875 0.109375
vt 0.3984375 0.9609375
vt 0.421875 0.9609375
vt 0.421875 0.953125
vt 0.3984375 0.953125
vt 0.375 0.9609375
vt 0.3984375 0.9609375
vt 0.3984375 0.953125
vt 0.375 0.953125
vt 0.4453125 0.9609375
vt 0.46875 0.9609375
vt 0.46875 0.953125
vt 0.4453125 0.953125
vt 0.421875 0.9609375
vt 0.4453125 0.9609375
vt 0.4453125 0.953125
vt 0.421875 0.953125
vt 0.421875 0.9609375
vt 0.3984375 0.9609375
vt 0.3984375 0.984375
vt 0.421875 0.984375
vt 0.4453125 0.984375
vt 0.421875 0.984375
vt 0.421875 0.9609375
vt 0.4453125 0.9609375
vn 0 0 -1
vn 1 0 0
vn 0 0 1
vn -1 0 0
vn 0 1 0
vn 0 -1 0
usemtl m_18f42bdd-f153-878d-4a63-0072cc6b4875
f 300/892/223 303/891/223 301/890/223 298/889/223
f 299/896/224 300/895/224 298/894/224 297/893/224
f 304/900/225 299/899/225 297/898/225 302/897/225
f 303/904/226 304/903/226 302/902/226 301/901/226
f 302/908/227 297/907/227 298/906/227 301/905/227
f 303/912/228 300/911/228 299/910/228 304/909/228
o legRight
v 0.234375 0.5625 0.09375
v 0.234375 0.5625 -0.09375
v 0.234375 0 0.09375
v 0.234375 0 -0.09375
v 0.046875 0.5625 -0.09375
v 0.046875 0.5625 0.09375
v 0.046875 0 -0.09375
v 0.046875 0 0.09375
vt 0.0234375 0.0703125
vt 0.046875 0.0703125
vt 0.046875 0
vt 0.0234375 0
vt 0 0.0703125
vt 0.0234375 0.0703125
vt 0.0234375 0
vt 0 0
vt 0.0703125 0.0703125
vt 0.09375 0.0703125
vt 0.09375 0
vt 0.0703125 0
vt 0.046875 0.0703125
vt 0.0703125 0.0703125
vt 0.0703125 0
vt 0.046875 0
vt 0.046875 0.0703125
vt 0.0234375 0.0703125
vt 0.0234375 0.09375
vt 0.046875 0.09375
vt 0.0703125 0.09375
vt 0.046875 0.09375
vt 0.046875 0.0703125
vt 0.0703125 0.0703125
vn 0 0 -1
vn 1 0 0
vn 0 0 1
vn -1 0 0
vn 0 1 0
vn 0 -1 0
usemtl m_18f42bdd-f153-878d-4a63-0072cc6b4875
f 308/916/229 311/915/229 309/914/229 306/913/229
f 307/920/230 308/919/230 306/918/230 305/917/230
f 312/924/231 307/923/231 305/922/231 310/921/231
f 311/928/232 312/927/232 310/926/232 309/925/232
f 310/932/233 305/931/233 306/930/233 309/929/233
f 311/936/234 308/935/234 307/934/234 312/933/234
o legRight
v 0.25625 0.625 0.125
v 0.25625 0.625 -0.125
v 0.25625 0.375 0.125
v 0.25625 0.375 -0.125
v 0.006249999999999978 0.625 -0.125
v 0.006249999999999978 0.625 0.125
v 0.006249999999999978 0.375 -0.125
v 0.006249999999999978 0.375 0.125
vt 0.1875 0.7265625
vt 0.21875 0.7265625
vt 0.21875 0.6953125
vt 0.1875 0.6953125
vt 0.15625 0.7265625
vt 0.1875 0.7265625
vt 0.1875 0.6953125
vt 0.15625 0.6953125
vt 0.25 0.7265625
vt 0.28125 0.7265625
vt 0.28125 0.6953125
vt 0.25 0.6953125
vt 0.21875 0.7265625
vt 0.25 0.7265625
vt 0.25 0.6953125
vt 0.21875 0.6953125
vt 0.21875 0.7265625
vt 0.1875 0.7265625
vt 0.1875 0.7578125
vt 0.21875 0.7578125
vt 0.25 0.7578125
vt 0.21875 0.7578125
vt 0.21875 0.7265625
vt 0.25 0.7265625
vn 0 0 -1
vn 1 0 0
vn 0 0 1
vn -1 0 0
vn 0 1 0
vn 0 -1 0
usemtl m_18f42bdd-f153-878d-4a63-0072cc6b4875
f 316/940/235 319/939/235 317/938/235 314/937/235
f 315/944/236 316/943/236 314/942/236 313/941/236
f 320/948/237 315/947/237 313/946/237 318/945/237
f 319/952/238 320/951/238 318/950/238 317/949/238
f 318/956/239 313/955/239 314/954/239 317/953/239
f 319/960/240 316/959/240 315/958/240 320/957/240
o legRight
v 0.240625 0.375 0.109375
v 0.240625 0.375 -0.109375
v 0.240625 0.296875 0.109375
v 0.240625 0.296875 -0.109375
v 0.037500000000000006 0.375 -0.109375
v 0.037500000000000006 0.375 0.109375
v 0.037500000000000006 0.296875 -0.109375
v 0.037500000000000006 0.296875 0.109375
vt 0.3984375 0.9609375
vt 0.421875 0.9609375
vt 0.421875 0.953125
vt 0.3984375 0.953125
vt 0.375 0.9609375
vt 0.3984375 0.9609375
vt 0.3984375 0.953125
vt 0.375 0.953125
vt 0.4453125 0.9609375
vt 0.46875 0.9609375
vt 0.46875 0.953125
vt 0.4453125 0.953125
vt 0.421875 0.9609375
vt 0.4453125 0.9609375
vt 0.4453125 0.953125
vt 0.421875 0.953125
vt 0.421875 0.9609375
vt 0.3984375 0.9609375
vt 0.3984375 0.984375
vt 0.421875 0.984375
vt 0.4453125 0.984375
vt 0.421875 0.984375
vt 0.421875 0.9609375
vt 0.4453125 0.9609375
vn 0 0 -1
vn 1 0 0
vn 0 0 1
vn -1 0 0
vn 0 1 0
vn 0 -1 0
usemtl m_18f42bdd-f153-878d-4a63-0072cc6b4875
f 324/964/241 327/963/241 325/962/241 322/961/241
f 323/968/242 324/967/242 322/966/242 321/965/242
f 328/972/243 323/971/243 321/970/243 326/969/243
f 327/976/244 328/975/244 326/974/244 325/973/244
f 326/980/245 321/979/245 322/978/245 325/977/245
f 327/984/246 324/983/246 323/982/246 328/981/246