# Made in Blockbench 5.1.6
mtllib hakurei_reimu.mtl

o head
v 0.25 1.625 0.25
v 0.25 1.625 -0.25
v 0.25 1.125 0.25
v 0.25 1.125 -0.25
v -0.25 1.625 -0.25
v -0.25 1.625 0.25
v -0.25 1.125 -0.25
v -0.25 1.125 0.25
vt 0.0625 0.84375
vt 0.125 0.84375
vt 0.125 0.78125
vt 0.0625 0.78125
vt 0 0.84375
vt 0.0625 0.84375
vt 0.0625 0.78125
vt 0 0.78125
vt 0.1875 0.84375
vt 0.25 0.84375
vt 0.25 0.78125
vt 0.1875 0.78125
vt 0.125 0.84375
vt 0.1875 0.84375
vt 0.1875 0.78125
vt 0.125 0.78125
vt 0.125 0.84375
vt 0.0625 0.84375
vt 0.0625 0.90625
vt 0.125 0.90625
vt 0.1875 0.90625
vt 0.125 0.90625
vt 0.125 0.84375
vt 0.1875 0.84375
vn 0 0 -1
vn 1 0 0
vn 0 0 1
vn -1 0 0
vn 0 1 0
vn 0 -1 0
usemtl m_625d9a87-cca0-e8fb-1ae5-95995f1e5da6
f 4/4/1 7/3/1 5/2/1 2/1/1
f 3/8/2 4/7/2 2/6/2 1/5/2
f 8/12/3 3/11/3 1/10/3 6/9/3
f 7/16/4 8/15/4 6/14/4 5/13/4
f 6/20/5 1/19/5 2/18/5 5/17/5
f 7/24/6 4/23/6 3/22/6 8/21/6
o blink
v 0.25 1.625 -0.2500625
v 0.25 1.625 -0.2500625
v 0.25 1.125 -0.2500625
v 0.25 1.125 -0.2500625
v -0.25 1.625 -0.2500625
v -0.25 1.625 -0.2500625
v -0.25 1.125 -0.2500625
v -0.25 1.125 -0.2500625
vt 0.3515625 0.921875
vt 0.4140625 0.921875
vt 0.4140625 0.859375
vt 0.3515625 0.859375
vt 0.3515625 0.921875
vt 0.3515625 0.921875
vt 0.3515625 0.859375
vt 0.3515625 0.859375
vt 0.4140625 0.921875
vt 0.4765625 0.921875
vt 0.4765625 0.859375
vt 0.4140625 0.859375
vt 0.4140625 0.921875
vt 0.4140625 0.921875
vt 0.4140625 0.859375
vt 0.4140625 0.859375
vt 0.4140625 0.921875
vt 0.3515625 0.921875
vt 0.3515625 0.921875
vt 0.4140625 0.921875
vt 0.4765625 0.921875
vt 0.4140625 0.921875
vt 0.4140625 0.921875
vt 0.4765625 0.921875
vn 0 0 -1
vn 1 0 0
vn 0 0 1
vn -1 0 0
vn 0 1 0
vn 0 -1 0
usemtl m_625d9a87-cca0-e8fb-1ae5-95995f1e5da6
f 12/28/7 15/27/7 13/26/7 10/25/7
f 11/32/8 12/31/8 10/30/8 9/29/8
f 16/36/9 11/35/9 9/34/9 14/33/9
f 15/40/10 16/39/10 14/38/10 13/37/10
f 14/44/11 9/43/11 10/42/11 13/41/11
f 15/48/12 12/47/12 11/46/12 16/45/12
o bone7
v -0.1875 1.125 0.25
v -0.1875 1.1141469888958169 0.188449515436737
v -0.1875 0.50949515436737 0.3585301110418314
v -0.1875 0.4986421432631869 0.29697962647856846
v -0.25 1.1141469888958169 0.188449515436737
v -0.25 1.125 0.25
v -0.25 0.4986421432631869 0.29697962647856846
v -0.25 0.50949515436737 0.3585301110418314
vt 0.2578125 0.5546875
vt 0.265625 0.5546875
vt 0.265625 0.4765625
vt 0.2578125 0.4765625
vt 0.25 0.5546875
vt 0.2578125 0.5546875
vt 0.2578125 0.4765625
vt 0.25 0.4765625
vt 0.2734375 0.5546875
vt 0.28125 0.5546875
vt 0.28125 0.4765625
vt 0.2734375 0.4765625
vt 0.265625 0.5546875
vt 0.2734375 0.5546875
vt 0.2734375 0.4765625
vt 0.265625 0.4765625
vt 0.265625 0.5546875
vt 0.2578125 0.5546875
vt 0.2578125 0.5625
vt 0.265625 0.5625
vt 0.2734375 0.5625
vt 0.265625 0.5625
vt 0.265625 0.5546875
vt 0.2734375 0.5546875
vn 0 -0.17364817766693033 -0.984807753012208
vn 1 0 0
vn 0 0.17364817766693033 0.984807753012208
vn -1 0 0
vn 0 0.984807753012208 -0.17364817766693033
vn 0 -0.984807753012208 0.17364817766693033
usemtl m_625d9a87-cca0-e8fb-1ae5-95995f1e5da6
f 20/52/13 23/51/13 21/50/13 18/49/13
f 19/56/14 20/55/14 18/54/14 17/53/14
f 24/60/15 19/59/15 17/58/15 22/57/15
f 23/64/16 24/63/16 22/62/16 21/61/16
f 22/68/17 17/67/17 18/66/17 21/65/17
f 23/72/18 20/71/18 19/70/18 24/69/18
o bone8
v -0.125 1.125 0.25
v -0.125 1.1088238096810925 0.18962963585693327
v -0.125 0.5212963585693322 0.41176190318907546
v -0.125 0.5051201682504247 0.3513915390460087
v -0.1875 1.1088238096810925 0.18962963585693327
v -0.1875 1.125 0.25
v -0.1875 0.5051201682504247 0.3513915390460087
v -0.1875 0.5212963585693322 0.41176190318907546
vt 0.2578125 0.5546875
vt 0.265625 0.5546875
vt 0.265625 0.4765625
vt 0.2578125 0.4765625
vt 0.25 0.5546875
vt 0.2578125 0.5546875
vt 0.2578125 0.4765625
vt 0.25 0.4765625
vt 0.2734375 0.5546875
vt 0.28125 0.5546875
vt 0.28125 0.4765625
vt 0.2734375 0.4765625
vt 0.265625 0.5546875
vt 0.2734375 0.5546875
vt 0.2734375 0.4765625
vt 0.265625 0.4765625
vt 0.265625 0.5546875
vt 0.2578125 0.5546875
vt 0.2578125 0.5625
vt 0.265625 0.5625
vt 0.2734375 0.5625
vt 0.265625 0.5625
vt 0.265625 0.5546875
vt 0.2734375 0.5546875
vn 0 -0.25881904510252074 -0.9659258262890683
vn 1 0 0
vn 0 0.25881904510252074 0.9659258262890683
vn -1 0 0
vn 0 0.9659258262890683 -0.25881904510252074
vn 0 -0.9659258262890683 0.25881904510252074
usemtl m_625d9a87-cca0-e8fb-1ae5-95995f1e5da6
f 28/76/19 31/75/19 29/74/19 26/73/19
f 27/80/20 28/79/20 26/78/20 25/77/20
f 32/84/21 27/83/21 25/82/21 30/81/21
f 31/88/22 32/87/22 30/86/22 29/85/22
f 30/92/23 25/91/23 26/90/23 29/89/23
f 31/96/24 28/95/24 27/94/24 32/93/24
o bone8
v 0 1.125 0.25
v 0 1.1088238096810925 0.18962963585693327
v 0 0.5212963585693322 0.41176190318907546
v 0 0.5051201682504247 0.3513915390460087
v -0.0625 1.1088238096810925 0.18962963585693327
v -0.0625 1.125 0.25
v -0.0625 0.5051201682504247 0.3513915390460087
v -0.0625 0.5212963585693322 0.41176190318907546
vt 0.2578125 0.5546875
vt 0.265625 0.5546875
vt 0.265625 0.4765625
vt 0.2578125 0.4765625
vt 0.25 0.5546875
vt 0.2578125 0.5546875
vt 0.2578125 0.4765625
vt 0.25 0.4765625
vt 0.2734375 0.5546875
vt 0.28125 0.5546875
vt 0.28125 0.4765625
vt 0.2734375 0.4765625
vt 0.265625 0.5546875
vt 0.2734375 0.5546875
vt 0.2734375 0.4765625
vt 0.265625 0.4765625
vt 0.265625 0.5546875
vt 0.2578125 0.5546875
vt 0.2578125 0.5625
vt 0.265625 0.5625
vt 0.2734375 0.5625
vt 0.265625 0.5625
vt 0.265625 0.5546875
vt 0.2734375 0.5546875
vn 0 -0.25881904510252074 -0.9659258262890683
vn 1 0 0
vn 0 0.25881904510252074 0.9659258262890683
vn -1 0 0
vn 0 0.9659258262890683 -0.25881904510252074
vn 0 -0.9659258262890683 0.25881904510252074
usemtl m_625d9a87-cca0-e8fb-1ae5-95995f1e5da6
f 36/100/25 39/99/25 37/98/25 34/97/25
f 35/104/26 36/103/26 34/102/26 33/101/26
f 40/108/27 35/107/27 33/106/27 38/105/27
f 39/112/28 40/111/28 38/110/28 37/109/28
f 38/116/29 33/115/29 34/114/29 37/113/29
f 39/120/30 36/119/30 35/118/30 40/117/30
o bone8
v 0.25 1.125 0.25
v 0.25 1.1088238096810925 0.18962963585693327
v 0.25 0.5212963585693322 0.41176190318907546
v 0.25 0.5051201682504247 0.3513915390460087
v 0.1875 1.1088238096810925 0.18962963585693327
v 0.1875 1.125 0.25
v 0.1875 0.5051201682504247 0.3513915390460087
v 0.1875 0.5212963585693322 0.41176190318907546
vt 0.2578125 0.5546875
vt 0.265625 0.5546875
vt 0.265625 0.4765625
vt 0.2578125 0.4765625
vt 0.25 0.5546875
vt 0.2578125 0.5546875
vt 0.2578125 0.4765625
vt 0.25 0.4765625
vt 0.2734375 0.5546875
vt 0.28125 0.5546875
vt 0.28125 0.4765625
vt 0.2734375 0.4765625
vt 0.265625 0.5546875
vt 0.2734375 0.5546875
vt 0.2734375 0.4765625
vt 0.265625 0.4765625
vt 0.265625 0.5546875
vt 0.2578125 0.5546875
vt 0.2578125 0.5625
vt 0.265625 0.5625
vt 0.2734375 0.5625
vt 0.265625 0.5625
vt 0.265625 0.5546875
vt 0.2734375 0.5546875
vn 0 -0.25881904510252074 -0.9659258262890683
vn 1 0 0
vn 0 0.25881904510252074 0.9659258262890683
vn -1 0 0
vn 0 0.9659258262890683 -0.25881904510252074
vn 0 -0.9659258262890683 0.25881904510252074
usemtl m_625d9a87-cca0-e8fb-1ae5-95995f1e5da6
f 44/124/31 47/123/31 45/122/31 42/121/31
f 43/128/32 44/127/32 42/126/32 41/125/32
f 48/132/33 43/131/33 41/130/33 46/129/33
f 47/136/34 48/135/34 46/134/34 45/133/34
f 46/140/35 41/139/35 42/138/35 45/137/35
f 47/144/36 44/143/36 43/142/36 48/141/36
o bone9
v -0.0625 1.125 0.25
v -0.0625 1.1036237410421457 0.19126921120088072
v -0.0625 0.5376921120088072 0.4637625895785429
v -0.0625 0.516315853050953 0.4050318007794236
v -0.125 1.1036237410421457 0.19126921120088072
v -0.125 1.125 0.25
v -0.125 0.516315853050953 0.4050318007794236
v -0.125 0.5376921120088072 0.4637625895785429
vt 0.2578125 0.5546875
vt 0.265625 0.5546875
vt 0.265625 0.4765625
vt 0.2578125 0.4765625
vt 0.25 0.5546875
vt 0.2578125 0.5546875
vt 0.2578125 0.4765625
vt 0.25 0.4765625
vt 0.2734375 0.5546875
vt 0.28125 0.5546875
vt 0.28125 0.4765625
vt 0.2734375 0.4765625
vt 0.265625 0.5546875
vt 0.2734375 0.5546875
vt 0.2734375 0.4765625
vt 0.265625 0.4765625
vt 0.265625 0.5546875
vt 0.2578125 0.5546875
vt 0.2578125 0.5625
vt 0.265625 0.5625
vt 0.2734375 0.5625
vt 0.265625 0.5625
vt 0.265625 0.5546875
vt 0.2734375 0.5546875
vn 0 -0.34202014332566866 -0.9396926207859084
vn 1 0 0
vn 0 0.34202014332566866 0.9396926207859084
vn -1 0 0
vn 0 0.9396926207859084 -0.34202014332566866
vn 0 -0.9396926207859084 0.34202014332566866
usemtl m_625d9a87-cca0-e8fb-1ae5-95995f1e5da6
f 52/148/37 55/147/37 53/146/37 50/145/37
f 51/152/38 52/151/38 50/150/38 49/149/38
f 56/156/39 51/155/39 49/154/39 54/153/39
f 55/160/40 56/159/40 54/158/40 53/157/40
f 54/164/41 49/163/41 50/162/41 53/161/41
f 55/168/42 52/167/42 51/166/42 56/165/42
o bone9
v 0.0625 1.125 0.25
v 0.0625 1.1036237410421457 0.19126921120088072
v 0.0625 0.5376921120088072 0.4637625895785429
v 0.0625 0.516315853050953 0.4050318007794236
v 0 1.1036237410421457 0.19126921120088072
v 0 1.125 0.25
v 0 0.516315853050953 0.4050318007794236
v 0 0.5376921120088072 0.4637625895785429
vt 0.2578125 0.5546875
vt 0.265625 0.5546875
vt 0.265625 0.4765625
vt 0.2578125 0.4765625
vt 0.25 0.5546875
vt 0.2578125 0.5546875
vt 0.2578125 0.4765625
vt 0.25 0.4765625
vt 0.2734375 0.5546875
vt 0.28125 0.5546875
vt 0.28125 0.4765625
vt 0.2734375 0.4765625
vt 0.265625 0.5546875
vt 0.2734375 0.5546875
vt 0.2734375 0.4765625
vt 0.265625 0.4765625
vt 0.265625 0.5546875
vt 0.2578125 0.5546875
vt 0.2578125 0.5625
vt 0.265625 0.5625
vt 0.2734375 0.5625
vt 0.265625 0.5625
vt 0.265625 0.5546875
vt 0.2734375 0.5546875
vn 0 -0.34202014332566866 -0.9396926207859084
vn 1 0 0
vn 0 0.34202014332566866 0.9396926207859084
vn -1 0 0
vn 0 0.9396926207859084 -0.34202014332566866
vn 0 -0.9396926207859084 0.34202014332566866
usemtl m_625d9a87-cca0-e8fb-1ae5-95995f1e5da6
f 60/172/43 63/171/43 61/170/43 58/169/43
f 59/176/44 60/175/44 58/174/44 57/173/44
f 64/180/45 59/179/45 57/178/45 62/177/45
f 63/184/46 64/183/46 62/182/46 61/181/46
f 62/188/47 57/187/47 58/186/47 61/185/47
f 63/192/48 60/191/48 59/190/48 64/189/48
o bone9
v 0.1875 1.125 0.25
v 0.1875 1.1036237410421457 0.19126921120088072
v 0.1875 0.5376921120088072 0.4637625895785429
v 0.1875 0.516315853050953 0.4050318007794236
v 0.125 1.1036237410421457 0.19126921120088072
v 0.125 1.125 0.25
v 0.125 0.516315853050953 0.4050318007794236
v 0.125 0.5376921120088072 0.4637625895785429
vt 0.2578125 0.5546875
vt 0.265625 0.5546875
vt 0.265625 0.4765625
vt 0.2578125 0.4765625
vt 0.25 0.5546875
vt 0.2578125 0.5546875
vt 0.2578125 0.4765625
vt 0.25 0.4765625
vt 0.2734375 0.5546875
vt 0.28125 0.5546875
vt 0.28125 0.4765625
vt 0.2734375 0.4765625
vt 0.265625 0.5546875
vt 0.2734375 0.5546875
vt 0.2734375 0.4765625
vt 0.265625 0.4765625
vt 0.265625 0.5546875
vt 0.2578125 0.5546875
vt 0.2578125 0.5625
vt 0.265625 0.5625
vt 0.2734375 0.5625
vt 0.265625 0.5625
vt 0.265625 0.5546875
vt 0.2734375 0.5546875
vn 0 -0.34202014332566866 -0.9396926207859084
vn 1 0 0
vn 0 0.34202014332566866 0.9396926207859084
vn -1 0 0
vn 0 0.9396926207859084 -0.34202014332566866
vn 0 -0.9396926207859084 0.34202014332566866
usemtl m_625d9a87-cca0-e8fb-1ae5-95995f1e5da6
f 68/196/49 71/195/49 69/194/49 66/193/49
f 67/200/50 68/199/50 66/198/50 65/197/50
f 72/204/51 67/203/51 65/202/51 70/201/51
f 71/208/52 72/207/52 70/206/52 69/205/52
f 70/212/53 65/211/53 66/210/53 69/209/53
f 71/216/54 68/215/54 67/214/54 72/213/54
o bone12
v 0.125 1.125 0.25
v 0.125 1.0985863586412064 0.19335576331020943
v 0.125 0.5585576331020938 0.5141364135879372
v 0.125 0.5321439917433001 0.45749217689814653
v 0.0625 1.0985863586412064 0.19335576331020943
v 0.0625 1.125 0.25
v 0.0625 0.5321439917433001 0.45749217689814653
v 0.0625 0.5585576331020938 0.5141364135879372
vt 0.2578125 0.5546875
vt 0.265625 0.5546875
vt 0.265625 0.4765625
vt 0.2578125 0.4765625
vt 0.25 0.5546875
vt 0.2578125 0.5546875
vt 0.2578125 0.4765625
vt 0.25 0.4765625
vt 0.2734375 0.5546875
vt 0.28125 0.5546875
vt 0.28125 0.4765625
vt 0.2734375 0.4765625
vt 0.265625 0.5546875
vt 0.2734375 0.5546875
vt 0.2734375 0.4765625
vt 0.265625 0.4765625
vt 0.265625 0.5546875
vt 0.2578125 0.5546875
vt 0.2578125 0.5625
vt 0.265625 0.5625
vt 0.2734375 0.5625
vt 0.265625 0.5625
vt 0.265625 0.5546875
vt 0.2734375 0.5546875
vn 0 -0.42261826174069944 -0.9063077870366499
vn 1 0 0
vn 0 0.42261826174069944 0.9063077870366499
vn -1 0 0
vn 0 0.9063077870366499 -0.42261826174069944
vn 0 -0.9063077870366499 0.42261826174069944
usemtl m_625d9a87-cca0-e8fb-1ae5-95995f1e5da6
f 76/220/55 79/219/55 77/218/55 74/217/55
f 75/224/56 76/223/56 74/222/56 73/221/56
f 80/228/57 75/227/57 73/226/57 78/225/57
f 79/232/58 80/231/58 78/230/58 77/229/58
f 78/236/59 73/235/59 74/234/59 77/233/59
f 79/240/60 76/239/60 75/238/60 80/237/60
o hairLeft
v -0.1874998694162084 1.1249999318345478 -0.187499773680656
v -0.185615263815768 1.135688061313475 -0.249050258243919
v -0.2409405168108441 0.8219229598367497 -0.24176482920157172
v -0.23905591121040373 0.8326110893156768 -0.30331531376483467
v -0.247165748379031 1.1465410724176581 -0.249050258243919
v -0.24905035397947134 1.135852942938731 -0.187499773680656
v -0.3006063957736667 0.8434641004198601 -0.30331531376483467
v -0.30249100137410706 0.8327759709409329 -0.24176482920157172
vt 0.0078125 0.8828125
vt 0.015625 0.8828125
vt 0.015625 0.84375
vt 0.0078125 0.84375
vt 0 0.8828125
vt 0.0078125 0.8828125
vt 0.0078125 0.84375
vt 0 0.84375
vt 0.0234375 0.8828125
vt 0.03125 0.8828125
vt 0.03125 0.84375
vt 0.0234375 0.84375
vt 0.015625 0.8828125
vt 0.0234375 0.8828125
vt 0.0234375 0.84375
vt 0.015625 0.84375
vt 0.015625 0.8828125
vt 0.0078125 0.8828125
vt 0.0078125 0.890625
vt 0.015625 0.890625
vt 0.0234375 0.890625
vt 0.015625 0.890625
vt 0.015625 0.8828125
vt 0.0234375 0.8828125
vn 0.030153689607045803 0.17101007166283433 -0.984807753012208
vn 0.984807753012208 -0.17364817766693033 0
vn -0.030153689607045803 -0.17101007166283433 0.984807753012208
vn -0.984807753012208 0.17364817766693033 0
vn 0.17101007166283436 0.9698463103929543 0.17364817766693036
vn -0.17101007166283436 -0.9698463103929543 -0.17364817766693036
usemtl m_625d9a87-cca0-e8fb-1ae5-95995f1e5da6
f 84/244/61 87/243/61 85/242/61 82/241/61
f 83/248/62 84/247/62 82/246/62 81/245/62
f 88/252/63 83/251/63 81/250/63 86/249/63
f 87/256/64 88/255/64 86/254/64 85/253/64
f 86/260/65 81/259/65 82/258/65 85/257/65
f 87/264/66 84/263/66 83/262/66 88/261/66
o hairRight
v 0.24905035397947134 1.135852942938731 -0.187499773680656
v 0.24716574837903096 1.1465410724176581 -0.249050258243919
v 0.30249100137410706 0.8327759709409328 -0.24176482920157172
v 0.30060639577366666 0.84346410041986 -0.30331531376483467
v 0.18561526381576796 1.135688061313475 -0.249050258243919
v 0.18749986941620833 1.1249999318345478 -0.187499773680656
v 0.23905591121040368 0.8326110893156768 -0.30331531376483467
v 0.24094051681084405 0.8219229598367497 -0.24176482920157172
vt 0.0078125 0.8828125
vt 0.015625 0.8828125
vt 0.015625 0.84375
vt 0.0078125 0.84375
vt 0 0.8828125
vt 0.0078125 0.8828125
vt 0.0078125 0.84375
vt 0 0.84375
vt 0.0234375 0.8828125
vt 0.03125 0.8828125
vt 0.03125 0.84375
vt 0.0234375 0.84375
vt 0.015625 0.8828125
vt 0.0234375 0.8828125
vt 0.0234375 0.84375
vt 0.015625 0.84375
vt 0.015625 0.8828125
vt 0.0078125 0.8828125
vt 0.0078125 0.890625
vt 0.015625 0.890625
vt 0.0234375 0.890625
vt 0.015625 0.890625
vt 0.015625 0.8828125
vt 0.0234375 0.8828125
vn -0.030153689607045803 0.17101007166283433 -0.984807753012208
vn 0.984807753012208 0.17364817766693033 0
vn 0.030153689607045803 -0.17101007166283433 0.984807753012208
vn -0.984807753012208 -0.17364817766693033 0
vn -0.17101007166283436 0.9698463103929543 0.17364817766693036
vn 0.17101007166283436 -0.9698463103929543 -0.17364817766693036
usemtl m_625d9a87-cca0-e8fb-1ae5-95995f1e5da6
f 92/268/67 95/267/67 93/266/67 90/265/67
f 91/272/68 92/271/68 90/270/68 89/269/68
f 96/276/69 91/275/69 89/274/69 94/273/69
f 95/280/70 96/279/70 94/278/70 93/277/70
f 94/284/71 89/283/71 90/282/71 93/281/71
f 95/288/72 92/287/72 91/286/72 96/285/72
o headdressLeftTop
v 0.49244354362556375 1.8082149284945204 0.39884933111509663
v 0.5029267473440963 1.8110238944649921 0.3372988465518337
v 0.5733244952201014 1.5063631077791864 0.39884933111509663
v 0.583807698938634 1.5091720737496581 0.3372988465518337
v 0.027301126061997416 1.6835803933429028 0.2504747577183685
v 0.016817922343464853 1.680771427372431 0.3120252422816315
v 0.10818207765653509 1.3817285726275688 0.2504747577183685
v 0.09769887393800253 1.378919606657097 0.3120252422816315
vt 0.265625 0.6015625
vt 0.328125 0.6015625
vt 0.328125 0.5625
vt 0.265625 0.5625
vt 0.2578125 0.6015625
vt 0.265625 0.6015625
vt 0.265625 0.5625
vt 0.2578125 0.5625
vt 0.3359375 0.6015625
vt 0.3984375 0.6015625
vt 0.3984375 0.5625
vt 0.3359375 0.5625
vt 0.328125 0.6015625
vt 0.3359375 0.6015625
vt 0.3359375 0.5625
vt 0.328125 0.5625
vt 0.328125 0.6015625
vt 0.265625 0.6015625
vt 0.265625 0.609375
vt 0.328125 0.609375
vt 0.390625 0.609375
vt 0.328125 0.609375
vt 0.328125 0.6015625
vt 0.390625 0.6015625
vn 0.16773125949652062 0.04494345552754777 -0.9848077530122081
vn 0.9512512425641979 0.25488700224417876 0.17364817766693036
vn -0.16773125949652062 -0.04494345552754777 0.9848077530122081
vn -0.9512512425641979 -0.25488700224417876 -0.17364817766693036
vn -0.2588190451025207 0.9659258262890683 6.938893903907228e-18
vn 0.2588190451025207 -0.9659258262890683 -6.938893903907228e-18
usemtl m_625d9a87-cca0-e8fb-1ae5-95995f1e5da6
f 100/292/73 103/291/73 101/290/73 98/289/73
f 99/296/74 100/295/74 98/294/74 97/293/74
f 104/300/75 99/299/75 97/298/75 102/297/75
f 103/304/76 104/303/76 102/302/76 101/301/76
f 102/308/77 97/307/77 98/306/77 101/305/77
f 103/312/78 100/311/78 99/310/78 104/309/78
o headdressRightTop
v -0.016817922343464853 1.680771427372431 0.3120252422816315
v -0.027301126061997416 1.6835803933429028 0.2504747577183685
v -0.09769887393800253 1.378919606657097 0.3120252422816315
v -0.10818207765653509 1.3817285726275688 0.2504747577183685
v -0.5029267473440963 1.8110238944649921 0.3372988465518337
v -0.49244354362556375 1.8082149284945204 0.39884933111509663
v -0.583807698938634 1.5091720737496581 0.3372988465518337
v -0.5733244952201014 1.5063631077791864 0.39884933111509663
vt 0.0078125 0.6328125
vt 0.0703125 0.6328125
vt 0.0703125 0.59375
vt 0.0078125 0.59375
vt 0 0.6328125
vt 0.0078125 0.6328125
vt 0.0078125 0.59375
vt 0 0.59375
vt 0.078125 0.6328125
vt 0.140625 0.6328125
vt 0.140625 0.59375
vt 0.078125 0.59375
vt 0.0703125 0.6328125
vt 0.078125 0.6328125
vt 0.078125 0.59375
vt 0.0703125 0.59375
vt 0.0703125 0.6328125
vt 0.0078125 0.6328125
vt 0.0078125 0.640625
vt 0.0703125 0.640625
vt 0.1328125 0.640625
vt 0.0703125 0.640625
vt 0.0703125 0.6328125
vt 0.1328125 0.6328125
vn -0.16773125949652062 0.04494345552754777 -0.9848077530122081
vn 0.9512512425641979 -0.25488700224417876 -0.17364817766693036
vn 0.16773125949652062 -0.04494345552754777 0.9848077530122081
vn -0.9512512425641979 0.25488700224417876 0.17364817766693036
vn 0.2588190451025207 0.9659258262890683 6.938893903907228e-18
vn -0.2588190451025207 -0.9659258262890683 -6.938893903907228e-18
usemtl m_625d9a87-cca0-e8fb-1ae5-95995f1e5da6
f 108/316/79 111/315/79 109/314/79 106/313/79
f 107/320/80 108/319/80 106/318/80 105/317/80
f 112/324/81 107/323/81 105/322/81 110/321/81
f 111/328/82 112/327/82 110/326/82 109/325/82
f 110/332/83 105/331/83 106/330/83 109/329/83
f 111/336/84 108/335/84 107/334/84 112/333/84
o headdressLeftBottom
v -0.18774091859649267 1.5587744555014416 0.3178283182370957
v -0.19086532361728836 1.5543123426987373 0.2555661496063616
v 0.017047092475755532 1.4153803464136798 0.3178283182370957
v 0.013922687454959837 1.4109182336109756 0.2555661496063616
v -0.6194106772497407 0.9422861501099562 0.3209329566671052
v -0.616286272228945 0.9467482629126605 0.3831951252978393
v -0.41462266617749255 0.7988920410221945 0.3209329566671052
v -0.41149826115669685 0.8033541538248989 0.3831951252978393
vt 0.3125 0.6875
vt 0.40625 0.6875
vt 0.40625 0.65625
vt 0.3125 0.65625
vt 0.3046875 0.6875
vt 0.3125 0.6875
vt 0.3125 0.65625
vt 0.3046875 0.65625
vt 0.4140625 0.6875
vt 0.5078125 0.6875
vt 0.5078125 0.65625
vt 0.4140625 0.65625
vt 0.40625 0.6875
vt 0.4140625 0.6875
vt 0.4140625 0.65625
vt 0.40625 0.65625
vt 0.40625 0.6875
vt 0.3125 0.6875
vt 0.3125 0.6953125
vt 0.40625 0.6953125
vt 0.5 0.6953125
vt 0.40625 0.6953125
vt 0.40625 0.6875
vt 0.5 0.6875
vn -0.04999048033273031 -0.07139380484326965 -0.9961946980917455
vn 0.5713938048432698 0.8160349234517082 -0.08715574274765817
vn 0.04999048033273031 0.07139380484326965 0.9961946980917455
vn -0.5713938048432698 -0.8160349234517082 0.08715574274765817
vn -0.8191520442889917 0.5735764363510463 -1.3877787807814457e-17
vn 0.8191520442889917 -0.5735764363510463 1.3877787807814457e-17
usemtl m_625d9a87-cca0-e8fb-1ae5-95995f1e5da6
f 116/340/85 119/339/85 117/338/85 114/337/85
f 115/344/86 116/343/86 114/342/86 113/341/86
f 120/348/87 115/347/87 113/346/87 118/345/87
f 119/352/88 120/351/88 118/350/88 117/349/88
f 118/356/89 113/355/89 114/354/89 117/353/89
f 119/360/90 116/359/90 115/358/90 120/357/90
o headdressRightBottom
v 0.616286272228945 0.9467482629126605 0.3831951252978393
v 0.6194106772497407 0.9422861501099562 0.3209329566671052
v 0.41149826115669685 0.8033541538248989 0.3831951252978393
v 0.41462266617749255 0.7988920410221945 0.3209329566671052
v 0.19086532361728836 1.5543123426987373 0.2555661496063616
v 0.18774091859649267 1.5587744555014416 0.3178283182370957
v -0.013922687454959837 1.4109182336109756 0.2555661496063616
v -0.017047092475755532 1.4153803464136798 0.3178283182370957
vt 0.2734375 0.7265625
vt 0.3671875 0.7265625
vt 0.3671875 0.6953125
vt 0.2734375 0.6953125
vt 0.265625 0.7265625
vt 0.2734375 0.7265625
vt 0.2734375 0.6953125
vt 0.265625 0.6953125
vt 0.375 0.7265625
vt 0.46875 0.7265625
vt 0.46875 0.6953125
vt 0.375 0.6953125
vt 0.3671875 0.7265625
vt 0.375 0.7265625
vt 0.375 0.6953125
vt 0.3671875 0.6953125
vt 0.3671875 0.7265625
vt 0.2734375 0.7265625
vt 0.2734375 0.734375
vt 0.3671875 0.734375
vt 0.4609375 0.734375
vt 0.3671875 0.734375
vt 0.3671875 0.7265625
vt 0.4609375 0.7265625
vn 0.04999048033273031 -0.07139380484326965 -0.9961946980917455
vn 0.5713938048432698 -0.8160349234517082 0.08715574274765817
vn -0.04999048033273031 0.07139380484326965 0.9961946980917455
vn -0.5713938048432698 0.8160349234517082 -0.08715574274765817
vn 0.8191520442889917 0.5735764363510463 -1.3877787807814457e-17
vn -0.8191520442889917 -0.5735764363510463 1.3877787807814457e-17
usemtl m_625d9a87-cca0-e8fb-1ae5-95995f1e5da6
f 124/364/91 127/363/91 125/362/91 122/361/91
f 123/368/92 124/367/92 122/366/92 121/365/92
f 128/372/93 123/371/93 121/370/93 126/369/93
f 127/376/94 128/375/94 126/374/94 125/373/94
f 126/380/95 121/379/95 122/378/95 125/377/95
f 127/384/96 124/383/96 123/382/96 128/381/96
o headdressMiddle
v 0.125 1.71875 0.375
v 0.125 1.71875 0.1875
v 0.125 1.40625 0.375
v 0.125 1.40625 0.1875
v -0.125 1.71875 0.1875
v -0.125 1.71875 0.375
v -0.125 1.40625 0.1875
v -0.125 1.40625 0.375
vt 0.4140625 0.8359375
vt 0.4453125 0.8359375
vt 0.4453125 0.796875
vt 0.4140625 0.796875
vt 0.390625 0.8359375
vt 0.4140625 0.8359375
vt 0.4140625 0.796875
vt 0.390625 0.796875
vt 0.46875 0.8359375
vt 0.5 0.8359375
vt 0.5 0.796875
vt 0.46875 0.796875
vt 0.4453125 0.8359375
vt 0.46875 0.8359375
vt 0.46875 0.796875
vt 0.4453125 0.796875
vt 0.4453125 0.8359375
vt 0.4140625 0.8359375
vt 0.4140625 0.859375
vt 0.4453125 0.859375
vt 0.4765625 0.859375
vt 0.4453125 0.859375
vt 0.4453125 0.8359375
vt 0.4765625 0.8359375
vn 0 0 -1
vn 1 0 0
vn 0 0 1
vn -1 0 0
vn 0 1 0
vn 0 -1 0
usemtl m_625d9a87-cca0-e8fb-1ae5-95995f1e5da6
f 132/388/97 135/387/97 133/386/97 130/385/97
f 131/392/98 132/391/98 130/390/98 129/389/98
f 136/396/99 131/395/99 129/394/99 134/393/99
f 135/400/100 136/399/100 134/398/100 133/397/100
f 134/404/101 129/403/101 130/402/101 133/401/101
f 135/408/102 132/407/102 131/406/102 136/405/102
o hairBack
v 0.0625 1.5 0.37499999999999994
v 0.0625 1.4572474820842913 0.2575384224017614
v 0.0625 1.0301536896070458 0.5460100716628342
v 0.0625 0.9874011716913371 0.4285484940645957
v -0.0625 1.4572474820842913 0.2575384224017614
v -0.0625 1.5 0.37499999999999994
v -0.0625 0.9874011716913371 0.4285484940645957
v -0.0625 1.0301536896070458 0.5460100716628342
vt 0.4140625 0.5859375
vt 0.4296875 0.5859375
vt 0.4296875 0.5234375
vt 0.4140625 0.5234375
vt 0.3984375 0.5859375
vt 0.4140625 0.5859375
vt 0.4140625 0.5234375
vt 0.3984375 0.5234375
vt 0.4453125 0.5859375
vt 0.4609375 0.5859375
vt 0.4609375 0.5234375
vt 0.4453125 0.5234375
vt 0.4296875 0.5859375
vt 0.4453125 0.5859375
vt 0.4453125 0.5234375
vt 0.4296875 0.5234375
vt 0.4296875 0.5859375
vt 0.4140625 0.5859375
vt 0.4140625 0.6015625
vt 0.4296875 0.6015625
vt 0.4453125 0.6015625
vt 0.4296875 0.6015625
vt 0.4296875 0.5859375
vt 0.4453125 0.5859375
vn 0 -0.34202014332566866 -0.9396926207859084
vn 1 0 0
vn 0 0.34202014332566866 0.9396926207859084
vn -1 0 0
vn 0 0.9396926207859084 -0.34202014332566866
vn 0 -0.9396926207859084 0.34202014332566866
usemtl m_625d9a87-cca0-e8fb-1ae5-95995f1e5da6
f 140/412/103 143/411/103 141/410/103 138/409/103
f 139/416/104 140/415/104 138/414/104 137/413/104
f 144/420/105 139/419/105 137/418/105 142/417/105
f 143/424/106 144/423/106 142/422/106 141/421/106
f 142/428/107 137/427/107 138/426/107 141/425/107
f 143/432/108 140/431/108 139/430/108 144/429/108
o armRight
v 0.3007884733795812 1.1465772827175875 0.0625
v 0.3007884733795812 1.1465772827175875 -0.0625
v 0.512097604249931 0.6934233891992625 0.0625
v 0.512097604249931 0.6934233891992625 -0.0625
v 0.1875 1.09375 -0.0625
v 0.1875 1.09375 0.0625
v 0.39880913087034975 0.6405961064816751 -0.0625
v 0.39880913087034975 0.6405961064816751 0.0625
vt 0.015625 0.984375
vt 0.03125 0.984375
vt 0.03125 0.921875
vt 0.015625 0.921875
vt 0 0.984375
vt 0.015625 0.984375
vt 0.015625 0.921875
vt 0 0.921875
vt 0.046875 0.984375
vt 0.0625 0.984375
vt 0.0625 0.921875
vt 0.046875 0.921875
vt 0.03125 0.984375
vt 0.046875 0.984375
vt 0.046875 0.921875
vt 0.03125 0.921875
vt 0.03125 0.984375
vt 0.015625 0.984375
vt 0.015625 1
vt 0.03125 1
vt 0.046875 1
vt 0.03125 1
vt 0.03125 0.984375
vt 0.046875 0.984375
vn 0 0 -1
vn 0.9063077870366499 0.42261826174069944 0
vn 0 0 1
vn -0.9063077870366499 -0.42261826174069944 0
vn -0.42261826174069944 0.9063077870366499 0
vn 0.42261826174069944 -0.9063077870366499 0
usemtl m_625d9a87-cca0-e8fb-1ae5-95995f1e5da6
f 148/436/109 151/435/109 149/434/109 146/433/109
f 147/440/110 148/439/110 146/438/110 145/437/110
f 152/444/111 147/443/111 145/442/111 150/441/111
f 151/448/112 152/447/112 150/446/112 149/445/112
f 150/452/113 145/451/113 146/450/113 149/449/113
f 151/456/114 148/455/114 147/454/114 152/453/114
o bone3
v 0.381937874442064 1.046495630017403 0.0625
v 0.381937874442064 1.046495630017403 -0.0625
v 0.5140060812360325 0.76327444656845 0.0625
v 0.5140060812360325 0.76327444656845 -0.0625
v 0.21200516437269212 0.9672547059410219 -0.0625
v 0.21200516437269212 0.9672547059410219 0.0625
v 0.3440733711666607 0.6840335224920688 -0.0625
v 0.3440733711666607 0.6840335224920688 0.0625
vt 0.4375 0.984375
vt 0.4609375 0.984375
vt 0.4609375 0.9453125
vt 0.4375 0.9453125
vt 0.421875 0.984375
vt 0.4375 0.984375
vt 0.4375 0.9453125
vt 0.421875 0.9453125
vt 0.4765625 0.984375
vt 0.5 0.984375
vt 0.5 0.9453125
vt 0.4765625 0.9453125
vt 0.4609375 0.984375
vt 0.4765625 0.984375
vt 0.4765625 0.9453125
vt 0.4609375 0.9453125
vt 0.4609375 0.984375
vt 0.4375 0.984375
vt 0.4375 1
vt 0.4609375 1
vt 0.484375 1
vt 0.4609375 1
vt 0.4609375 0.984375
vt 0.484375 0.984375
vn 0 0 -1
vn 0.9063077870366499 0.42261826174069944 0
vn 0 0 1
vn -0.9063077870366499 -0.42261826174069944 0
vn -0.42261826174069944 0.9063077870366499 0
vn 0.42261826174069944 -0.9063077870366499 0
usemtl m_625d9a87-cca0-e8fb-1ae5-95995f1e5da6
f 156/460/115 159/459/115 157/458/115 154/457/115
f 155/464/116 156/463/116 154/462/116 153/461/116
f 160/468/117 155/467/117 153/466/117 158/465/117
f 159/472/118 160/471/118 158/470/118 157/469/118
f 158/476/119 153/475/119 154/474/119 157/473/119
f 159/480/120 156/479/120 155/478/120 160/477/120
o bone
v 0.3907097396959147 1.0276843042747428 0.04949028935263722
v 0.3717781347083631 1.0682832621869005 -0.06720726395951299
v 0.5140060325213486 0.7632745510374268 -0.06249969488026916
v 0.49507442753379693 0.8038735089495848 -0.17919724819241936
v 0.20184542463899113 0.9890423381105193 -0.06720726395951299
v 0.22077702962654283 0.9484433801983615 0.04949028935263722
v 0.325141717464425 0.7246325848732036 -0.17919724819241936
v 0.3440733224519767 0.6840336269610457 -0.06249969488026916
vt 0.09375 0.578125
vt 0.1171875 0.578125
vt 0.1171875 0.5390625
vt 0.09375 0.5390625
vt 0.078125 0.578125
vt 0.09375 0.578125
vt 0.09375 0.5390625
vt 0.078125 0.5390625
vt 0.1328125 0.578125
vt 0.15625 0.578125
vt 0.15625 0.5390625
vt 0.1328125 0.5390625
vt 0.1171875 0.578125
vt 0.1328125 0.578125
vt 0.1328125 0.5390625
vt 0.1171875 0.5390625
vt 0.1171875 0.578125
vt 0.09375 0.578125
vt 0.09375 0.59375
vt 0.1171875 0.59375
vt 0.140625 0.59375
vt 0.1171875 0.59375
vt 0.1171875 0.578125
vt 0.140625 0.578125
vn -0.15145283990041353 0.324791663297263 -0.9335804264972019
vn 0.9063077870366499 0.42261826174069944 2.7755575615628914e-17
vn 0.15145283990041353 -0.324791663297263 0.9335804264972019
vn -0.9063077870366499 -0.42261826174069944 -2.7755575615628914e-17
vn -0.39454813704138836 0.846111210359411 0.3583679495453004
vn 0.39454813704138836 -0.846111210359411 -0.3583679495453004
usemtl m_625d9a87-cca0-e8fb-1ae5-95995f1e5da6
f 164/484/121 167/483/121 165/482/121 162/481/121
f 163/488/122 164/487/122 162/486/122 161/485/122
f 168/492/123 163/491/123 161/490/123 166/489/123
f 167/496/124 168/495/124 166/494/124 165/493/124
f 166/500/125 161/499/125 162/498/125 165/497/125
f 167/504/126 164/503/126 163/502/126 168/501/126
o bone2
v 0.3717781347083631 1.0682832621869005 0.06720726395951299
v 0.3907097396959147 1.0276843042747428 -0.04949028935263722
v 0.49507442753379693 0.8038735089495848 0.17919724819241936
v 0.5140060325213486 0.7632745510374268 0.06249969488026916
v 0.22077702962654283 0.9484433801983615 -0.04949028935263722
v 0.20184542463899113 0.9890423381105193 0.06720726395951299
v 0.3440733224519767 0.6840336269610457 0.06249969488026916
v 0.325141717464425 0.7246325848732036 0.17919724819241936
vt 0.015625 0.578125
vt 0.0390625 0.578125
vt 0.0390625 0.5390625
vt 0.015625 0.5390625
vt 0 0.578125
vt 0.015625 0.578125
vt 0.015625 0.5390625
vt 0 0.5390625
vt 0.0546875 0.578125
vt 0.078125 0.578125
vt 0.078125 0.5390625
vt 0.0546875 0.5390625
vt 0.0390625 0.578125
vt 0.0546875 0.578125
vt 0.0546875 0.5390625
vt 0.0390625 0.5390625
vt 0.0390625 0.578125
vt 0.015625 0.578125
vt 0.015625 0.59375
vt 0.0390625 0.59375
vt 0.0625 0.59375
vt 0.0390625 0.59375
vt 0.0390625 0.578125
vt 0.0625 0.578125
vn 0.15145283990041353 -0.324791663297263 -0.9335804264972019
vn 0.9063077870366499 0.42261826174069944 -2.7755575615628914e-17
vn -0.15145283990041353 0.324791663297263 0.9335804264972019
vn -0.9063077870366499 -0.42261826174069944 2.7755575615628914e-17
vn -0.39454813704138836 0.846111210359411 -0.3583679495453004
vn 0.39454813704138836 -0.846111210359411 0.3583679495453004
usemtl m_625d9a87-cca0-e8fb-1ae5-95995f1e5da6
f 172/508/127 175/507/127 173/506/127 170/505/127
f 171/512/128 172/511/128 170/510/128 169/509/128
f 176/516/129 171/515/129 169/514/129 174/513/129
f 175/520/130 176/519/130 174/518/130 173/517/130
f 174/524/131 169/523/131 170/522/131 173/521/131
f 175/528/132 172/527/132 171/526/132 176/525/132
o armLeft
v -0.1875 1.09375 0.0625
v -0.1875 1.09375 -0.0625
v -0.39880913087034975 0.6405961064816751 0.0625
v -0.39880913087034975 0.6405961064816751 -0.0625
v -0.3007884733795812 1.1465772827175875 -0.0625
v -0.3007884733795812 1.1465772827175875 0.0625
v -0.512097604249931 0.6934233891992625 -0.0625
v -0.512097604249931 0.6934233891992625 0.0625
vt 0.015625 0.984375
vt 0.03125 0.984375
vt 0.03125 0.921875
vt 0.015625 0.921875
vt 0 0.984375
vt 0.015625 0.984375
vt 0.015625 0.921875
vt 0 0.921875
vt 0.046875 0.984375
vt 0.0625 0.984375
vt 0.0625 0.921875
vt 0.046875 0.921875
vt 0.03125 0.984375
vt 0.046875 0.984375
vt 0.046875 0.921875
vt 0.03125 0.921875
vt 0.03125 0.984375
vt 0.015625 0.984375
vt 0.015625 1
vt 0.03125 1
vt 0.046875 1
vt 0.03125 1
vt 0.03125 0.984375
vt 0.046875 0.984375
vn 0 0 -1
vn 0.9063077870366499 -0.42261826174069944 0
vn 0 0 1
vn -0.9063077870366499 0.42261826174069944 0
vn 0.42261826174069944 0.9063077870366499 0
vn -0.42261826174069944 -0.9063077870366499 0
usemtl m_625d9a87-cca0-e8fb-1ae5-95995f1e5da6
f 180/532/133 183/531/133 181/530/133 178/529/133
f 179/536/134 180/535/134 178/534/134 177/533/134
f 184/540/135 179/539/135 177/538/135 182/537/135
f 183/544/136 184/543/136 182/542/136 181/541/136
f 182/548/137 177/547/137 178/546/137 181/545/137
f 183/552/138 180/551/138 179/550/138 184/549/138
o bone4
v -0.21200516437269218 0.9672547059410218 0.0625
v -0.21200516437269218 0.9672547059410218 -0.0625
v -0.34407337116666076 0.6840335224920687 0.0625
v -0.34407337116666076 0.6840335224920687 -0.0625
v -0.38193787444206406 1.046495630017403 -0.0625
v -0.38193787444206406 1.046495630017403 0.0625
v -0.5140060812360326 0.7632744465684499 -0.0625
v -0.5140060812360326 0.7632744465684499 0.0625
vt 0.4375 0.984375
vt 0.4609375 0.984375
vt 0.4609375 0.9453125
vt 0.4375 0.9453125
vt 0.421875 0.984375
vt 0.4375 0.984375
vt 0.4375 0.9453125
vt 0.421875 0.9453125
vt 0.4765625 0.984375
vt 0.5 0.984375
vt 0.5 0.9453125
vt 0.4765625 0.9453125
vt 0.4609375 0.984375
vt 0.4765625 0.984375
vt 0.4765625 0.9453125
vt 0.4609375 0.9453125
vt 0.4609375 0.984375
vt 0.4375 0.984375
vt 0.4375 1
vt 0.4609375 1
vt 0.484375 1
vt 0.4609375 1
vt 0.4609375 0.984375
vt 0.484375 0.984375
vn 0 0 -1
vn 0.9063077870366499 -0.42261826174069944 0
vn 0 0 1
vn -0.9063077870366499 0.42261826174069944 0
vn 0.42261826174069944 0.9063077870366499 0
vn -0.42261826174069944 -0.9063077870366499 0
usemtl m_625d9a87-cca0-e8fb-1ae5-95995f1e5da6
f 188/556/139 191/555/139 189/554/139 186/553/139
f 187/560/140 188/559/140 186/558/140 185/557/140
f 192/564/141 187/563/141 185/562/141 190/561/141
f 191/568/142 192/567/142 190/566/142 189/565/142
f 190/572/143 185/571/143 186/570/143 189/569/143
f 191/576/144 188/575/144 187/574/144 192/573/144
o bone5
v -0.2207770296265429 0.9484433801983614 0.04949028935263722
v -0.2018454246389912 0.9890423381105192 -0.06720726395951299
v -0.34407332245197675 0.6840336269610456 -0.06249969488026916
v -0.3251417174644251 0.7246325848732035 -0.17919724819241936
v -0.3717781347083631 1.0682832621869005 -0.06720726395951299
v -0.39070973969591477 1.0276843042747428 0.04949028935263722
v -0.49507442753379693 0.8038735089495846 -0.17919724819241936
v -0.5140060325213487 0.7632745510374267 -0.06249969488026916
vt 0.09375 0.578125
vt 0.1171875 0.578125
vt 0.1171875 0.5390625
vt 0.09375 0.5390625
vt 0.078125 0.578125
vt 0.09375 0.578125
vt 0.09375 0.5390625
vt 0.078125 0.5390625
vt 0.1328125 0.578125
vt 0.15625 0.578125
vt 0.15625 0.5390625
vt 0.1328125 0.5390625
vt 0.1171875 0.578125
vt 0.1328125 0.578125
vt 0.1328125 0.5390625
vt 0.1171875 0.5390625
vt 0.1171875 0.578125
vt 0.09375 0.578125
vt 0.09375 0.59375
vt 0.1171875 0.59375
vt 0.140625 0.59375
vt 0.1171875 0.59375
vt 0.1171875 0.578125
vt 0.140625 0.578125
vn 0.15145283990041353 0.324791663297263 -0.9335804264972019
vn 0.9063077870366499 -0.42261826174069944 -2.7755575615628914e-17
vn -0.15145283990041353 -0.324791663297263 0.9335804264972019
vn -0.9063077870366499 0.42261826174069944 2.7755575615628914e-17
vn 0.39454813704138836 0.846111210359411 0.3583679495453004
vn -0.39454813704138836 -0.846111210359411 -0.3583679495453004
usemtl m_625d9a87-cca0-e8fb-1ae5-95995f1e5da6
f 196/580/145 199/579/145 197/578/145 194/577/145
f 195/584/146 196/583/146 194/582/146 193/581/146
f 200/588/147 195/587/147 193/586/147 198/585/147
f 199/592/148 200/591/148 198/590/148 197/589/148
f 198/596/149 193/595/149 194/594/149 197/593/149
f 199/600/150 196/599/150 195/598/150 200/597/150
o bone6
v -0.2018454246389912 0.9890423381105192 0.06720726395951299
v -0.2207770296265429 0.9484433801983614 -0.04949028935263722
v -0.3251417174644251 0.7246325848732035 0.17919724819241936
v -0.34407332245197675 0.6840336269610456 0.06249969488026916
v -0.39070973969591477 1.0276843042747428 -0.04949028935263722
v -0.3717781347083631 1.0682832621869005 0.06720726395951299
v -0.5140060325213487 0.7632745510374267 0.06249969488026916
v -0.49507442753379693 0.8038735089495846 0.17919724819241936
vt 0.015625 0.578125
vt 0.0390625 0.578125
vt 0.0390625 0.5390625
vt 0.015625 0.5390625
vt 0 0.578125
vt 0.015625 0.578125
vt 0.015625 0.5390625
vt 0 0.5390625
vt 0.0546875 0.578125
vt 0.078125 0.578125
vt 0.078125 0.5390625
vt 0.0546875 0.5390625
vt 0.0390625 0.578125
vt 0.0546875 0.578125
vt 0.0546875 0.5390625
vt 0.0390625 0.5390625
vt 0.0390625 0.578125
vt 0.015625 0.578125
vt 0.015625 0.59375
vt 0.0390625 0.59375
vt 0.0625 0.59375
vt 0.0390625 0.59375
vt 0.0390625 0.578125
vt 0.0625 0.578125
vn -0.15145283990041353 -0.324791663297263 -0.9335804264972019
vn 0.9063077870366499 -0.42261826174069944 2.7755575615628914e-17
vn 0.15145283990041353 0.324791663297263 0.9335804264972019
vn -0.9063077870366499 0.42261826174069944 -2.7755575615628914e-17
vn 0.39454813704138836 0.846111210359411 -0.3583679495453004
vn -0.39454813704138836 -0.846111210359411 0.3583679495453004
usemtl m_625d9a87-cca0-e8fb-1ae5-95995f1e5da6
f 204/604/151 207/603/151 205/602/151 202/601/151
f 203/608/152 204/607/152 202/606/152 201/605/152
f 208/612/153 203/611/153 201/610/153 206/609/153
f 207/616/154 208/615/154 206/614/154 205/613/154
f 206/620/155 201/619/155 202/618/155 205/617/155
f 207/624/156 204/623/156 203/622/156 208/621/156
o body
v 0.1875 1.1250624999999999 0.1875
v 0.1875 1.1250624999999999 -0.1875
v 0.1875 0.8125624999999999 0.1875
v 0.1875 0.8125624999999999 -0.1875
v -0.1875 1.1250624999999999 -0.1875
v -0.1875 1.1250624999999999 0.1875
v -0.1875 0.8125624999999999 -0.1875
v -0.1875 0.8125624999999999 0.1875
vt 0.046875 0.734375
vt 0.09375 0.734375
vt 0.09375 0.6953125
vt 0.046875 0.6953125
vt 0 0.734375
vt 0.046875 0.734375
vt 0.046875 0.6953125
vt 0 0.6953125
vt 0.140625 0.734375
vt 0.1875 0.734375
vt 0.1875 0.6953125
vt 0.140625 0.6953125
vt 0.09375 0.734375
vt 0.140625 0.734375
vt 0.140625 0.6953125
vt 0.09375 0.6953125
vt 0.09375 0.734375
vt 0.046875 0.734375
vt 0.046875 0.78125
vt 0.09375 0.78125
vt 0.140625 0.78125
vt 0.09375 0.78125
vt 0.09375 0.734375
vt 0.140625 0.734375
vn 0 0 -1
vn 1 0 0
vn 0 0 1
vn -1 0 0
vn 0 1 0
vn 0 -1 0
usemtl m_625d9a87-cca0-e8fb-1ae5-95995f1e5da6
f 212/628/157 215/627/157 213/626/157 210/625/157
f 211/632/158 212/631/158 210/630/158 209/629/158
f 216/636/159 211/635/159 209/634/159 214/633/159
f 215/640/160 216/639/160 214/638/160 213/637/160
f 214/644/161 209/643/161 210/642/161 213/641/161
f 215/648/162 212/647/162 211/646/162 216/645/162
o body
v 0.15625 1.125 0.15625
v 0.15625 1.125 -0.15625
v 0.15625 0.625 0.15625
v 0.15625 0.625 -0.15625
v -0.15625 1.125 -0.15625
v -0.15625 1.125 0.15625
v -0.15625 0.625 -0.15625
v -0.15625 0.625 0.15625
vt 0.0390625 0.5
vt 0.078125 0.5
vt 0.078125 0.4375
vt 0.0390625 0.4375
vt 0 0.5
vt 0.0390625 0.5
vt 0.0390625 0.4375
vt 0 0.4375
vt 0.1171875 0.5
vt 0.15625 0.5
vt 0.15625 0.4375
vt 0.1171875 0.4375
vt 0.078125 0.5
vt 0.1171875 0.5
vt 0.1171875 0.4375
vt 0.078125 0.4375
vt 0.078125 0.5
vt 0.0390625 0.5
vt 0.0390625 0.5390625
vt 0.078125 0.5390625
vt 0.1171875 0.5390625
vt 0.078125 0.5390625
vt 0.078125 0.5
vt 0.1171875 0.5
vn 0 0 -1
vn 1 0 0
vn 0 0 1
vn -1 0 0
vn 0 1 0
vn 0 -1 0
usemtl m_625d9a87-cca0-e8fb-1ae5-95995f1e5da6
f 220/652/163 223/651/163 221/650/163 218/649/163
f 219/656/164 220/655/164 218/654/164 217/653/164
f 224/660/165 219/659/165 217/658/165 222/657/165
f 223/664/166 224/663/166 222/662/166 221/661/166
f 222/668/167 217/667/167 218/666/167 221/665/167
f 223/672/168 220/671/168 219/670/168 224/669/168
o body
v 0.25 0.6249374999999999 0.125
v 0.25 0.6249374999999999 -0.125
v 0.25 0.4999374999999999 0.125
v 0.25 0.4999374999999999 -0.125
v -0.25 0.6249374999999999 -0.125
v -0.25 0.6249374999999999 0.125
v -0.25 0.4999374999999999 -0.125
v -0.25 0.4999374999999999 0.125
vt 0.3046875 0.625
vt 0.3671875 0.625
vt 0.3671875 0.609375
vt 0.3046875 0.609375
vt 0.2734375 0.625
vt 0.3046875 0.625
vt 0.3046875 0.609375
vt 0.2734375 0.609375
vt 0.3984375 0.625
vt 0.4609375 0.625
vt 0.4609375 0.609375
vt 0.3984375 0.609375
vt 0.3671875 0.625
vt 0.3984375 0.625
vt 0.3984375 0.609375
vt 0.3671875 0.609375
vt 0.3671875 0.625
vt 0.3046875 0.625
vt 0.3046875 0.65625
vt 0.3671875 0.65625
vt 0.4296875 0.65625
vt 0.3671875 0.65625
vt 0.3671875 0.625
vt 0.4296875 0.625
vn 0 0 -1
vn 1 0 0
vn 0 0 1
vn -1 0 0
vn 0 1 0
vn 0 -1 0
usemtl m_625d9a87-cca0-e8fb-1ae5-95995f1e5da6
f 228/676/169 231/675/169 229/674/169 226/673/169
f 227/680/170 228/679/170 226/678/170 225/677/170
f 232/684/171 227/683/171 225/682/171 230/681/171
f 231/688/172 232/687/172 230/686/172 229/685/172
f 230/692/173 225/691/173 226/690/173 229/689/173
f 231/696/174 228/695/174 227/694/174 232/693/174
o decoration
v 0.03125 1.0625 -0.15625
v 0.03125 1.0625 -0.21875
v 0.03125 1 -0.15625
v 0.03125 1 -0.21875
v -0.03125 1.0625 -0.21875
v -0.03125 1.0625 -0.15625
v -0.03125 1 -0.21875
v -0.03125 1 -0.15625
vt 0.0546875 0.9921875
vt 0.0625 0.9921875
vt 0.0625 0.984375
vt 0.0546875 0.984375
vt 0.046875 0.9921875
vt 0.0546875 0.9921875
vt 0.0546875 0.984375
vt 0.046875 0.984375
vt 0.0703125 0.9921875
vt 0.078125 0.9921875
vt 0.078125 0.984375
vt 0.0703125 0.984375
vt 0.0625 0.9921875
vt 0.0703125 0.9921875
vt 0.0703125 0.984375
vt 0.0625 0.984375
vt 0.0625 0.9921875
vt 0.0546875 0.9921875
vt 0.0546875 1
vt 0.0625 1
vt 0.0703125 1
vt 0.0625 1
vt 0.0625 0.9921875
vt 0.0703125 0.9921875
vn 0 0 -1
vn 1 0 0
vn 0 0 1
vn -1 0 0
vn 0 1 0
vn 0 -1 0
usemtl m_625d9a87-cca0-e8fb-1ae5-95995f1e5da6
f 236/700/175 239/699/175 237/698/175 234/697/175
f 235/704/176 236/703/176 234/702/176 233/701/176
f 240/708/177 235/707/177 233/706/177 238/705/177
f 239/712/178 240/711/178 238/710/178 237/709/178
f 238/716/179 233/715/179 234/714/179 237/713/179
f 239/720/180 236/719/180 235/718/180 240/717/180
o decoration
v 0.03125 1 -0.140625
v 0.03125 1 -0.203125
v 0.03125 0.875 -0.140625
v 0.03125 0.875 -0.203125
v -0.03125 1 -0.203125
v -0.03125 1 -0.140625
v -0.03125 0.875 -0.203125
v -0.03125 0.875 -0.140625
vt 0.046875 0.8828125
vt 0.0390625 0.8828125
vt 0.0390625 0.8671875
vt 0.046875 0.8671875
vt 0.0546875 0.8828125
vt 0.046875 0.8828125
vt 0.046875 0.8671875
vt 0.0546875 0.8671875
vt 0.0625 0.8828125
vt 0.0546875 0.8828125
vt 0.0546875 0.8671875
vt 0.0625 0.8671875
vt 0.0390625 0.8828125
vt 0.03125 0.8828125
vt 0.03125 0.8671875
vt 0.0390625 0.8671875
vt 0.0390625 0.8828125
vt 0.046875 0.8828125
vt 0.046875 0.890625
vt 0.0390625 0.890625
vt 0.046875 0.890625
vt 0.0546875 0.890625
vt 0.0546875 0.8828125
vt 0.046875 0.8828125
vn 0 0 -1
vn 1 0 0
vn 0 0 1
vn -1 0 0
vn 0 1 0
vn 0 -1 0
usemtl m_625d9a87-cca0-e8fb-1ae5-95995f1e5da6
f 244/724/181 247/723/181 245/722/181 242/721/181
f 243/728/182 244/727/182 242/726/182 241/725/182
f 248/732/183 243/731/183 241/730/183 246/729/183
f 247/736/184 248/735/184 246/734/184 245/733/184
f 246/740/185 241/739/185 242/738/185 245/737/185
f 247/744/186 244/743/186 243/742/186 248/741/186
o bone10
v 0.1436333330848084 1.1830226768162262 -0.171875
v 0.1436333330848084 1.1830226768162262 -0.234375
v 0.18380755869021714 1.13514489912129 -0.171875
v 0.18380755869021714 1.13514489912129 -0.234375
v 0 1.0625 -0.234375
v 0 1.0625 -0.171875
v 0.04017422560540873 1.0146222223050638 -0.234375
v 0.04017422560540873 1.0146222223050638 -0.171875
vt 0.03125 0.8984375
vt 0.0078125 0.8984375
vt 0.0078125 0.890625
vt 0.03125 0.890625
vt 0.0390625 0.8984375
vt 0.03125 0.8984375
vt 0.03125 0.890625
vt 0.0390625 0.890625
vt 0.0625 0.8984375
vt 0.0390625 0.8984375
vt 0.0390625 0.890625
vt 0.0625 0.890625
vt 0.0078125 0.8984375
vt 0 0.8984375
vt 0 0.890625
vt 0.0078125 0.890625
vt 0.0078125 0.8984375
vt 0.03125 0.8984375
vt 0.03125 0.90625
vt 0.0078125 0.90625
vt 0.03125 0.90625
vt 0.0546875 0.90625
vt 0.0546875 0.8984375
vt 0.03125 0.8984375
vn 0 0 -1
vn 0.7660444431189781 0.6427876096865394 0
vn 0 0 1
vn -0.7660444431189781 -0.6427876096865394 0
vn -0.6427876096865394 0.7660444431189781 0
vn 0.6427876096865394 -0.7660444431189781 0
usemtl m_625d9a87-cca0-e8fb-1ae5-95995f1e5da6
f 252/748/187 255/747/187 253/746/187 250/745/187
f 251/752/188 252/751/188 250/750/188 249/749/188
f 256/756/189 251/755/189 249/754/189 254/753/189
f 255/760/190 256/759/190 254/758/190 253/757/190
f 254/764/191 249/763/191 250/762/191 253/761/191
f 255/768/192 252/767/192 251/766/192 256/765/192
o bone11
v 0 1.0625 -0.171875
v 0 1.0625 -0.234375
v -0.04017422560540873 1.0146222223050638 -0.171875
v -0.04017422560540873 1.0146222223050638 -0.234375
v -0.1436333330848084 1.1830226768162262 -0.234375
v -0.1436333330848084 1.1830226768162262 -0.171875
v -0.18380755869021714 1.13514489912129 -0.234375
v -0.18380755869021714 1.13514489912129 -0.171875
vt 0.0078125 0.8984375
vt 0.03125 0.8984375
vt 0.03125 0.890625
vt 0.0078125 0.890625
vt 0 0.8984375
vt 0.0078125 0.8984375
vt 0.0078125 0.890625
vt 0 0.890625
vt 0.0390625 0.8984375
vt 0.0625 0.8984375
vt 0.0625 0.890625
vt 0.0390625 0.890625
vt 0.03125 0.8984375
vt 0.0390625 0.8984375
vt 0.0390625 0.890625
vt 0.03125 0.890625
vt 0.03125 0.8984375
vt 0.0078125 0.8984375
vt 0.0078125 0.90625
vt 0.03125 0.90625
vt 0.0546875 0.90625
vt 0.03125 0.90625
vt 0.03125 0.8984375
vt 0.0546875 0.8984375
vn 0 0 -1
vn 0.7660444431189781 -0.6427876096865394 0
vn 0 0 1
vn -0.7660444431189781 0.6427876096865394 0
vn 0.6427876096865394 0.7660444431189781 0
vn -0.6427876096865394 -0.7660444431189781 0
usemtl m_625d9a87-cca0-e8fb-1ae5-95995f1e5da6
f 260/772/193 263/771/193 261/770/193 258/769/193
f 259/776/194 260/775/194 258/774/194 257/773/194
f 264/780/195 259/779/195 257/778/195 262/777/195
f 263/784/196 264/783/196 262/782/196 261/781/196
f 262/788/197 257/787/197 258/786/197 261/785/197
f 263/792/198 260/791/198 259/790/198 264/789/198
o bone13
v 0.025498843304423646 0.9863760136408942 -0.140625
v 0.025498843304423646 0.9863760136408942 -0.203125
v -0.031249969163019697 0.8750001981173483 -0.140625
v -0.031249969163019697 0.8750001981173483 -0.203125
v -0.03018906445734937 1.0147504198746158 -0.203125
v -0.03018906445734937 1.0147504198746158 -0.140625
v -0.08693787692479271 0.90337460435107 -0.203125
v -0.08693787692479271 0.90337460435107 -0.140625
vt 0.046875 0.8828125
vt 0.0390625 0.8828125
vt 0.0390625 0.8671875
vt 0.046875 0.8671875
vt 0.0546875 0.8828125
vt 0.046875 0.8828125
vt 0.046875 0.8671875
vt 0.0546875 0.8671875
vt 0.0625 0.8828125
vt 0.0546875 0.8828125
vt 0.0546875 0.8671875
vt 0.0625 0.8671875
vt 0.0390625 0.8828125
vt 0.03125 0.8828125
vt 0.03125 0.8671875
vt 0.0390625 0.8671875
vt 0.0390625 0.8828125
vt 0.046875 0.8828125
vt 0.046875 0.890625
vt 0.0390625 0.890625
vt 0.046875 0.890625
vt 0.0546875 0.890625
vt 0.0546875 0.8828125
vt 0.046875 0.8828125
vn 0 0 -1
vn 0.8910065241883679 -0.45399049973954675 0
vn 0 0 1
vn -0.8910065241883679 0.45399049973954675 0
vn 0.45399049973954675 0.8910065241883679 0
vn -0.45399049973954675 -0.8910065241883679 0
usemtl m_625d9a87-cca0-e8fb-1ae5-95995f1e5da6
f 268/796/199 271/795/199 269/794/199 266/793/199
f 267/800/200 268/799/200 266/798/200 265/797/200
f 272/804/201 267/803/201 265/802/201 270/801/201
f 271/808/202 272/807/202 270/806/202 269/805/202
f 270/812/203 265/811/203 266/810/203 269/809/203
f 271/816/204 268/815/204 267/814/204 272/813/204
o bone14
v 0.03018906445734937 1.0147504198746158 -0.140625
v 0.03018906445734937 1.0147504198746158 -0.203125
v 0.08693787692479271 0.90337460435107 -0.140625
v 0.08693787692479271 0.90337460435107 -0.203125
v -0.025498843304423646 0.9863760136408942 -0.203125
v -0.025498843304423646 0.9863760136408942 -0.140625
v 0.031249969163019697 0.8750001981173483 -0.203125
v 0.031249969163019697 0.8750001981173483 -0.140625
vt 0.0390625 0.8828125
vt 0.046875 0.8828125
vt 0.046875 0.8671875
vt 0.0390625 0.8671875
vt 0.03125 0.8828125
vt 0.0390625 0.8828125
vt 0.0390625 0.8671875
vt 0.03125 0.8671875
vt 0.0546875 0.8828125
vt 0.0625 0.8828125
vt 0.0625 0.8671875
vt 0.0546875 0.8671875
vt 0.046875 0.8828125
vt 0.0546875 0.8828125
vt 0.0546875 0.8671875
vt 0.046875 0.8671875
vt 0.046875 0.8828125
vt 0.0390625 0.8828125
vt 0.0390625 0.890625
vt 0.046875 0.890625
vt 0.0546875 0.890625
vt 0.046875 0.890625
vt 0.046875 0.8828125
vt 0.0546875 0.8828125
vn 0 0 -1
vn 0.8910065241883679 0.45399049973954675 0
vn 0 0 1
vn -0.8910065241883679 -0.45399049973954675 0
vn -0.45399049973954675 0.8910065241883679 0
vn 0.45399049973954675 -0.8910065241883679 0
usemtl m_625d9a87-cca0-e8fb-1ae5-95995f1e5da6
f 276/820/205 279/819/205 277/818/205 274/817/205
f 275/824/206 276/823/206 274/822/206 273/821/206
f 280/828/207 275/827/207 273/826/207 278/825/207
f 279/832/208 280/831/208 278/830/208 277/829/208
f 278/836/209 273/835/209 274/834/209 277/833/209
f 279/840/210 276/839/210 275/838/210 280/837/210
o sittingRotationSkirt
v 0.3125 0.375 0.3125
v 0.3125 0.375 -0.3125
v 0.3125 0.25 0.3125
v 0.3125 0.25 -0.3125
v -0.3125 0.375 -0.3125
v -0.3125 0.375 0.3125
v -0.3125 0.25 -0.3125
v -0.3125 0.25 0.3125
vt 0.078125 0.921875
vt 0.15625 0.921875
vt 0.15625 0.90625
vt 0.078125 0.90625
vt 0 0.921875
vt 0.078125 0.921875
vt 0.078125 0.90625
vt 0 0.90625
vt 0.234375 0.921875
vt 0.3125 0.921875
vt 0.3125 0.90625
vt 0.234375 0.90625
vt 0.15625 0.921875
vt 0.234375 0.921875
vt 0.234375 0.90625
vt 0.15625 0.90625
vt 0.15625 0.921875
vt 0.078125 0.921875
vt 0.078125 1
vt 0.15625 1
vt 0.234375 1
vt 0.15625 1
vt 0.15625 0.921875
vt 0.234375 0.921875
vn 0 0 -1
vn 1 0 0
vn 0 0 1
vn -1 0 0
vn 0 1 0
vn 0 -1 0
usemtl m_625d9a87-cca0-e8fb-1ae5-95995f1e5da6
f 284/844/211 287/843/211 285/842/211 282/841/211
f 283/848/212 284/847/212 282/846/212 281/845/212
f 288/852/213 283/851/213 281/850/213 286/849/213
f 287/856/214 288/855/214 286/854/214 285/853/214
f 286/860/215 281/859/215 282/858/215 285/857/215
f 287/864/216 284/863/216 283/862/216 288/861/216
o sittingRotationSkirt
v 0.28125 0.5 0.28125
v 0.28125 0.5 -0.28125
v 0.28125 0.375 0.28125
v 0.28125 0.375 -0.28125
v -0.28125 0.5 -0.28125
v -0.28125 0.5 0.28125
v -0.28125 0.375 -0.28125
v -0.28125 0.375 0.28125
vt 0.25 0.75
vt 0.3203125 0.75
vt 0.3203125 0.734375
vt 0.25 0.734375
vt 0.1796875 0.75
vt 0.25 0.75
vt 0.25 0.734375
vt 0.1796875 0.734375
vt 0.390625 0.75
vt 0.4609375 0.75
vt 0.4609375 0.734375
vt 0.390625 0.734375
vt 0.3203125 0.75
vt 0.390625 0.75
vt 0.390625 0.734375
vt 0.3203125 0.734375
vt 0.3203125 0.75
vt 0.25 0.75
vt 0.25 0.8203125
vt 0.3203125 0.8203125
vt 0.390625 0.8203125
vt 0.3203125 0.8203125
vt 0.3203125 0.75
vt 0.390625 0.75
vn 0 0 -1
vn 1 0 0
vn 0 0 1
vn -1 0 0
vn 0 1 0
vn 0 -1 0
usemtl m_625d9a87-cca0-e8fb-1ae5-95995f1e5da6
f 292/868/217 295/867/217 293/866/217 290/865/217
f 291/872/218 292/871/218 290/870/218 289/869/218
f 296/876/219 291/875/219 289/874/219 294/873/219
f 295/880/220 296/879/220 294/878/220 293/877/220
f 294/884/221 289/883/221 290/882/221 293/881/221
f 295/888/222 292/887/222 291/886/222 296/885/222
o sittingRotationSkirt
v 0.25 0.625 0.25
v 0.25 0.625 -0.25
v 0.25 0.5 0.25
v 0.25 0.5 -0.25
v -0.25 0.625 -0.25
v -0.25 0.625 0.25
v -0.25 0.5 -0.25
v -0.25 0.5 0.25
vt 0.296875 0.9375
vt 0.359375 0.9375
vt 0.359375 0.921875
vt 0.296875 0.921875
vt 0.234375 0.9375
vt 0.296875 0.9375
vt 0.296875 0.921875
vt 0.234375 0.921875
vt 0.421875 0.9375
vt 0.484375 0.9375
vt 0.484375 0.921875
vt 0.421875 0.921875
vt 0.359375 0.9375
vt 0.421875 0.9375
vt 0.421875 0.921875
vt 0.359375 0.921875
vt 0.359375 0.9375
vt 0.296875 0.9375
vt 0.296875 1
vt 0.359375 1
vt 0.421875 1
vt 0.359375 1
vt 0.359375 0.9375
vt 0.421875 0.9375
vn 0 0 -1
vn 1 0 0
vn 0 0 1
vn -1 0 0
vn 0 1 0
vn 0 -1 0
usemtl m_625d9a87-cca0-e8fb-1ae5-95995f1e5da6
f 300/892/223 303/891/223 301/890/223 298/889/223
f 299/896/224 300/895/224 298/894/224 297/893/224
f 304/900/225 299/899/225 297/898/225 302/897/225
f 303/904/226 304/903/226 302/902/226 301/901/226
f 302/908/227 297/907/227 298/906/227 301/905/227
f 303/912/228 300/911/228 299/910/228 304/909/228
o sittingRotationSkirt
v 0.21875 0.6875 0.21875
v 0.21875 0.6875 -0.21875
v 0.21875 0.625 0.21875
v 0.21875 0.625 -0.21875
v -0.21875 0.6875 -0.21875
v -0.21875 0.6875 0.21875
v -0.21875 0.625 -0.21875
v -0.21875 0.625 0.21875
vt 0.2421875 0.8515625
vt 0.296875 0.8515625
vt 0.296875 0.84375
vt 0.2421875 0.84375
vt 0.1875 0.8515625
vt 0.2421875 0.8515625
vt 0.2421875 0.84375
vt 0.1875 0.84375
vt 0.3515625 0.8515625
vt 0.40625 0.8515625
vt 0.40625 0.84375
vt 0.3515625 0.84375
vt 0.296875 0.8515625
vt 0.3515625 0.8515625
vt 0.3515625 0.84375
vt 0.296875 0.84375
vt 0.296875 0.8515625
vt 0.2421875 0.8515625
vt 0.2421875 0.90625
vt 0.296875 0.90625
vt 0.3515625 0.90625
vt 0.296875 0.90625
vt 0.296875 0.8515625
vt 0.3515625 0.8515625
vn 0 0 -1
vn 1 0 0
vn 0 0 1
vn -1 0 0
vn 0 1 0
vn 0 -1 0
usemtl m_625d9a87-cca0-e8fb-1ae5-95995f1e5da6
f 308/916/229 311/915/229 309/914/229 306/913/229
f 307/920/230 308/919/230 306/918/230 305/917/230
f 312/924/231 307/923/231 305/922/231 310/921/231
f 311/928/232 312/927/232 310/926/232 309/925/232
f 310/932/233 305/931/233 306/930/233 309/929/233
f 311/936/234 308/935/234 307/934/234 312/933/234
o sittingRotationSkirt
v 0.1875 0.75 0.1875
v 0.1875 0.75 -0.1875
v 0.1875 0.6875 0.1875
v 0.1875 0.6875 -0.1875
v -0.1875 0.75 -0.1875
v -0.1875 0.75 0.1875
v -0.1875 0.6875 -0.1875
v -0.1875 0.6875 0.1875
vt 0.046875 0.6484375
vt 0.09375 0.6484375
vt 0.09375 0.640625
vt 0.046875 0.640625
vt 0 0.6484375
vt 0.046875 0.6484375
vt 0.046875 0.640625
vt 0 0.640625
vt 0.140625 0.6484375
vt 0.1875 0.6484375
vt 0.1875 0.640625
vt 0.140625 0.640625
vt 0.09375 0.6484375
vt 0.140625 0.6484375
vt 0.140625 0.640625
vt 0.09375 0.640625
vt 0.09375 0.6484375
vt 0.046875 0.6484375
vt 0.046875 0.6953125
vt 0.09375 0.6953125
vt 0.140625 0.6953125
vt 0.09375 0.6953125
vt 0.09375 0.6484375
vt 0.140625 0.6484375
vn 0 0 -1
vn 1 0 0
vn 0 0 1
vn -1 0 0
vn 0 1 0
vn 0 -1 0
usemtl m_625d9a87-cca0-e8fb-1ae5-95995f1e5da6
f 316/940/235 319/939/235 317/938/235 314/937/235
f 315/944/236 316/943/236 314/942/236 313/941/236
f 320/948/237 315/947/237 313/946/237 318/945/237
f 319/952/238 320/951/238 318/950/238 317/949/238
f 318/956/239 313/955/239 314/954/239 317/953/239
f 319/960/240 316/959/240 315/958/240 320/957/240
o legLeft
v -0.03125 0.5625 0.09375
v -0.03125 0.5625 -0.09375
v -0.03125 0 0.09375
v -0.03125 0 -0.09375
v -0.21875 0.5625 -0.09375
v -0.21875 0.5625 0.09375
v -0.21875 0 -0.09375
v -0.21875 0 0.09375
vt 0.1875 0.625
vt 0.2109375 0.625
vt 0.2109375 0.5546875
vt 0.1875 0.5546875
vt 0.1640625 0.625
vt 0.1875 0.625
vt 0.1875 0.5546875
vt 0.1640625 0.5546875
vt 0.234375 0.625
vt 0.2578125 0.625
vt 0.2578125 0.5546875
vt 0.234375 0.5546875
vt 0.2109375 0.625
vt 0.234375 0.625
vt 0.234375 0.5546875
vt 0.2109375 0.5546875
vt 0.2109375 0.625
vt 0.1875 0.625
vt 0.1875 0.6484375
vt 0.2109375 0.6484375
vt 0.234375 0.6484375
vt 0.2109375 0.6484375
vt 0.2109375 0.625
vt 0.234375 0.625
vn 0 0 -1
vn 1 0 0
vn 0 0 1
vn -1 0 0
vn 0 1 0
vn 0 -1 0
usemtl m_625d9a87-cca0-e8fb-1ae5-95995f1e5da6
f 324/964/241 327/963/241 325/962/241 322/961/241
f 323/968/242 324/967/242 322/966/242 321/965/242
f 328/972/243 323/971/243 321/970/243 326/969/243
f 327/976/244 328/975/244 326/974/244 325/973/244
f 326/980/245 321/979/245 322/978/245 325/977/245
f 327/984/246 324/983/246 323/982/246 328/981/246
o legRight
v 0.21875 0.5625 0.09375
v 0.21875 0.5625 -0.09375
v 0.21875 0 0.09375
v 0.21875 0 -0.09375
v 0.03125 0.5625 -0.09375
v 0.03125 0.5625 0.09375
v 0.03125 0 -0.09375
v 0.03125 0 0.09375
vt 0.1875 0.625
vt 0.2109375 0.625
vt 0.2109375 0.5546875
vt 0.1875 0.5546875
vt 0.1640625 0.625
vt 0.1875 0.625
vt 0.1875 0.5546875
vt 0.1640625 0.5546875
vt 0.234375 0.625
vt 0.2578125 0.625
vt 0.2578125 0.5546875
vt 0.234375 0.5546875
vt 0.2109375 0.625
vt 0.234375 0.625
vt 0.234375 0.5546875
vt 0.2109375 0.5546875
vt 0.2109375 0.625
vt 0.1875 0.625
vt 0.1875 0.6484375
vt 0.2109375 0.6484375
vt 0.234375 0.6484375
vt 0.2109375 0.6484375
vt 0.2109375 0.625
vt 0.234375 0.625
vn 0 0 -1
vn 1 0 0
vn 0 0 1
vn -1 0 0
vn 0 1 0
vn 0 -1 0
usemtl m_625d9a87-cca0-e8fb-1ae5-95995f1e5da6
f 332/988/247 335/987/247 333/986/247 330/985/247
f 331/992/248 332/991/248 330/990/248 329/989/248
f 336/996/249 331/995/249 329/994/249 334/993/249
f 335/1000/250 336/999/250 334/998/250 333/997/250
f 334/1004/251 329/1003/251 330/1002/251 333/1001/251
f 335/1008/252 332/1007/252 331/1006/252 336/1005/252