# Made in Blockbench 5.1.6
mtllib hong_meiling.mtl

o head
v 0.25 1.625 0.25
v 0.25 1.625 -0.25
v 0.25 1.125 0.25
v 0.25 1.125 -0.25
v -0.25 1.625 -0.25
v -0.25 1.625 0.25
v -0.25 1.125 -0.25
v -0.25 1.125 0.25
vt 0.0625 0.796875
vt 0.125 0.796875
vt 0.125 0.734375
vt 0.0625 0.734375
vt 0 0.796875
vt 0.0625 0.796875
vt 0.0625 0.734375
vt 0 0.734375
vt 0.1875 0.796875
vt 0.25 0.796875
vt 0.25 0.734375
vt 0.1875 0.734375
vt 0.125 0.796875
vt 0.1875 0.796875
vt 0.1875 0.734375
vt 0.125 0.734375
vt 0.125 0.796875
vt 0.0625 0.796875
vt 0.0625 0.859375
vt 0.125 0.859375
vt 0.1875 0.859375
vt 0.125 0.859375
vt 0.125 0.796875
vt 0.1875 0.796875
vn 0 0 -1
vn 1 0 0
vn 0 0 1
vn -1 0 0
vn 0 1 0
vn 0 -1 0
usemtl m_045d0150-7f3e-996d-39a8-b6d4157e351e
f 4/4/1 7/3/1 5/2/1 2/1/1
f 3/8/2 4/7/2 2/6/2 1/5/2
f 8/12/3 3/11/3 1/10/3 6/9/3
f 7/16/4 8/15/4 6/14/4 5/13/4
f 6/20/5 1/19/5 2/18/5 5/17/5
f 7/24/6 4/23/6 3/22/6 8/21/6
o head
v 0.25625 1.63125 0.25625
v 0.25625 1.63125 -0.25625
v 0.25625 1.11875 0.25625
v 0.25625 1.11875 -0.25625
v -0.25625 1.63125 -0.25625
v -0.25625 1.63125 0.25625
v -0.25625 1.11875 -0.25625
v -0.25625 1.11875 0.25625
vt 0.0625 0.9375
vt 0.125 0.9375
vt 0.125 0.875
vt 0.0625 0.875
vt 0 0.9375
vt 0.0625 0.9375
vt 0.0625 0.875
vt 0 0.875
vt 0.1875 0.9375
vt 0.25 0.9375
vt 0.25 0.875
vt 0.1875 0.875
vt 0.125 0.9375
vt 0.1875 0.9375
vt 0.1875 0.875
vt 0.125 0.875
vt 0.125 0.9375
vt 0.0625 0.9375
vt 0.0625 1
vt 0.125 1
vt 0.1875 1
vt 0.125 1
vt 0.125 0.9375
vt 0.1875 0.9375
vn 0 0 -1
vn 1 0 0
vn 0 0 1
vn -1 0 0
vn 0 1 0
vn 0 -1 0
usemtl m_045d0150-7f3e-996d-39a8-b6d4157e351e
f 12/28/7 15/27/7 13/26/7 10/25/7
f 11/32/8 12/31/8 10/30/8 9/29/8
f 16/36/9 11/35/9 9/34/9 14/33/9
f 15/40/10 16/39/10 14/38/10 13/37/10
f 14/44/11 9/43/11 10/42/11 13/41/11
f 15/48/12 12/47/12 11/46/12 16/45/12
o bone
v 0.24375000000000002 1.0583998861922561 0.2577805348796564
v 0.24375000000000002 1.0583998861922561 0.2577805348796564
v 0.24375000000000002 0.5815414108181426 0.4081334346317929
v 0.24375000000000002 0.5815414108181426 0.4081334346317929
v -0.25625 1.0583998861922561 0.2577805348796564
v -0.25625 1.0583998861922561 0.2577805348796564
v -0.25625 0.5815414108181426 0.4081334346317929
v -0.25625 0.5815414108181426 0.4081334346317929
vt 0.6015625 0.78125
vt 0.6640625 0.78125
vt 0.6640625 0.71875
vt 0.6015625 0.71875
vt 0.6015625 0.78125
vt 0.6015625 0.78125
vt 0.6015625 0.71875
vt 0.6015625 0.71875
vt 0.6640625 0.78125
vt 0.7265625 0.78125
vt 0.7265625 0.71875
vt 0.6640625 0.71875
vt 0.6640625 0.78125
vt 0.6640625 0.78125
vt 0.6640625 0.71875
vt 0.6640625 0.71875
vt 0.6640625 0.78125
vt 0.6015625 0.78125
vt 0.6015625 0.78125
vt 0.6640625 0.78125
vt 0.7265625 0.78125
vt 0.6640625 0.78125
vt 0.6640625 0.78125
vt 0.7265625 0.78125
vn 0 -0.30070579950427306 -0.9537169507482269
vn 1 0 0
vn 0 0.30070579950427306 0.9537169507482269
vn -1 0 0
vn 0 0.9537169507482269 -0.30070579950427306
vn 0 -0.9537169507482269 0.30070579950427306
usemtl m_045d0150-7f3e-996d-39a8-b6d4157e351e
f 20/52/13 23/51/13 21/50/13 18/49/13
f 19/56/14 20/55/14 18/54/14 17/53/14
f 24/60/15 19/59/15 17/58/15 22/57/15
f 23/64/16 24/63/16 22/62/16 21/61/16
f 22/68/17 17/67/17 18/66/17 21/65/17
f 23/72/18 20/71/18 19/70/18 24/69/18
o blink
v 0.25 1.625 -0.2500625
v 0.25 1.625 -0.2500625
v 0.25 1.125 -0.2500625
v 0.25 1.125 -0.2500625
v -0.25 1.625 -0.2500625
v -0.25 1.625 -0.2500625
v -0.25 1.125 -0.2500625
v -0.25 1.125 -0.2500625
vt 0.484375 1
vt 0.546875 1
vt 0.546875 0.9375
vt 0.484375 0.9375
vt 0.484375 1
vt 0.484375 1
vt 0.484375 0.9375
vt 0.484375 0.9375
vt 0.546875 1
vt 0.609375 1
vt 0.609375 0.9375
vt 0.546875 0.9375
vt 0.546875 1
vt 0.546875 1
vt 0.546875 0.9375
vt 0.546875 0.9375
vt 0.546875 1
vt 0.484375 1
vt 0.484375 1
vt 0.546875 1
vt 0.609375 1
vt 0.546875 1
vt 0.546875 1
vt 0.609375 1
vn 0 0 -1
vn 1 0 0
vn 0 0 1
vn -1 0 0
vn 0 1 0
vn 0 -1 0
usemtl m_045d0150-7f3e-996d-39a8-b6d4157e351e
f 28/76/19 31/75/19 29/74/19 26/73/19
f 27/80/20 28/79/20 26/78/20 25/77/20
f 32/84/21 27/83/21 25/82/21 30/81/21
f 31/88/22 32/87/22 30/86/22 29/85/22
f 30/92/23 25/91/23 26/90/23 29/89/23
f 31/96/24 28/95/24 27/94/24 32/93/24
o headbone31
v 0.09375 1.791750884541959 -0.20533979400114097
v 0.09375 1.791750884541959 -0.20533979400114097
v 0.09375 1.60709943085217 -0.23789882731369041
v 0.09375 1.60709943085217 -0.23789882731369041
v -0.09375 1.791750884541959 -0.20533979400114097
v -0.09375 1.791750884541959 -0.20533979400114097
v -0.09375 1.60709943085217 -0.23789882731369041
v -0.09375 1.60709943085217 -0.23789882731369041
vt 0.90625 0.984375
vt 0.9453125 0.984375
vt 0.9453125 0.9453125
vt 0.90625 0.9453125
vt 0.890625 0.984375
vt 0.90625 0.984375
vt 0.90625 0.9453125
vt 0.890625 0.9453125
vt 0.9609375 0.984375
vt 1 0.984375
vt 1 0.9453125
vt 0.9609375 0.9453125
vt 0.9453125 0.984375
vt 0.9609375 0.984375
vt 0.9609375 0.9453125
vt 0.9453125 0.9453125
vt 0.9453125 0.984375
vt 0.90625 0.984375
vt 0.90625 1
vt 0.9453125 1
vt 0.984375 1
vt 0.9453125 1
vt 0.9453125 0.984375
vt 0.984375 0.984375
vn 0 0.17364817766693033 -0.984807753012208
vn 1 0 0
vn 0 -0.17364817766693033 0.984807753012208
vn -1 0 0
vn 0 0.984807753012208 0.17364817766693033
vn 0 -0.984807753012208 -0.17364817766693033
usemtl m_045d0150-7f3e-996d-39a8-b6d4157e351e
f 36/100/25 39/99/25 37/98/25 34/97/25
f 35/104/26 36/103/26 34/102/26 33/101/26
f 40/108/27 35/107/27 33/106/27 38/105/27
f 39/112/28 40/111/28 38/110/28 37/109/28
f 38/116/29 33/115/29 34/114/29 37/113/29
f 39/120/30 36/119/30 35/118/30 40/117/30
o headbone31
v 0.265625 1.6187636305658593 0.32581573050350765
v 0.265625 1.7137274777274618 -0.21275100942504357
v 0.265625 1.4341121768760703 0.29325669719095815
v 0.265625 1.5290760240376728 -0.24531004273759302
v -0.265625 1.7137274777274618 -0.21275100942504357
v -0.265625 1.6187636305658593 0.32581573050350765
v -0.265625 1.5290760240376728 -0.24531004273759302
v -0.265625 1.4341121768760703 0.29325669719095815
vt 0.796875 0.1484375
vt 0.859375 0.1484375
vt 0.859375 0.125
vt 0.796875 0.125
vt 0.734375 0.1484375
vt 0.796875 0.1484375
vt 0.796875 0.125
vt 0.734375 0.125
vt 0.921875 0.1484375
vt 0.984375 0.1484375
vt 0.984375 0.125
vt 0.921875 0.125
vt 0.859375 0.1484375
vt 0.921875 0.1484375
vt 0.921875 0.125
vt 0.859375 0.125
vt 0.859375 0.1484375
vt 0.796875 0.1484375
vt 0.796875 0.2109375
vt 0.859375 0.2109375
vt 0.921875 0.2109375
vt 0.859375 0.2109375
vt 0.859375 0.1484375
vt 0.921875 0.1484375
vn 0 0.17364817766693033 -0.984807753012208
vn 1 0 0
vn 0 -0.17364817766693033 0.984807753012208
vn -1 0 0
vn 0 0.984807753012208 0.17364817766693033
vn 0 -0.984807753012208 -0.17364817766693033
usemtl m_045d0150-7f3e-996d-39a8-b6d4157e351e
f 44/124/31 47/123/31 45/122/31 42/121/31
f 43/128/32 44/127/32 42/126/32 41/125/32
f 48/132/33 43/131/33 41/130/33 46/129/33
f 47/136/34 48/135/34 46/134/34 45/133/34
f 46/140/35 41/139/35 42/138/35 45/137/35
f 47/144/36 44/143/36 43/142/36 48/141/36
o headbone50
v -0.09615204964714738 1.2852895183173434 -0.19781502635384776
v -0.09615204964714738 1.2852895183173434 -0.19781502635384776
v -0.2796382192557905 0.7033457364810357 -0.33308978506516207
v -0.2796382192557905 0.7033457364810357 -0.33308978506516207
v -0.21536666849067576 1.3228777432553775 -0.19781502635384776
v -0.21536666849067576 1.3228777432553775 -0.19781502635384776
v -0.39885283809931893 0.7409339614190699 -0.33308978506516207
v -0.39885283809931893 0.7409339614190699 -0.33308978506516207
vt 0.859375 0.078125
vt 0.875 0.078125
vt 0.875 0
vt 0.859375 0
vt 0.859375 0.078125
vt 0.859375 0.078125
vt 0.859375 0
vt 0.859375 0
vt 0.875 0.078125
vt 0.890625 0.078125
vt 0.890625 0
vt 0.875 0
vt 0.875 0.078125
vt 0.875 0.078125
vt 0.875 0
vt 0.875 0
vt 0.875 0.078125
vt 0.859375 0.078125
vt 0.859375 0.078125
vt 0.875 0.078125
vt 0.890625 0.078125
vt 0.875 0.078125
vt 0.875 0.078125
vt 0.890625 0.078125
vn 0.06508464715365345 0.2064221286261709 -0.9762960071199334
vn 0.953716950748227 -0.3007057995042732 -6.93889390390723e-18
vn -0.06508464715365345 -0.2064221286261709 0.9762960071199334
vn -0.953716950748227 0.3007057995042732 6.93889390390723e-18
vn 0.2935778713738291 0.9311100509380923 0.21643961393810293
vn -0.2935778713738291 -0.9311100509380923 -0.21643961393810293
usemtl m_045d0150-7f3e-996d-39a8-b6d4157e351e
f 52/148/37 55/147/37 53/146/37 50/145/37
f 51/152/38 52/151/38 50/150/38 49/149/38
f 56/156/39 51/155/39 49/154/39 54/153/39
f 55/160/40 56/159/40 54/158/40 53/157/40
f 54/164/41 49/163/41 50/162/41 53/161/41
f 55/168/42 52/167/42 51/166/42 56/165/42
o headbone51
v -0.21189081606076765 0.8843983474409396 -0.2688488113002361
v -0.20782302561366434 0.8972997304800753 -0.32986731174523193
v -0.24031137695759638 0.8303516360050877 -0.2821707744168119
v -0.23624358651049304 0.8432530190442233 -0.3431892748618077
v -0.2633385621704527 0.9259136658725944 -0.3275182902117766
v -0.2674063526175561 0.9130122828334587 -0.26649978976678074
v -0.29175912306728147 0.8718669544367424 -0.3408402533283524
v -0.2958269135143848 0.8589655713976068 -0.27982175288335653
vt 0.9140625 0.0078125
vt 0.921875 0.0078125
vt 0.921875 0
vt 0.9140625 0
vt 0.90625 0.0078125
vt 0.9140625 0.0078125
vt 0.9140625 0
vt 0.90625 0
vt 0.9296875 0.0078125
vt 0.9375 0.0078125
vt 0.9375 0
vt 0.9296875 0
vt 0.921875 0.0078125
vt 0.9296875 0.0078125
vt 0.9296875 0
vt 0.921875 0
vt 0.921875 0.0078125
vt 0.9140625 0.0078125
vt 0.9140625 0.015625
vt 0.921875 0.015625
vt 0.9296875 0.015625
vt 0.921875 0.015625
vt 0.921875 0.0078125
vt 0.9296875 0.0078125
vn 0.06508464715365346 0.206422128626171 -0.9762960071199335
vn 0.8882485849086141 -0.45782296628030505 -0.037584344535285495
vn -0.06508464715365346 -0.206422128626171 0.9762960071199335
vn -0.8882485849086141 0.45782296628030505 0.037584344535285495
vn 0.4547289743492589 0.8647473829736309 0.21315140986521292
vn -0.4547289743492589 -0.8647473829736309 -0.21315140986521292
usemtl m_045d0150-7f3e-996d-39a8-b6d4157e351e
f 60/172/43 63/171/43 61/170/43 58/169/43
f 59/176/44 60/175/44 58/174/44 57/173/44
f 64/180/45 59/179/45 57/178/45 62/177/45
f 63/184/46 64/183/46 62/182/46 61/181/46
f 62/188/47 57/187/47 58/186/47 61/185/47
f 63/192/48 60/191/48 59/190/48 64/189/48
o headbone51
v -0.29379301829083315 0.8654162629171746 -0.3103310031058545
v -0.29379301829083315 0.8654162629171746 -0.3103310031058545
v -0.3222135791876618 0.8113695514813226 -0.3236529662224303
v -0.3222135791876618 0.8113695514813226 -0.3236529662224303
v -0.3493085548476215 0.8940301983096935 -0.3079819815723991
v -0.3493085548476215 0.8940301983096935 -0.3079819815723991
v -0.3777291157444502 0.8399834868738416 -0.32130394468897494
v -0.3777291157444502 0.8399834868738416 -0.32130394468897494
vt 0.921875 0.03125
vt 0.9296875 0.03125
vt 0.9296875 0.0234375
vt 0.921875 0.0234375
vt 0.921875 0.03125
vt 0.921875 0.03125
vt 0.921875 0.0234375
vt 0.921875 0.0234375
vt 0.9296875 0.03125
vt 0.9375 0.03125
vt 0.9375 0.0234375
vt 0.9296875 0.0234375
vt 0.9296875 0.03125
vt 0.9296875 0.03125
vt 0.9296875 0.0234375
vt 0.9296875 0.0234375
vt 0.9296875 0.03125
vt 0.921875 0.03125
vt 0.921875 0.03125
vt 0.9296875 0.03125
vt 0.9375 0.03125
vt 0.9296875 0.03125
vt 0.9296875 0.03125
vt 0.9375 0.03125
vn 0.06508464715365346 0.206422128626171 -0.9762960071199335
vn 0.8882485849086141 -0.45782296628030505 -0.037584344535285495
vn -0.06508464715365346 -0.206422128626171 0.9762960071199335
vn -0.8882485849086141 0.45782296628030505 0.037584344535285495
vn 0.4547289743492589 0.8647473829736309 0.21315140986521292
vn -0.4547289743492589 -0.8647473829736309 -0.21315140986521292
usemtl m_045d0150-7f3e-996d-39a8-b6d4157e351e
f 68/196/49 71/195/49 69/194/49 66/193/49
f 67/200/50 68/199/50 66/198/50 65/197/50
f 72/204/51 67/203/51 65/202/51 70/201/51
f 71/208/52 72/207/52 70/206/52 69/205/52
f 70/212/53 65/211/53 66/210/53 69/209/53
f 71/216/54 68/215/54 67/214/54 72/213/54
o headbone52
v -0.2881074344871324 0.9195388095121224 -0.2664998953491391
v -0.28403964404002907 0.9324401925512581 -0.32751839579413494
v -0.2958265940705247 0.8589649713140463 -0.2798218584657149
v -0.2917588036234213 0.8718663543531819 -0.34084035891071074
v -0.3459275883927426 0.9408434324996819 -0.3298674173275903
v -0.349995378839846 0.9279420494605463 -0.26884891688259444
v -0.35364674797613493 0.8802695943016058 -0.3431893804441661
v -0.3577145384232383 0.8673682112624701 -0.28217087999917023
vt 0.9140625 0.0078125
vt 0.921875 0.0078125
vt 0.921875 0
vt 0.9140625 0
vt 0.90625 0.0078125
vt 0.9140625 0.0078125
vt 0.9140625 0
vt 0.90625 0
vt 0.9296875 0.0078125
vt 0.9375 0.0078125
vt 0.9375 0
vt 0.9296875 0
vt 0.921875 0.0078125
vt 0.9296875 0.0078125
vt 0.9296875 0
vt 0.921875 0
vt 0.921875 0.0078125
vt 0.9140625 0.0078125
vt 0.9140625 0.015625
vt 0.921875 0.015625
vt 0.9296875 0.015625
vt 0.921875 0.015625
vt 0.921875 0.0078125
vt 0.9296875 0.0078125
vn 0.06508464715365345 0.20642212862617096 -0.9762960071199335
vn 0.9902071096434178 -0.13445183917478037 0.03758434453528549
vn -0.06508464715365345 -0.20642212862617096 0.9762960071199335
vn -0.9902071096434178 0.13445183917478037 -0.03758434453528549
vn 0.12350655333427649 0.9691814111692194 0.2131514098652129
vn -0.12350655333427649 -0.9691814111692194 -0.2131514098652129
usemtl m_045d0150-7f3e-996d-39a8-b6d4157e351e
f 76/220/55 79/219/55 77/218/55 74/217/55
f 75/224/56 76/223/56 74/222/56 73/221/56
f 80/228/57 75/227/57 73/226/57 78/225/57
f 79/232/58 80/231/58 78/230/58 77/229/58
f 78/236/59 73/235/59 74/234/59 77/233/59
f 79/240/60 76/239/60 75/238/60 80/237/60
o headbone52
v -0.2319047544942594 0.8570124228851903 -0.3079820871547575
v -0.2319047544942594 0.8570124228851903 -0.3079820871547575
v -0.23962391407765168 0.7964385846871141 -0.32130405027133324
v -0.23962391407765168 0.7964385846871141 -0.32130405027133324
v -0.293792698846973 0.865415662833614 -0.3103311086882128
v -0.293792698846973 0.865415662833614 -0.3103311086882128
v -0.30151185843036526 0.8048418246355379 -0.32365307180478864
v -0.30151185843036526 0.8048418246355379 -0.32365307180478864
vt 0.921875 0.03125
vt 0.9296875 0.03125
vt 0.9296875 0.0234375
vt 0.921875 0.0234375
vt 0.921875 0.03125
vt 0.921875 0.03125
vt 0.921875 0.0234375
vt 0.921875 0.0234375
vt 0.9296875 0.03125
vt 0.9375 0.03125
vt 0.9375 0.0234375
vt 0.9296875 0.0234375
vt 0.9296875 0.03125
vt 0.9296875 0.03125
vt 0.9296875 0.0234375
vt 0.9296875 0.0234375
vt 0.9296875 0.03125
vt 0.921875 0.03125
vt 0.921875 0.03125
vt 0.9296875 0.03125
vt 0.9375 0.03125
vt 0.9296875 0.03125
vt 0.9296875 0.03125
vt 0.9375 0.03125
vn 0.06508464715365345 0.20642212862617096 -0.9762960071199335
vn 0.9902071096434178 -0.13445183917478037 0.03758434453528549
vn -0.06508464715365345 -0.20642212862617096 0.9762960071199335
vn -0.9902071096434178 0.13445183917478037 -0.03758434453528549
vn 0.12350655333427649 0.9691814111692194 0.2131514098652129
vn -0.12350655333427649 -0.9691814111692194 -0.2131514098652129
usemtl m_045d0150-7f3e-996d-39a8-b6d4157e351e
f 84/244/61 87/243/61 85/242/61 82/241/61
f 83/248/62 84/247/62 82/246/62 81/245/62
f 88/252/63 83/251/63 81/250/63 86/249/63
f 87/256/64 88/255/64 86/254/64 85/253/64
f 86/260/65 81/259/65 82/258/65 85/257/65
f 87/264/66 84/263/66 83/262/66 88/261/66
o headbone54
v 0.18265088310212532 1.3227066027592074 -0.1948029656629186
v 0.18265088310212532 1.3227066027592074 -0.1948029656629186
v 0.3481700335667619 0.7309194866071755 -0.30889249185146284
v 0.3481700335667619 0.7309194866071755 -0.30889249185146284
v 0.06214847633480075 1.2907764069503984 -0.20400256124606103
v 0.06214847633480075 1.2907764069503984 -0.20400256124606103
v 0.22766762679943733 0.6989892907983667 -0.31809208743460526
v 0.22766762679943733 0.6989892907983667 -0.31809208743460526
vt 0.875 0.078125
vt 0.859375 0.078125
vt 0.859375 0
vt 0.875 0
vt 0.875 0.078125
vt 0.875 0.078125
vt 0.875 0
vt 0.875 0
vt 0.890625 0.078125
vt 0.875 0.078125
vt 0.875 0
vt 0.890625 0
vt 0.859375 0.078125
vt 0.859375 0.078125
vt 0.859375 0
vt 0.859375 0
vt 0.859375 0.078125
vt 0.875 0.078125
vt 0.875 0.078125
vt 0.859375 0.078125
vt 0.875 0.078125
vt 0.890625 0.078125
vt 0.890625 0.078125
vt 0.875 0.078125
vn 0.0230566557309236 0.19546587824900158 -0.9804394326356178
vn 0.9640192541385966 0.25544156647047084 0.0735967646651397
vn -0.0230566557309236 -0.19546587824900158 0.9804394326356178
vn -0.9640192541385966 -0.25544156647047084 -0.0735967646651397
vn -0.2648306407434185 0.946859385843251 0.1825432419016707
vn 0.2648306407434185 -0.946859385843251 -0.1825432419016707
usemtl m_045d0150-7f3e-996d-39a8-b6d4157e351e
f 92/268/67 95/267/67 93/266/67 90/265/67
f 91/272/68 92/271/68 90/270/68 89/269/68
f 96/276/69 91/275/69 89/274/69 94/273/69
f 95/280/70 96/279/70 94/278/70 93/277/70
f 94/284/71 89/283/71 90/282/71 93/281/71
f 95/288/72 92/287/72 91/286/72 96/285/72
o headbone55
v 0.30652301536989013 0.9223550853917858 -0.25234691683849136
v 0.3079640563530729 0.9345717027823484 -0.31362438137821746
v 0.31236095796503444 0.8613031212224861 -0.26438128833543084
v 0.31380199894821714 0.8735197386130487 -0.325658752875157
v 0.24575399424781058 0.9291254260171488 -0.31617315407429286
v 0.24431295326462785 0.9169088086265862 -0.25489568953456676
v 0.2515919368429549 0.8680734618478491 -0.32820752557123234
v 0.2501508958597721 0.8558568444572865 -0.2669300610315062
vt 0.9140625 0.0078125
vt 0.921875 0.0078125
vt 0.921875 0
vt 0.9140625 0
vt 0.90625 0.0078125
vt 0.9140625 0.0078125
vt 0.9140625 0
vt 0.90625 0
vt 0.9296875 0.0078125
vt 0.9375 0.0078125
vt 0.9375 0
vt 0.9296875 0
vt 0.921875 0.0078125
vt 0.9296875 0.0078125
vt 0.9296875 0
vt 0.921875 0
vt 0.921875 0.0078125
vt 0.9140625 0.0078125
vt 0.9140625 0.015625
vt 0.921875 0.015625
vt 0.9296875 0.015625
vt 0.921875 0.015625
vt 0.921875 0.0078125
vt 0.9296875 0.0078125
vn 0.0230566557309236 0.1954658782490016 -0.980439432635618
vn 0.9953609936841964 0.08714042824319358 0.04078036313720573
vn -0.0230566557309236 -0.1954658782490016 0.980439432635618
vn -0.9953609936841964 -0.08714042824319358 -0.04078036313720573
vn -0.0934070815223086 0.9768314267087947 0.19254994395103173
vn 0.0934070815223086 -0.9768314267087947 -0.19254994395103173
usemtl m_045d0150-7f3e-996d-39a8-b6d4157e351e
f 100/292/73 103/291/73 101/290/73 98/289/73
f 99/296/74 100/295/74 98/294/74 97/293/74
f 104/300/75 99/299/75 97/298/75 102/297/75
f 103/304/76 104/303/76 102/302/76 101/301/76
f 102/308/77 97/307/77 98/306/77 101/305/77
f 103/312/78 100/311/78 99/310/78 104/309/78
o headbone55
v 0.2508714163513635 0.8619651531525677 -0.2975687933013693
v 0.2508714163513635 0.8619651531525677 -0.2975687933013693
v 0.2567093589465078 0.8009131889832681 -0.30960316479830874
v 0.2567093589465078 0.8009131889832681 -0.30960316479830874
v 0.18866135424610125 0.8565188763873681 -0.30011756599744466
v 0.18866135424610125 0.8565188763873681 -0.30011756599744466
v 0.19449929684124553 0.7954669122180685 -0.31215193749438414
v 0.19449929684124553 0.7954669122180685 -0.31215193749438414
vt 0.921875 0.03125
vt 0.9296875 0.03125
vt 0.9296875 0.0234375
vt 0.921875 0.0234375
vt 0.921875 0.03125
vt 0.921875 0.03125
vt 0.921875 0.0234375
vt 0.921875 0.0234375
vt 0.9296875 0.03125
vt 0.9375 0.03125
vt 0.9375 0.0234375
vt 0.9296875 0.0234375
vt 0.9296875 0.03125
vt 0.9296875 0.03125
vt 0.9296875 0.0234375
vt 0.9296875 0.0234375
vt 0.9296875 0.03125
vt 0.921875 0.03125
vt 0.921875 0.03125
vt 0.9296875 0.03125
vt 0.9375 0.03125
vt 0.9296875 0.03125
vt 0.9296875 0.03125
vt 0.9375 0.03125
vn 0.0230566557309236 0.1954658782490016 -0.980439432635618
vn 0.9953609936841964 0.08714042824319358 0.04078036313720573
vn -0.0230566557309236 -0.1954658782490016 0.980439432635618
vn -0.9953609936841964 -0.08714042824319358 -0.04078036313720573
vn -0.0934070815223086 0.9768314267087947 0.19254994395103173
vn 0.0934070815223086 -0.9768314267087947 -0.19254994395103173
usemtl m_045d0150-7f3e-996d-39a8-b6d4157e351e
f 108/316/79 111/315/79 109/314/79 106/313/79
f 107/320/80 108/319/80 106/318/80 105/317/80
f 112/324/81 107/323/81 105/322/81 110/321/81
f 111/328/82 112/327/82 110/326/82 109/325/82
f 110/332/83 105/331/83 106/330/83 109/329/83
f 111/336/84 108/335/84 107/334/84 112/333/84
o headbone73
v 0.22338879926267302 0.9113636602756692 -0.25649326737117656
v 0.22482984024585573 0.9235802776662317 -0.31777073191090266
v 0.2501517651974424 0.8558563164211175 -0.2669301458598306
v 0.25159280618062513 0.86807293381168 -0.3282076103995567
v 0.168368197910026 0.8975814500437185 -0.3242817922696829
v 0.1669271569268433 0.8853648326531559 -0.26300432772995674
v 0.19513116384479534 0.8420741061891668 -0.33471867075833694
v 0.19369012286161263 0.8298574887986042 -0.2734412062186108
vt 0.9140625 0.0078125
vt 0.921875 0.0078125
vt 0.921875 0
vt 0.9140625 0
vt 0.90625 0.0078125
vt 0.9140625 0.0078125
vt 0.9140625 0
vt 0.90625 0
vt 0.9296875 0.0078125
vt 0.9375 0.0078125
vt 0.9375 0
vt 0.9296875 0
vt 0.921875 0.0078125
vt 0.9296875 0.0078125
vt 0.9296875 0
vt 0.921875 0
vt 0.921875 0.0078125
vt 0.9140625 0.0078125
vt 0.9140625 0.015625
vt 0.921875 0.015625
vt 0.9296875 0.015625
vt 0.921875 0.015625
vt 0.921875 0.0078125
vt 0.9296875 0.0078125
vn 0.02305665573092361 0.19546587824900152 -0.9804394326356178
vn 0.903386277373276 0.4159812419602124 0.10417696574048325
vn -0.02305665573092361 -0.19546587824900152 0.9804394326356178
vn -0.903386277373276 -0.4159812419602124 -0.10417696574048325
vn -0.4282074549563101 0.8881175016728281 0.16699005581846485
vn 0.4282074549563101 -0.8881175016728281 -0.16699005581846485
usemtl m_045d0150-7f3e-996d-39a8-b6d4157e351e
f 116/340/85 119/339/85 117/338/85 114/337/85
f 115/344/86 116/343/86 114/342/86 113/341/86
f 120/348/87 115/347/87 113/346/87 118/345/87
f 119/352/88 120/351/88 118/350/88 117/349/88
f 118/356/89 113/355/89 114/354/89 117/353/89
f 119/360/90 116/359/90 115/358/90 120/357/90
o headbone73
v 0.3073339280248635 0.887963452738912 -0.29105781777091344
v 0.3073339280248635 0.887963452738912 -0.29105781777091344
v 0.3340968939596328 0.8324561088843602 -0.30149469625956754
v 0.3340968939596328 0.8324561088843602 -0.30149469625956754
v 0.25087228568903375 0.8619646251163987 -0.2975688781296937
v 0.25087228568903375 0.8619646251163987 -0.2975688781296937
v 0.2776352516238031 0.8064572812618469 -0.3080057566183477
v 0.2776352516238031 0.8064572812618469 -0.3080057566183477
vt 0.921875 0.03125
vt 0.9296875 0.03125
vt 0.9296875 0.0234375
vt 0.921875 0.0234375
vt 0.921875 0.03125
vt 0.921875 0.03125
vt 0.921875 0.0234375
vt 0.921875 0.0234375
vt 0.9296875 0.03125
vt 0.9375 0.03125
vt 0.9375 0.0234375
vt 0.9296875 0.0234375
vt 0.9296875 0.03125
vt 0.9296875 0.03125
vt 0.9296875 0.0234375
vt 0.9296875 0.0234375
vt 0.9296875 0.03125
vt 0.921875 0.03125
vt 0.921875 0.03125
vt 0.9296875 0.03125
vt 0.9375 0.03125
vt 0.9296875 0.03125
vt 0.9296875 0.03125
vt 0.9375 0.03125
vn 0.02305665573092361 0.19546587824900152 -0.9804394326356178
vn 0.903386277373276 0.4159812419602124 0.10417696574048325
vn -0.02305665573092361 -0.19546587824900152 0.9804394326356178
vn -0.903386277373276 -0.4159812419602124 -0.10417696574048325
vn -0.4282074549563101 0.8881175016728281 0.16699005581846485
vn 0.4282074549563101 -0.8881175016728281 -0.16699005581846485
usemtl m_045d0150-7f3e-996d-39a8-b6d4157e351e
f 124/364/91 127/363/91 125/362/91 122/361/91
f 123/368/92 124/367/92 122/366/92 121/365/92
f 128/372/93 123/371/93 121/370/93 126/369/93
f 127/376/94 128/375/94 126/374/94 125/373/94
f 126/380/95 121/379/95 122/378/95 125/377/95
f 127/384/96 124/383/96 123/382/96 128/381/96
o armLeft
v -0.21391352929556248 1.0058561321640815 0.0625
v -0.21391352929556248 1.0058561321640815 -0.0625
v -0.42522266016591215 0.5527022386457566 0.0625
v -0.42522266016591215 0.5527022386457566 -0.0625
v -0.3272020026751437 1.058683414881669 -0.0625
v -0.3272020026751437 1.058683414881669 0.0625
v -0.5385111335454934 0.605529521363344 -0.0625
v -0.5385111335454934 0.605529521363344 0.0625
vt 0.109375 0.546875
vt 0.125 0.546875
vt 0.125 0.484375
vt 0.109375 0.484375
vt 0.09375 0.546875
vt 0.109375 0.546875
vt 0.109375 0.484375
vt 0.09375 0.484375
vt 0.140625 0.546875
vt 0.15625 0.546875
vt 0.15625 0.484375
vt 0.140625 0.484375
vt 0.125 0.546875
vt 0.140625 0.546875
vt 0.140625 0.484375
vt 0.125 0.484375
vt 0.125 0.546875
vt 0.109375 0.546875
vt 0.109375 0.5625
vt 0.125 0.5625
vt 0.140625 0.5625
vt 0.125 0.5625
vt 0.125 0.546875
vt 0.140625 0.546875
vn 0 0 -1
vn 0.9063077870366499 -0.42261826174069944 0
vn 0 0 1
vn -0.9063077870366499 0.42261826174069944 0
vn 0.42261826174069944 0.9063077870366499 0
vn -0.42261826174069944 -0.9063077870366499 0
usemtl m_045d0150-7f3e-996d-39a8-b6d4157e351e
f 132/388/97 135/387/97 133/386/97 130/385/97
f 131/392/98 132/391/98 130/390/98 129/389/98
f 136/396/99 131/395/99 129/394/99 134/393/99
f 135/400/100 136/399/100 134/398/100 133/397/100
f 134/404/101 129/403/101 130/402/101 133/401/101
f 135/408/102 132/407/102 131/406/102 136/405/102
o armLeft
v -0.15087198178701494 1.0523166077075752 0.1
v -0.15087198178701494 1.0523166077075752 -0.1
v -0.2618092754939486 0.8144108136104545 0.1
v -0.2618092754939486 0.8144108136104545 -0.1
v -0.33213353919434496 1.136840260055715 -0.1
v -0.33213353919434496 1.136840260055715 0.1
v -0.44307083290127863 0.8989344659585945 -0.1
v -0.44307083290127863 0.8989344659585945 0.1
vt 0.2734375 0.5546875
vt 0.296875 0.5546875
vt 0.296875 0.5234375
vt 0.2734375 0.5234375
vt 0.25 0.5546875
vt 0.2734375 0.5546875
vt 0.2734375 0.5234375
vt 0.25 0.5234375
vt 0.3203125 0.5546875
vt 0.34375 0.5546875
vt 0.34375 0.5234375
vt 0.3203125 0.5234375
vt 0.296875 0.5546875
vt 0.3203125 0.5546875
vt 0.3203125 0.5234375
vt 0.296875 0.5234375
vt 0.296875 0.5546875
vt 0.2734375 0.5546875
vt 0.2734375 0.578125
vt 0.296875 0.578125
vt 0.3203125 0.578125
vt 0.296875 0.578125
vt 0.296875 0.5546875
vt 0.3203125 0.5546875
vn 0 0 -1
vn 0.9063077870366499 -0.42261826174069944 0
vn 0 0 1
vn -0.9063077870366499 0.42261826174069944 0
vn 0.42261826174069944 0.9063077870366499 0
vn -0.42261826174069944 -0.9063077870366499 0
usemtl m_045d0150-7f3e-996d-39a8-b6d4157e351e
f 140/412/103 143/411/103 141/410/103 138/409/103
f 139/416/104 140/415/104 138/414/104 137/413/104
f 144/420/105 139/419/105 137/418/105 142/417/105
f 143/424/106 144/423/106 142/422/106 141/421/106
f 142/428/107 137/427/107 138/426/107 141/425/107
f 143/432/108 140/431/108 139/430/108 144/429/108
o armRight
v 0.3272020026751437 1.058683414881669 0.0625
v 0.3272020026751437 1.058683414881669 -0.0625
v 0.5385111335454934 0.605529521363344 0.0625
v 0.5385111335454934 0.605529521363344 -0.0625
v 0.21391352929556248 1.0058561321640815 -0.0625
v 0.21391352929556248 1.0058561321640815 0.0625
v 0.42522266016591215 0.5527022386457566 -0.0625
v 0.42522266016591215 0.5527022386457566 0.0625
vt 0.453125 0.8046875
vt 0.46875 0.8046875
vt 0.46875 0.7421875
vt 0.453125 0.7421875
vt 0.4375 0.8046875
vt 0.453125 0.8046875
vt 0.453125 0.7421875
vt 0.4375 0.7421875
vt 0.484375 0.8046875
vt 0.5 0.8046875
vt 0.5 0.7421875
vt 0.484375 0.7421875
vt 0.46875 0.8046875
vt 0.484375 0.8046875
vt 0.484375 0.7421875
vt 0.46875 0.7421875
vt 0.46875 0.8046875
vt 0.453125 0.8046875
vt 0.453125 0.8203125
vt 0.46875 0.8203125
vt 0.484375 0.8203125
vt 0.46875 0.8203125
vt 0.46875 0.8046875
vt 0.484375 0.8046875
vn 0 0 -1
vn 0.9063077870366499 0.42261826174069944 0
vn 0 0 1
vn -0.9063077870366499 -0.42261826174069944 0
vn -0.42261826174069944 0.9063077870366499 0
vn 0.42261826174069944 -0.9063077870366499 0
usemtl m_045d0150-7f3e-996d-39a8-b6d4157e351e
f 148/436/109 151/435/109 149/434/109 146/433/109
f 147/440/110 148/439/110 146/438/110 145/437/110
f 152/444/111 147/443/111 145/442/111 150/441/111
f 151/448/112 152/447/112 150/446/112 149/445/112
f 150/452/113 145/451/113 146/450/113 149/449/113
f 151/456/114 148/455/114 147/454/114 152/453/114
o armRight
v 0.33213353919434496 1.136840260055715 0.1
v 0.33213353919434496 1.136840260055715 -0.1
v 0.44307083290127863 0.8989344659585945 0.1
v 0.44307083290127863 0.8989344659585945 -0.1
v 0.15087198178701494 1.0523166077075752 -0.1
v 0.15087198178701494 1.0523166077075752 0.1
v 0.2618092754939486 0.8144108136104545 -0.1
v 0.2618092754939486 0.8144108136104545 0.1
vt 0.2734375 0.5546875
vt 0.296875 0.5546875
vt 0.296875 0.5234375
vt 0.2734375 0.5234375
vt 0.25 0.5546875
vt 0.2734375 0.5546875
vt 0.2734375 0.5234375
vt 0.25 0.5234375
vt 0.3203125 0.5546875
vt 0.34375 0.5546875
vt 0.34375 0.5234375
vt 0.3203125 0.5234375
vt 0.296875 0.5546875
vt 0.3203125 0.5546875
vt 0.3203125 0.5234375
vt 0.296875 0.5234375
vt 0.296875 0.5546875
vt 0.2734375 0.5546875
vt 0.2734375 0.578125
vt 0.296875 0.578125
vt 0.3203125 0.578125
vt 0.296875 0.578125
vt 0.296875 0.5546875
vt 0.3203125 0.5546875
vn 0 0 -1
vn 0.9063077870366499 0.42261826174069944 0
vn 0 0 1
vn -0.9063077870366499 -0.42261826174069944 0
vn -0.42261826174069944 0.9063077870366499 0
vn 0.42261826174069944 -0.9063077870366499 0
usemtl m_045d0150-7f3e-996d-39a8-b6d4157e351e
f 156/460/115 159/459/115 157/458/115 154/457/115
f 155/464/116 156/463/116 154/462/116 153/461/116
f 160/468/117 155/467/117 153/466/117 158/465/117
f 159/472/118 160/471/118 158/470/118 157/469/118
f 158/476/119 153/475/119 154/474/119 157/473/119
f 159/480/120 156/479/120 155/478/120 160/477/120
o body
v 0.1875 1.125 0.1875
v 0.1875 1.125 -0.1875
v 0.1875 0.75 0.1875
v 0.1875 0.75 -0.1875
v -0.1875 1.125 -0.1875
v -0.1875 1.125 0.1875
v -0.1875 0.75 -0.1875
v -0.1875 0.75 0.1875
vt 0.296875 0.953125
vt 0.34375 0.953125
vt 0.34375 0.90625
vt 0.296875 0.90625
vt 0.25 0.953125
vt 0.296875 0.953125
vt 0.296875 0.90625
vt 0.25 0.90625
vt 0.390625 0.953125
vt 0.4375 0.953125
vt 0.4375 0.90625
vt 0.390625 0.90625
vt 0.34375 0.953125
vt 0.390625 0.953125
vt 0.390625 0.90625
vt 0.34375 0.90625
vt 0.34375 0.953125
vt 0.296875 0.953125
vt 0.296875 1
vt 0.34375 1
vt 0.390625 1
vt 0.34375 1
vt 0.34375 0.953125
vt 0.390625 0.953125
vn 0 0 -1
vn 1 0 0
vn 0 0 1
vn -1 0 0
vn 0 1 0
vn 0 -1 0
usemtl m_045d0150-7f3e-996d-39a8-b6d4157e351e
f 164/484/121 167/483/121 165/482/121 162/481/121
f 163/488/122 164/487/122 162/486/122 161/485/122
f 168/492/123 163/491/123 161/490/123 166/489/123
f 167/496/124 168/495/124 166/494/124 165/493/124
f 166/500/125 161/499/125 162/498/125 165/497/125
f 167/504/126 164/503/126 163/502/126 168/501/126
o body
v 0.21875 0.75 0.203125
v 0.21875 0.75 -0.203125
v 0.21875 0.6875 0.203125
v 0.21875 0.6875 -0.203125
v -0.21875 0.75 -0.203125
v -0.21875 0.75 0.203125
v -0.21875 0.6875 -0.203125
v -0.21875 0.6875 0.203125
vt 0.71875 0.953125
vt 0.7734375 0.953125
vt 0.7734375 0.9453125
vt 0.71875 0.9453125
vt 0.671875 0.953125
vt 0.71875 0.953125
vt 0.71875 0.9453125
vt 0.671875 0.9453125
vt 0.8203125 0.953125
vt 0.875 0.953125
vt 0.875 0.9453125
vt 0.8203125 0.9453125
vt 0.7734375 0.953125
vt 0.8203125 0.953125
vt 0.8203125 0.9453125
vt 0.7734375 0.9453125
vt 0.7734375 0.953125
vt 0.71875 0.953125
vt 0.71875 1
vt 0.7734375 1
vt 0.828125 1
vt 0.7734375 1
vt 0.7734375 0.953125
vt 0.828125 0.953125
vn 0 0 -1
vn 1 0 0
vn 0 0 1
vn -1 0 0
vn 0 1 0
vn 0 -1 0
usemtl m_045d0150-7f3e-996d-39a8-b6d4157e351e
f 172/508/127 175/507/127 173/506/127 170/505/127
f 171/512/128 172/511/128 170/510/128 169/509/128
f 176/516/129 171/515/129 169/514/129 174/513/129
f 175/520/130 176/519/130 174/518/130 173/517/130
f 174/524/131 169/523/131 170/522/131 173/521/131
f 175/528/132 172/527/132 171/526/132 176/525/132
o bone166
v 0.21875 0.640625 0.125
v 0.21875 0.640625 -0.125
v 0.21875 0.515625 0.125
v 0.21875 0.515625 -0.125
v -0.21875 0.640625 -0.125
v -0.21875 0.640625 0.125
v -0.21875 0.515625 -0.125
v -0.21875 0.515625 0.125
vt 0.03125 0.6484375
vt 0.0859375 0.6484375
vt 0.0859375 0.6328125
vt 0.03125 0.6328125
vt 0 0.6484375
vt 0.03125 0.6484375
vt 0.03125 0.6328125
vt 0 0.6328125
vt 0.1171875 0.6484375
vt 0.171875 0.6484375
vt 0.171875 0.6328125
vt 0.1171875 0.6328125
vt 0.0859375 0.6484375
vt 0.1171875 0.6484375
vt 0.1171875 0.6328125
vt 0.0859375 0.6328125
vt 0.0859375 0.6484375
vt 0.03125 0.6484375
vt 0.03125 0.6796875
vt 0.0859375 0.6796875
vt 0.140625 0.6796875
vt 0.0859375 0.6796875
vt 0.0859375 0.6484375
vt 0.140625 0.6484375
vn 0 0 -1
vn 1 0 0
vn 0 0 1
vn -1 0 0
vn 0 1 0
vn 0 -1 0
usemtl m_045d0150-7f3e-996d-39a8-b6d4157e351e
f 180/532/133 183/531/133 181/530/133 178/529/133
f 179/536/134 180/535/134 178/534/134 177/533/134
f 184/540/135 179/539/135 177/538/135 182/537/135
f 183/544/136 184/543/136 182/542/136 181/541/136
f 182/548/137 177/547/137 178/546/137 181/545/137
f 183/552/138 180/551/138 179/550/138 184/549/138
o bone58
v 0.15625 0.7232415625717208 0.1867524917145305
v 0.15625 0.7232415625717208 0.1867524917145305
v 0.15625 0.1692872015023537 0.28442959165217885
v 0.15625 0.1692872015023537 0.28442959165217885
v -0.15625 0.7232415625717208 0.1867524917145305
v -0.15625 0.7232415625717208 0.1867524917145305
v -0.15625 0.1692872015023537 0.28442959165217885
v -0.15625 0.1692872015023537 0.28442959165217885
vt 0 0.0703125
vt 0.0390625 0.0703125
vt 0.0390625 0
vt 0 0
vt 0 0.0703125
vt 0 0.0703125
vt 0 0
vt 0 0
vt 0.0390625 0.0703125
vt 0.078125 0.0703125
vt 0.078125 0
vt 0.0390625 0
vt 0.0390625 0.0703125
vt 0.0390625 0.0703125
vt 0.0390625 0
vt 0.0390625 0
vt 0.0390625 0.0703125
vt 0 0.0703125
vt 0 0.0703125
vt 0.0390625 0.0703125
vt 0.078125 0.0703125
vt 0.0390625 0.0703125
vt 0.0390625 0.0703125
vt 0.078125 0.0703125
vn 0 -0.17364817766693033 -0.984807753012208
vn 1 0 0
vn 0 0.17364817766693033 0.984807753012208
vn -1 0 0
vn 0 0.984807753012208 -0.17364817766693033
vn 0 -0.984807753012208 0.17364817766693033
usemtl m_045d0150-7f3e-996d-39a8-b6d4157e351e
f 188/556/139 191/555/139 189/554/139 186/553/139
f 187/560/140 188/559/140 186/558/140 185/557/140
f 192/564/141 187/563/141 185/562/141 190/561/141
f 191/568/142 192/567/142 190/566/142 189/565/142
f 190/572/143 185/571/143 186/570/143 189/569/143
f 191/576/144 188/575/144 187/574/144 192/573/144
o bone59
v 0.21524899414325643 0.738846710658605 0.1839374189056189
v 0.21524899414325643 0.738846710658605 0.1839374189056189
v 0.3114859584386208 0.19305998413039982 0.280174344505094
v 0.3114859584386208 0.19305998413039982 0.280174344505094
v 0.030513538633007417 0.7072550744704604 0.18950787673031472
v 0.030513538633007417 0.7072550744704604 0.18950787673031472
v 0.12675050292837176 0.16146834794225523 0.2857448023297898
v 0.12675050292837176 0.16146834794225523 0.2857448023297898
vt 0.1171875 0.0703125
vt 0.09375 0.0703125
vt 0.09375 0
vt 0.1171875 0
vt 0.1171875 0.0703125
vt 0.1171875 0.0703125
vt 0.1171875 0
vt 0.1171875 0
vt 0.140625 0.0703125
vt 0.1171875 0.0703125
vt 0.1171875 0
vt 0.140625 0
vt 0.09375 0.0703125
vt 0.09375 0.0703125
vt 0.09375 0
vt 0.09375 0
vt 0.09375 0.0703125
vt 0.1171875 0.0703125
vt 0.1171875 0.0703125
vt 0.09375 0.0703125
vt 0.1171875 0.0703125
vt 0.140625 0.0703125
vt 0.140625 0.0703125
vt 0.1171875 0.0703125
vn 0 -0.1736481776669303 -0.984807753012208
vn 0.9852557627213282 0.1684887263367713 -0.029709108398377704
vn 0 0.1736481776669303 0.984807753012208
vn -0.9852557627213282 -0.1684887263367713 0.029709108398377704
vn -0.17108793652509213 0.9702875138279203 -0.17108786773240015
vn 0.17108793652509213 -0.9702875138279203 0.17108786773240015
usemtl m_045d0150-7f3e-996d-39a8-b6d4157e351e
f 196/580/145 199/579/145 197/578/145 194/577/145
f 195/584/146 196/583/146 194/582/146 193/581/146
f 200/588/147 195/587/147 193/586/147 198/585/147
f 199/592/148 200/591/148 198/590/148 197/589/148
f 198/596/149 193/595/149 194/594/149 197/593/149
f 199/600/150 196/599/150 195/598/150 200/597/150
o bone60
v -0.030513538633007417 0.7072767804926687 0.18963097769944123
v -0.030513538633007417 0.7072767804926687 0.18963097769944123
v -0.12675050292837176 0.1614900539644636 0.2858679032989163
v -0.12675050292837176 0.1614900539644636 0.2858679032989163
v -0.21524899414325643 0.7388684166808135 0.18406051987474542
v -0.21524899414325643 0.7388684166808135 0.18406051987474542
v -0.3114859584386208 0.19308169015260818 0.28029744547422053
v -0.3114859584386208 0.19308169015260818 0.28029744547422053
vt 0.09375 0.0703125
vt 0.1171875 0.0703125
vt 0.1171875 0
vt 0.09375 0
vt 0.09375 0.0703125
vt 0.09375 0.0703125
vt 0.09375 0
vt 0.09375 0
vt 0.1171875 0.0703125
vt 0.140625 0.0703125
vt 0.140625 0
vt 0.1171875 0
vt 0.1171875 0.0703125
vt 0.1171875 0.0703125
vt 0.1171875 0
vt 0.1171875 0
vt 0.1171875 0.0703125
vt 0.09375 0.0703125
vt 0.09375 0.0703125
vt 0.1171875 0.0703125
vt 0.140625 0.0703125
vt 0.1171875 0.0703125
vt 0.1171875 0.0703125
vt 0.140625 0.0703125
vn 0 -0.1736481776669303 -0.984807753012208
vn 0.9852557627213282 -0.1684887263367713 0.029709108398377704
vn 0 0.1736481776669303 0.984807753012208
vn -0.9852557627213282 0.1684887263367713 -0.029709108398377704
vn 0.17108793652509213 0.9702875138279203 -0.17108786773240015
vn -0.17108793652509213 -0.9702875138279203 0.17108786773240015
usemtl m_045d0150-7f3e-996d-39a8-b6d4157e351e
f 204/604/151 207/603/151 205/602/151 202/601/151
f 203/608/152 204/607/152 202/606/152 201/605/152
f 208/612/153 203/611/153 201/610/153 206/609/153
f 207/616/154 208/615/154 206/614/154 205/613/154
f 206/620/155 201/619/155 202/618/155 205/617/155
f 207/624/156 204/623/156 203/622/156 208/621/156
o bone62
v 0.21800249171453054 0.7232415625717208 -0.15624999999999994
v 0.21800249171453054 0.7232415625717208 -0.15624999999999994
v 0.27226754723544627 0.4154891397554058 -0.15624999999999994
v 0.27226754723544627 0.4154891397554058 -0.15624999999999994
v 0.21800249171453048 0.7232415625717208 0.15625000000000006
v 0.21800249171453048 0.7232415625717208 0.15625000000000006
v 0.2722675472354462 0.4154891397554058 0.15625000000000006
v 0.2722675472354462 0.4154891397554058 0.15625000000000006
vt 0.078125 0.109375
vt 0.1171875 0.109375
vt 0.1171875 0.0703125
vt 0.078125 0.0703125
vt 0.078125 0.109375
vt 0.078125 0.109375
vt 0.078125 0.0703125
vt 0.078125 0.0703125
vt 0.1171875 0.109375
vt 0.15625 0.109375
vt 0.15625 0.0703125
vt 0.1171875 0.0703125
vt 0.1171875 0.109375
vt 0.1171875 0.109375
vt 0.1171875 0.0703125
vt 0.1171875 0.0703125
vt 0.1171875 0.109375
vt 0.078125 0.109375
vt 0.078125 0.109375
vt 0.1171875 0.109375
vt 0.15625 0.109375
vt 0.1171875 0.109375
vt 0.1171875 0.109375
vt 0.15625 0.109375
vn -0.984807753012208 -0.17364817766693033 -2.1867124844470354e-16
vn 2.220446049250313e-16 0 -1
vn 0.984807753012208 0.17364817766693033 2.1867124844470354e-16
vn -2.220446049250313e-16 0 1
vn -0.17364817766693033 0.984807753012208 -3.855764100600519e-17
vn 0.17364817766693033 -0.984807753012208 3.855764100600519e-17
usemtl m_045d0150-7f3e-996d-39a8-b6d4157e351e
f 212/628/157 215/627/157 213/626/157 210/625/157
f 211/632/158 212/631/158 210/630/158 209/629/158
f 216/636/159 211/635/159 209/634/159 214/633/159
f 215/640/160 216/639/160 214/638/160 213/637/160
f 214/644/161 209/643/161 210/642/161 213/641/161
f 215/648/162 212/647/162 211/646/162 216/645/162
o bone63
v 0.21611582854306813 0.733581437960581 -0.18445975155821492
v 0.21611582854306813 0.733581437960581 -0.18445975155821492
v 0.2909667706759932 0.3090806506608659 -0.25931072378794273
v 0.2909667706759932 0.3090806506608659 -0.25931072378794273
v 0.218901057455416 0.7177856198665087 -0.0920920238030904
v 0.218901057455416 0.7177856198665087 -0.0920920238030904
v 0.2937519995883411 0.29328483256679355 -0.1669429960328182
v 0.2937519995883411 0.29328483256679355 -0.1669429960328182
vt 0.140625 0.0546875
vt 0.1484375 0.0546875
vt 0.1484375 0
vt 0.140625 0
vt 0.140625 0.0546875
vt 0.140625 0.0546875
vt 0.140625 0
vt 0.140625 0
vt 0.1484375 0.0546875
vt 0.15625 0.0546875
vt 0.15625 0
vt 0.1484375 0
vt 0.1484375 0.0546875
vt 0.1484375 0.0546875
vt 0.1484375 0
vt 0.1484375 0
vt 0.1484375 0.0546875
vt 0.140625 0.0546875
vt 0.140625 0.0546875
vt 0.1484375 0.0546875
vt 0.15625 0.0546875
vt 0.1484375 0.0546875
vt 0.1484375 0.0546875
vt 0.15625 0.0546875
vn -0.984807753012208 -0.1736481776669303 -2.185751579730777e-16
vn -0.02970910839837749 0.16848872633677128 -0.9852557627213282
vn 0.984807753012208 0.1736481776669303 2.185751579730777e-16
vn 0.02970910839837749 -0.16848872633677128 0.9852557627213282
vn -0.1710878677324002 0.9702875138279206 0.1710879365250921
vn 0.1710878677324002 -0.9702875138279206 -0.1710879365250921
usemtl m_045d0150-7f3e-996d-39a8-b6d4157e351e
f 220/652/163 223/651/163 221/650/163 218/649/163
f 219/656/164 220/655/164 218/654/164 217/653/164
f 224/660/165 219/659/165 217/658/165 222/657/165
f 223/664/166 224/663/166 222/662/166 221/661/166
f 222/668/167 217/667/167 218/666/167 221/665/167
f 223/672/168 220/671/168 219/670/168 224/669/168
o bone64
v 0.2190241584245425 0.717807325888717 0.09209202380309048
v 0.2190241584245425 0.717807325888717 0.09209202380309048
v 0.2938751005574676 0.2933065385890019 0.16694299603281829
v 0.2938751005574676 0.2933065385890019 0.16694299603281829
v 0.2162389295121946 0.7336031439827893 0.18445975155821498
v 0.2162389295121946 0.7336031439827893 0.18445975155821498
v 0.2910898716451197 0.30910235668307423 0.2593107237879428
v 0.2910898716451197 0.30910235668307423 0.2593107237879428
vt 0.140625 0.0546875
vt 0.1484375 0.0546875
vt 0.1484375 0
vt 0.140625 0
vt 0.140625 0.0546875
vt 0.140625 0.0546875
vt 0.140625 0
vt 0.140625 0
vt 0.1484375 0.0546875
vt 0.15625 0.0546875
vt 0.15625 0
vt 0.1484375 0
vt 0.1484375 0.0546875
vt 0.1484375 0.0546875
vt 0.1484375 0
vt 0.1484375 0
vt 0.1484375 0.0546875
vt 0.140625 0.0546875
vt 0.140625 0.0546875
vt 0.1484375 0.0546875
vt 0.15625 0.0546875
vt 0.1484375 0.0546875
vt 0.1484375 0.0546875
vt 0.15625 0.0546875
vn -0.984807753012208 -0.17364817766693033 -2.1510571102112408e-16
vn 0.029709108398377922 -0.16848872633677128 -0.9852557627213282
vn 0.984807753012208 0.17364817766693033 2.1510571102112408e-16
vn -0.029709108398377922 0.16848872633677128 0.9852557627213282
vn -0.17108786773240012 0.9702875138279203 -0.17108793652509216
vn 0.17108786773240012 -0.9702875138279203 0.17108793652509216
usemtl m_045d0150-7f3e-996d-39a8-b6d4157e351e
f 228/676/169 231/675/169 229/674/169 226/673/169
f 227/680/170 228/679/170 226/678/170 225/677/170
f 232/684/171 227/683/171 225/682/171 230/681/171
f 231/688/172 232/687/172 230/686/172 229/685/172
f 230/692/173 225/691/173 226/690/173 229/689/173
f 231/696/174 228/695/174 227/694/174 232/693/174
o bone66
v -0.15625 0.7232415625717208 -0.18675249171453054
v -0.15625 0.7232415625717208 -0.18675249171453054
v -0.15624999999999997 0.1692872015023537 -0.28442959165217885
v -0.15624999999999997 0.1692872015023537 -0.28442959165217885
v 0.15625 0.7232415625717208 -0.18675249171453048
v 0.15625 0.7232415625717208 -0.18675249171453048
v 0.15625000000000003 0.1692872015023537 -0.28442959165217885
v 0.15625000000000003 0.1692872015023537 -0.28442959165217885
vt 0 0.0703125
vt 0.0390625 0.0703125
vt 0.0390625 0
vt 0 0
vt 0 0.0703125
vt 0 0.0703125
vt 0 0
vt 0 0
vt 0.0390625 0.0703125
vt 0.078125 0.0703125
vt 0.078125 0
vt 0.0390625 0
vt 0.0390625 0.0703125
vt 0.0390625 0.0703125
vt 0.0390625 0
vt 0.0390625 0
vt 0.0390625 0.0703125
vt 0 0.0703125
vt 0 0.0703125
vt 0.0390625 0.0703125
vt 0.078125 0.0703125
vt 0.0390625 0.0703125
vt 0.0390625 0.0703125
vt 0.078125 0.0703125
vn -1.2060416625018976e-16 -0.17364817766693033 0.984807753012208
vn -1 0 -1.2246467991473532e-16
vn 1.2060416625018976e-16 0.17364817766693033 -0.984807753012208
vn 1 0 1.2246467991473532e-16
vn -2.1265768495757713e-17 0.984807753012208 0.17364817766693033
vn 2.1265768495757713e-17 -0.984807753012208 -0.17364817766693033
usemtl m_045d0150-7f3e-996d-39a8-b6d4157e351e
f 236/700/175 239/699/175 237/698/175 234/697/175
f 235/704/176 236/703/176 234/702/176 233/701/176
f 240/708/177 235/707/177 233/706/177 238/705/177
f 239/712/178 240/711/178 238/710/178 237/709/178
f 238/716/179 233/715/179 234/714/179 237/713/179
f 239/720/180 236/719/180 235/718/180 240/717/180
o bone67
v -0.21524899414325646 0.738846710658605 -0.18393741890561888
v -0.21524899414325646 0.738846710658605 -0.18393741890561888
v -0.31148595843862076 0.19305998413039982 -0.280174344505094
v -0.31148595843862076 0.19305998413039982 -0.280174344505094
v -0.030513538633007417 0.7072550744704604 -0.18950787673031466
v -0.030513538633007417 0.7072550744704604 -0.18950787673031466
v -0.12675050292837173 0.16146834794225523 -0.2857448023297898
v -0.12675050292837173 0.16146834794225523 -0.2857448023297898
vt 0.0234375 0.1640625
vt 0 0.1640625
vt 0 0.09375
vt 0.0234375 0.09375
vt 0.0234375 0.1640625
vt 0.0234375 0.1640625
vt 0.0234375 0.09375
vt 0.0234375 0.09375
vt 0.046875 0.1640625
vt 0.0234375 0.1640625
vt 0.0234375 0.09375
vt 0.046875 0.09375
vt 0 0.1640625
vt 0 0.1640625
vt 0 0.09375
vt 0 0.09375
vt 0 0.1640625
vt 0.0234375 0.1640625
vt 0.0234375 0.1640625
vt 0 0.1640625
vt 0.0234375 0.1640625
vt 0.046875 0.1640625
vt 0.046875 0.1640625
vt 0.0234375 0.1640625
vn -1.214306433183765e-16 -0.17364817766693033 0.984807753012208
vn -0.9852557627213282 0.1684887263367713 0.029709108398377582
vn 1.214306433183765e-16 0.17364817766693033 -0.984807753012208
vn 0.9852557627213282 -0.1684887263367713 -0.029709108398377582
vn 0.1710879365250921 0.9702875138279203 0.17108786773240017
vn -0.1710879365250921 -0.9702875138279203 -0.17108786773240017
usemtl m_045d0150-7f3e-996d-39a8-b6d4157e351e
f 244/724/181 247/723/181 245/722/181 242/721/181
f 243/728/182 244/727/182 242/726/182 241/725/182
f 248/732/183 243/731/183 241/730/183 246/729/183
f 247/736/184 248/735/184 246/734/184 245/733/184
f 246/740/185 241/739/185 242/738/185 245/737/185
f 247/744/186 244/743/186 243/742/186 248/741/186
o bone68
v 0.03051353863300743 0.7072767804926687 -0.18963097769944118
v 0.03051353863300743 0.7072767804926687 -0.18963097769944118
v 0.12675050292837178 0.1614900539644636 -0.28586790329891626
v 0.12675050292837178 0.1614900539644636 -0.28586790329891626
v 0.21524899414325646 0.7388684166808135 -0.18406051987474534
v 0.21524899414325646 0.7388684166808135 -0.18406051987474534
v 0.3114859584386208 0.19308169015260818 -0.2802974454742204
v 0.3114859584386208 0.19308169015260818 -0.2802974454742204
vt 0 0.1640625
vt 0.0234375 0.1640625
vt 0.0234375 0.09375
vt 0 0.09375
vt 0 0.1640625
vt 0 0.1640625
vt 0 0.09375
vt 0 0.09375
vt 0.0234375 0.1640625
vt 0.046875 0.1640625
vt 0.046875 0.09375
vt 0.0234375 0.09375
vt 0.0234375 0.1640625
vt 0.0234375 0.1640625
vt 0.0234375 0.09375
vt 0.0234375 0.09375
vt 0.0234375 0.1640625
vt 0 0.1640625
vt 0 0.1640625
vt 0.0234375 0.1640625
vt 0.046875 0.1640625
vt 0.0234375 0.1640625
vt 0.0234375 0.1640625
vt 0.046875 0.1640625
vn -1.214306433183765e-16 -0.1736481776669303 0.984807753012208
vn -0.9852557627213282 -0.1684887263367713 -0.02970910839837783
vn 1.214306433183765e-16 0.1736481776669303 -0.984807753012208
vn 0.9852557627213282 0.1684887263367713 0.02970910839837783
vn -0.1710879365250922 0.9702875138279206 0.17108786773240017
vn 0.1710879365250922 -0.9702875138279206 -0.17108786773240017
usemtl m_045d0150-7f3e-996d-39a8-b6d4157e351e
f 252/748/187 255/747/187 253/746/187 250/745/187
f 251/752/188 252/751/188 250/750/188 249/749/188
f 256/756/189 251/755/189 249/754/189 254/753/189
f 255/760/190 256/759/190 254/758/190 253/757/190
f 254/764/191 249/763/191 250/762/191 253/761/191
f 255/768/192 252/767/192 251/766/192 256/765/192
o bone70
v -0.21800249171453054 0.7232415625717208 0.15624999999999994
v -0.21800249171453054 0.7232415625717208 0.15624999999999994
v -0.27226754723544627 0.4154891397554058 0.15624999999999994
v -0.27226754723544627 0.4154891397554058 0.15624999999999994
v -0.21800249171453048 0.7232415625717208 -0.15625000000000006
v -0.21800249171453048 0.7232415625717208 -0.15625000000000006
v -0.2722675472354462 0.4154891397554058 -0.15625000000000006
v -0.2722675472354462 0.4154891397554058 -0.15625000000000006
vt 0.078125 0.109375
vt 0.1171875 0.109375
vt 0.1171875 0.0703125
vt 0.078125 0.0703125
vt 0.078125 0.109375
vt 0.078125 0.109375
vt 0.078125 0.0703125
vt 0.078125 0.0703125
vt 0.1171875 0.109375
vt 0.15625 0.109375
vt 0.15625 0.0703125
vt 0.1171875 0.0703125
vt 0.1171875 0.109375
vt 0.1171875 0.109375
vt 0.1171875 0.0703125
vt 0.1171875 0.0703125
vt 0.1171875 0.109375
vt 0.078125 0.109375
vt 0.078125 0.109375
vt 0.1171875 0.109375
vt 0.15625 0.109375
vt 0.1171875 0.109375
vt 0.1171875 0.109375
vt 0.15625 0.109375
vn 0.984807753012208 -0.17364817766693033 2.1867124844470354e-16
vn -2.220446049250313e-16 0 1
vn -0.984807753012208 0.17364817766693033 -2.1867124844470354e-16
vn 2.220446049250313e-16 0 -1
vn 0.17364817766693033 0.984807753012208 3.855764100600519e-17
vn -0.17364817766693033 -0.984807753012208 -3.855764100600519e-17
usemtl m_045d0150-7f3e-996d-39a8-b6d4157e351e
f 260/772/193 263/771/193 261/770/193 258/769/193
f 259/776/194 260/775/194 258/774/194 257/773/194
f 264/780/195 259/779/195 257/778/195 262/777/195
f 263/784/196 264/783/196 262/782/196 261/781/196
f 262/788/197 257/787/197 258/786/197 261/785/197
f 263/792/198 260/791/198 259/790/198 264/789/198
o bone71
v -0.21611582854306813 0.733581437960581 0.18445975155821492
v -0.21611582854306813 0.733581437960581 0.18445975155821492
v -0.2909667706759932 0.3090806506608659 0.25931072378794273
v -0.2909667706759932 0.3090806506608659 0.25931072378794273
v -0.218901057455416 0.7177856198665087 0.0920920238030904
v -0.218901057455416 0.7177856198665087 0.0920920238030904
v -0.2937519995883411 0.29328483256679355 0.1669429960328182
v -0.2937519995883411 0.29328483256679355 0.1669429960328182
vt 0.140625 0.0546875
vt 0.1484375 0.0546875
vt 0.1484375 0
vt 0.140625 0
vt 0.140625 0.0546875
vt 0.140625 0.0546875
vt 0.140625 0
vt 0.140625 0
vt 0.1484375 0.0546875
vt 0.15625 0.0546875
vt 0.15625 0
vt 0.1484375 0
vt 0.1484375 0.0546875
vt 0.1484375 0.0546875
vt 0.1484375 0
vt 0.1484375 0
vt 0.1484375 0.0546875
vt 0.140625 0.0546875
vt 0.140625 0.0546875
vt 0.1484375 0.0546875
vt 0.15625 0.0546875
vt 0.1484375 0.0546875
vt 0.1484375 0.0546875
vt 0.15625 0.0546875
vn 0.984807753012208 -0.1736481776669303 2.185751579730777e-16
vn 0.02970910839837749 0.16848872633677128 0.9852557627213282
vn -0.984807753012208 0.1736481776669303 -2.185751579730777e-16
vn -0.02970910839837749 -0.16848872633677128 -0.9852557627213282
vn 0.1710878677324002 0.9702875138279206 -0.1710879365250921
vn -0.1710878677324002 -0.9702875138279206 0.1710879365250921
usemtl m_045d0150-7f3e-996d-39a8-b6d4157e351e
f 268/796/199 271/795/199 269/794/199 266/793/199
f 267/800/200 268/799/200 266/798/200 265/797/200
f 272/804/201 267/803/201 265/802/201 270/801/201
f 271/808/202 272/807/202 270/806/202 269/805/202
f 270/812/203 265/811/203 266/810/203 269/809/203
f 271/816/204 268/815/204 267/814/204 272/813/204
o bone72
v -0.2190241584245425 0.717807325888717 -0.09209202380309048
v -0.2190241584245425 0.717807325888717 -0.09209202380309048
v -0.2938751005574676 0.2933065385890019 -0.16694299603281829
v -0.2938751005574676 0.2933065385890019 -0.16694299603281829
v -0.2162389295121946 0.7336031439827893 -0.18445975155821498
v -0.2162389295121946 0.7336031439827893 -0.18445975155821498
v -0.2910898716451197 0.30910235668307423 -0.2593107237879428
v -0.2910898716451197 0.30910235668307423 -0.2593107237879428
vt 0.140625 0.0546875
vt 0.1484375 0.0546875
vt 0.1484375 0
vt 0.140625 0
vt 0.140625 0.0546875
vt 0.140625 0.0546875
vt 0.140625 0
vt 0.140625 0
vt 0.1484375 0.0546875
vt 0.15625 0.0546875
vt 0.15625 0
vt 0.1484375 0
vt 0.1484375 0.0546875
vt 0.1484375 0.0546875
vt 0.1484375 0
vt 0.1484375 0
vt 0.1484375 0.0546875
vt 0.140625 0.0546875
vt 0.140625 0.0546875
vt 0.1484375 0.0546875
vt 0.15625 0.0546875
vt 0.1484375 0.0546875
vt 0.1484375 0.0546875
vt 0.15625 0.0546875
vn 0.984807753012208 -0.17364817766693033 2.1510571102112408e-16
vn -0.029709108398377922 -0.16848872633677128 0.9852557627213282
vn -0.984807753012208 0.17364817766693033 -2.1510571102112408e-16
vn 0.029709108398377922 0.16848872633677128 -0.9852557627213282
vn 0.17108786773240012 0.9702875138279203 0.17108793652509216
vn -0.17108786773240012 -0.9702875138279203 -0.17108793652509216
usemtl m_045d0150-7f3e-996d-39a8-b6d4157e351e
f 276/820/205 279/819/205 277/818/205 274/817/205
f 275/824/206 276/823/206 274/822/206 273/821/206
f 280/828/207 275/827/207 273/826/207 278/825/207
f 279/832/208 280/831/208 278/830/208 277/829/208
f 278/836/209 273/835/209 274/834/209 277/833/209
f 279/840/210 276/839/210 275/838/210 280/837/210
o bone16
v 0.14775201630126034 1.1760143451264198 -0.14534485013493548
v 0.14775201630126034 1.1792853423916039 -0.2077591960570963
v 0.22470970071696772 1.0776479935944345 -0.15050001217490178
v 0.22470970071696772 1.0809189908596186 -0.21291435809706266
v 0 1.0640070175158334 -0.2138006770633044
v 0 1.0607360202506493 -0.15138633114114358
v 0.07695768441570738 0.965640665983848 -0.21895583910327077
v 0.07695768441570738 0.962369668718664 -0.15654149318110988
vt 0.6015625 0.8515625
vt 0.578125 0.8515625
vt 0.578125 0.8359375
vt 0.6015625 0.8359375
vt 0.609375 0.8515625
vt 0.6015625 0.8515625
vt 0.6015625 0.8359375
vt 0.609375 0.8359375
vt 0.6328125 0.8515625
vt 0.609375 0.8515625
vt 0.609375 0.8359375
vt 0.6328125 0.8359375
vt 0.578125 0.8515625
vt 0.5703125 0.8515625
vt 0.5703125 0.8359375
vt 0.578125 0.8359375
vt 0.578125 0.8515625
vt 0.6015625 0.8515625
vt 0.6015625 0.859375
vt 0.578125 0.859375
vt 0.6015625 0.859375
vt 0.625 0.859375
vt 0.625 0.8515625
vt 0.6015625 0.8515625
vn 0 0.05233595624294384 -0.998629534754574
vn 0.788010753606722 0.6148177326707769 0.032221232033109906
vn 0 -0.05233595624294384 0.998629534754574
vn -0.788010753606722 -0.6148177326707769 -0.032221232033109906
vn -0.6156614753256584 0.7869308122558818 0.041241296319730586
vn 0.6156614753256584 -0.7869308122558818 -0.041241296319730586
usemtl m_045d0150-7f3e-996d-39a8-b6d4157e351e
f 284/844/211 287/843/211 285/842/211 282/841/211
f 283/848/212 284/847/212 282/846/212 281/845/212
f 288/852/213 283/851/213 281/850/213 286/849/213
f 287/856/214 288/855/214 286/854/214 285/853/214
f 286/860/215 281/859/215 282/858/215 285/857/215
f 287/864/216 284/863/216 283/862/216 288/861/216
o bone37
v 0 1.0607360202506493 -0.15138633114114358
v 0 1.0640070175158334 -0.2138006770633044
v -0.07695768441570738 0.962369668718664 -0.15654149318110988
v -0.07695768441570738 0.965640665983848 -0.21895583910327077
v -0.14775201630126034 1.1792853423916039 -0.2077591960570963
v -0.14775201630126034 1.1760143451264198 -0.14534485013493548
v -0.22470970071696772 1.0809189908596186 -0.21291435809706266
v -0.22470970071696772 1.0776479935944345 -0.15050001217490178
vt 0.578125 0.8515625
vt 0.6015625 0.8515625
vt 0.6015625 0.8359375
vt 0.578125 0.8359375
vt 0.5703125 0.8515625
vt 0.578125 0.8515625
vt 0.578125 0.8359375
vt 0.5703125 0.8359375
vt 0.609375 0.8515625
vt 0.6328125 0.8515625
vt 0.6328125 0.8359375
vt 0.609375 0.8359375
vt 0.6015625 0.8515625
vt 0.609375 0.8515625
vt 0.609375 0.8359375
vt 0.6015625 0.8359375
vt 0.6015625 0.8515625
vt 0.578125 0.8515625
vt 0.578125 0.859375
vt 0.6015625 0.859375
vt 0.625 0.859375
vt 0.6015625 0.859375
vt 0.6015625 0.8515625
vt 0.625 0.8515625
vn 0 0.05233595624294384 -0.998629534754574
vn 0.788010753606722 -0.6148177326707769 -0.032221232033109906
vn 0 -0.05233595624294384 0.998629534754574
vn -0.788010753606722 0.6148177326707769 0.032221232033109906
vn 0.6156614753256584 0.7869308122558818 0.041241296319730586
vn -0.6156614753256584 -0.7869308122558818 -0.041241296319730586
usemtl m_045d0150-7f3e-996d-39a8-b6d4157e351e
f 292/868/217 295/867/217 293/866/217 290/865/217
f 291/872/218 292/871/218 290/870/218 289/869/218
f 296/876/219 291/875/219 289/874/219 294/873/219
f 295/880/220 296/879/220 294/878/220 293/877/220
f 294/884/221 289/883/221 290/882/221 293/881/221
f 295/888/222 292/887/222 291/886/222 296/885/222
o decoration
v 0.03125 1.05 -0.1875
v 0.03125 1.05 -0.25
v 0.03125 0.9875 -0.1875
v 0.03125 0.9875 -0.25
v -0.03125 1.05 -0.25
v -0.03125 1.05 -0.1875
v -0.03125 0.9875 -0.25
v -0.03125 0.9875 -0.1875
vt 0.9765625 0.1796875
vt 0.984375 0.1796875
vt 0.984375 0.171875
vt 0.9765625 0.171875
vt 0.96875 0.1796875
vt 0.9765625 0.1796875
vt 0.9765625 0.171875
vt 0.96875 0.171875
vt 0.9921875 0.1796875
vt 1 0.1796875
vt 1 0.171875
vt 0.9921875 0.171875
vt 0.984375 0.1796875
vt 0.9921875 0.1796875
vt 0.9921875 0.171875
vt 0.984375 0.171875
vt 0.984375 0.1796875
vt 0.9765625 0.1796875
vt 0.9765625 0.1875
vt 0.984375 0.1875
vt 0.9921875 0.1875
vt 0.984375 0.1875
vt 0.984375 0.1796875
vt 0.9921875 0.1796875
vn 0 0 -1
vn 1 0 0
vn 0 0 1
vn -1 0 0
vn 0 1 0
vn 0 -1 0
usemtl m_045d0150-7f3e-996d-39a8-b6d4157e351e
f 300/892/223 303/891/223 301/890/223 298/889/223
f 299/896/224 300/895/224 298/894/224 297/893/224
f 304/900/225 299/899/225 297/898/225 302/897/225
f 303/904/226 304/903/226 302/902/226 301/901/226
f 302/908/227 297/907/227 298/906/227 301/905/227
f 303/912/228 300/911/228 299/910/228 304/909/228
o bone2
v 0.13174762421527614 1.0165533417402228 -0.2052921985662817
v 0.1165469775401703 1.0220859246715588 -0.2656625627093485
v 0.11037136525742186 0.9578225529411034 -0.2052921985662817
v 0.09517071858231602 0.9633551358724395 -0.2656625627093485
v 0.0030878061413742164 1.0633816858652276 -0.2333101820715334
v 0.01828845281648006 1.0578491029338917 -0.1729398179284666
v -0.01828845281648006 1.0046508970661083 -0.2333101820715334
v -0.0030878061413742164 0.9991183141347724 -0.1729398179284666
vt 0.9609375 0.09375
vt 0.9765625 0.09375
vt 0.9765625 0.0859375
vt 0.9609375 0.0859375
vt 0.953125 0.09375
vt 0.9609375 0.09375
vt 0.9609375 0.0859375
vt 0.953125 0.0859375
vt 0.984375 0.09375
vt 1 0.09375
vt 1 0.0859375
vt 0.984375 0.0859375
vt 0.9765625 0.09375
vt 0.984375 0.09375
vt 0.984375 0.0859375
vt 0.9765625 0.0859375
vt 0.9765625 0.09375
vt 0.9609375 0.09375
vt 0.9609375 0.1015625
vt 0.9765625 0.1015625
vt 0.9921875 0.1015625
vt 0.9765625 0.1015625
vt 0.9765625 0.09375
vt 0.9921875 0.09375
vn -0.2432103468016939 0.0885213269013768 -0.9659258262890683
vn 0.9076733711903687 -0.33036608954935204 -0.2588190451025207
vn 0.2432103468016939 -0.0885213269013768 0.9659258262890683
vn -0.9076733711903687 0.33036608954935204 0.2588190451025207
vn 0.34202014332566866 0.9396926207859084 1.3877787807814457e-17
vn -0.34202014332566866 -0.9396926207859084 -1.3877787807814457e-17
usemtl m_045d0150-7f3e-996d-39a8-b6d4157e351e
f 308/916/229 311/915/229 309/914/229 306/913/229
f 307/920/230 308/919/230 306/918/230 305/917/230
f 312/924/231 307/923/231 305/922/231 310/921/231
f 311/928/232 312/927/232 310/926/232 309/925/232
f 310/932/233 305/931/233 306/930/233 309/929/233
f 311/936/234 308/935/234 307/934/234 312/933/234
o bone4
v -0.01828845281648006 1.0578491029338917 -0.1729398179284666
v -0.0030878061413742164 1.0633816858652276 -0.2333101820715334
v 0.0030878061413742164 0.9991183141347724 -0.1729398179284666
v 0.01828845281648006 1.0046508970661083 -0.2333101820715334
v -0.1165469775401703 1.0220859246715588 -0.2656625627093485
v -0.13174762421527614 1.0165533417402228 -0.2052921985662817
v -0.09517071858231602 0.9633551358724395 -0.2656625627093485
v -0.11037136525742186 0.9578225529411034 -0.2052921985662817
vt 0.9609375 0.09375
vt 0.9765625 0.09375
vt 0.9765625 0.0859375
vt 0.9609375 0.0859375
vt 0.953125 0.09375
vt 0.9609375 0.09375
vt 0.9609375 0.0859375
vt 0.953125 0.0859375
vt 0.984375 0.09375
vt 1 0.09375
vt 1 0.0859375
vt 0.984375 0.0859375
vt 0.9765625 0.09375
vt 0.984375 0.09375
vt 0.984375 0.0859375
vt 0.9765625 0.0859375
vt 0.9765625 0.09375
vt 0.9609375 0.09375
vt 0.9609375 0.1015625
vt 0.9765625 0.1015625
vt 0.9921875 0.1015625
vt 0.9765625 0.1015625
vt 0.9765625 0.09375
vt 0.9921875 0.09375
vn 0.2432103468016939 0.0885213269013768 -0.9659258262890683
vn 0.9076733711903687 0.33036608954935204 0.2588190451025207
vn -0.2432103468016939 -0.0885213269013768 0.9659258262890683
vn -0.9076733711903687 -0.33036608954935204 -0.2588190451025207
vn -0.34202014332566866 0.9396926207859084 1.3877787807814457e-17
vn 0.34202014332566866 -0.9396926207859084 -1.3877787807814457e-17
usemtl m_045d0150-7f3e-996d-39a8-b6d4157e351e
f 316/940/235 319/939/235 317/938/235 314/937/235
f 315/944/236 316/943/236 314/942/236 313/941/236
f 320/948/237 315/947/237 313/946/237 318/945/237
f 319/952/238 320/951/238 318/950/238 317/949/238
f 318/956/239 313/955/239 314/954/239 317/953/239
f 319/960/240 316/959/240 315/958/240 320/957/240
o bone10
v 0.031231858604467477 1.0270681548405463 -0.2182175910357667
v 0.031231858604467477 1.0270681548405463 -0.2182175910357667
v -0.04689314139553252 0.7355016854992277 -0.29909854263030444
v -0.04689314139553252 0.7355016854992277 -0.29909854263030444
v -0.029138505538599313 1.0432443451594537 -0.2182175910357667
v -0.029138505538599313 1.0432443451594537 -0.2182175910357667
v -0.10726350553859931 0.7516778758181352 -0.29909854263030444
v -0.10726350553859931 0.7516778758181352 -0.29909854263030444
vt 0.984375 0.0703125
vt 0.9921875 0.0703125
vt 0.9921875 0.03125
vt 0.984375 0.03125
vt 0.984375 0.0703125
vt 0.984375 0.0703125
vt 0.984375 0.03125
vt 0.984375 0.03125
vt 0.9921875 0.0703125
vt 1 0.0703125
vt 1 0.03125
vt 0.9921875 0.03125
vt 0.9921875 0.0703125
vt 0.9921875 0.0703125
vt 0.9921875 0.03125
vt 0.9921875 0.03125
vt 0.9921875 0.0703125
vt 0.984375 0.0703125
vt 0.984375 0.0703125
vt 0.9921875 0.0703125
vt 1 0.0703125
vt 0.9921875 0.0703125
vt 0.9921875 0.0703125
vt 1 0.0703125
vn 0.06698729810778066 0.24999999999999997 -0.9659258262890683
vn 0.9659258262890683 -0.25881904510252074 -2.7755575615628914e-17
vn -0.06698729810778066 -0.24999999999999997 0.9659258262890683
vn -0.9659258262890683 0.25881904510252074 2.7755575615628914e-17
vn 0.24999999999999997 0.9330127018922194 0.25881904510252074
vn -0.24999999999999997 -0.9330127018922194 -0.25881904510252074
usemtl m_045d0150-7f3e-996d-39a8-b6d4157e351e
f 324/964/241 327/963/241 325/962/241 322/961/241
f 323/968/242 324/967/242 322/966/242 321/965/242
f 328/972/243 323/971/243 321/970/243 326/969/243
f 327/976/244 328/975/244 326/974/244 325/973/244
f 326/980/245 321/979/245 322/978/245 325/977/245
f 327/984/246 324/983/246 323/982/246 328/981/246
o bone49
v 0.029138505538599313 1.0432443451594537 -0.2182175910357667
v 0.029138505538599313 1.0432443451594537 -0.2182175910357667
v 0.10726350553859931 0.7516778758181352 -0.29909854263030444
v 0.10726350553859931 0.7516778758181352 -0.29909854263030444
v -0.031231858604467477 1.0270681548405463 -0.2182175910357667
v -0.031231858604467477 1.0270681548405463 -0.2182175910357667
v 0.04689314139553252 0.7355016854992277 -0.29909854263030444
v 0.04689314139553252 0.7355016854992277 -0.29909854263030444
vt 0.984375 0.0703125
vt 0.9921875 0.0703125
vt 0.9921875 0.03125
vt 0.984375 0.03125
vt 0.984375 0.0703125
vt 0.984375 0.0703125
vt 0.984375 0.03125
vt 0.984375 0.03125
vt 0.9921875 0.0703125
vt 1 0.0703125
vt 1 0.03125
vt 0.9921875 0.03125
vt 0.9921875 0.0703125
vt 0.9921875 0.0703125
vt 0.9921875 0.03125
vt 0.9921875 0.03125
vt 0.9921875 0.0703125
vt 0.984375 0.0703125
vt 0.984375 0.0703125
vt 0.9921875 0.0703125
vt 1 0.0703125
vt 0.9921875 0.0703125
vt 0.9921875 0.0703125
vt 1 0.0703125
vn -0.06698729810778066 0.24999999999999997 -0.9659258262890683
vn 0.9659258262890683 0.25881904510252074 2.7755575615628914e-17
vn 0.06698729810778066 -0.24999999999999997 0.9659258262890683
vn -0.9659258262890683 -0.25881904510252074 -2.7755575615628914e-17
vn -0.24999999999999997 0.9330127018922194 0.25881904510252074
vn 0.24999999999999997 -0.9330127018922194 -0.25881904510252074
usemtl m_045d0150-7f3e-996d-39a8-b6d4157e351e
f 332/988/247 335/987/247 333/986/247 330/985/247
f 331/992/248 332/991/248 330/990/248 329/989/248
f 336/996/249 331/995/249 329/994/249 334/993/249
f 335/1000/250 336/999/250 334/998/250 333/997/250
f 334/1004/251 329/1003/251 330/1002/251 333/1001/251
f 335/1008/252 332/1007/252 331/1006/252 336/1005/252
o legLeft
v -0.03125 0.5625 0.09375
v -0.03125 0.5625 -0.09375
v -0.03125 0 0.09375
v -0.03125 0 -0.09375
v -0.21875 0.5625 -0.09375
v -0.21875 0.5625 0.09375
v -0.21875 0 -0.09375
v -0.21875 0 0.09375
vt 0.3203125 0.6484375
vt 0.34375 0.6484375
vt 0.34375 0.578125
vt 0.3203125 0.578125
vt 0.296875 0.6484375
vt 0.3203125 0.6484375
vt 0.3203125 0.578125
vt 0.296875 0.578125
vt 0.3671875 0.6484375
vt 0.390625 0.6484375
vt 0.390625 0.578125
vt 0.3671875 0.578125
vt 0.34375 0.6484375
vt 0.3671875 0.6484375
vt 0.3671875 0.578125
vt 0.34375 0.578125
vt 0.34375 0.6484375
vt 0.3203125 0.6484375
vt 0.3203125 0.671875
vt 0.34375 0.671875
vt 0.3671875 0.671875
vt 0.34375 0.671875
vt 0.34375 0.6484375
vt 0.3671875 0.6484375
vn 0 0 -1
vn 1 0 0
vn 0 0 1
vn -1 0 0
vn 0 1 0
vn 0 -1 0
usemtl m_045d0150-7f3e-996d-39a8-b6d4157e351e
f 340/1012/253 343/1011/253 341/1010/253 338/1009/253
f 339/1016/254 340/1015/254 338/1014/254 337/1013/254
f 344/1020/255 339/1019/255 337/1018/255 342/1017/255
f 343/1024/256 344/1023/256 342/1022/256 341/1021/256
f 342/1028/257 337/1027/257 338/1026/257 341/1025/257
f 343/1032/258 340/1031/258 339/1030/258 344/1029/258
o legLeft
v -0.018750000000000003 0.653125 0.10625
v -0.018750000000000003 0.653125 -0.10625
v -0.018750000000000003 0.471875 0.10625
v -0.018750000000000003 0.471875 -0.10625
v -0.23125 0.653125 -0.10625
v -0.23125 0.653125 0.10625
v -0.23125 0.471875 -0.10625
v -0.23125 0.471875 0.10625
vt 0.4453125 0.8515625
vt 0.46875 0.8515625
vt 0.46875 0.8359375
vt 0.4453125 0.8359375
vt 0.421875 0.8515625
vt 0.4453125 0.8515625
vt 0.4453125 0.8359375
vt 0.421875 0.8359375
vt 0.4921875 0.8515625
vt 0.515625 0.8515625
vt 0.515625 0.8359375
vt 0.4921875 0.8359375
vt 0.46875 0.8515625
vt 0.4921875 0.8515625
vt 0.4921875 0.8359375
vt 0.46875 0.8359375
vt 0.46875 0.8515625
vt 0.4453125 0.8515625
vt 0.4453125 0.875
vt 0.46875 0.875
vt 0.4921875 0.875
vt 0.46875 0.875
vt 0.46875 0.8515625
vt 0.4921875 0.8515625
vn 0 0 -1
vn 1 0 0
vn 0 0 1
vn -1 0 0
vn 0 1 0
vn 0 -1 0
usemtl m_045d0150-7f3e-996d-39a8-b6d4157e351e
f 348/1036/259 351/1035/259 349/1034/259 346/1033/259
f 347/1040/260 348/1039/260 346/1038/260 345/1037/260
f 352/1044/261 347/1043/261 345/1042/261 350/1041/261
f 351/1048/262 352/1047/262 350/1046/262 349/1045/262
f 350/1052/263 345/1051/263 346/1050/263 349/1049/263
f 351/1056/264 348/1055/264 347/1054/264 352/1053/264
o legRight
v 0.21875 0.5625 0.09375
v 0.21875 0.5625 -0.09375
v 0.21875 0 0.09375
v 0.21875 0 -0.09375
v 0.03125 0.5625 -0.09375
v 0.03125 0.5625 0.09375
v 0.03125 0 -0.09375
v 0.03125 0 0.09375
vt 0.3203125 0.6484375
vt 0.34375 0.6484375
vt 0.34375 0.578125
vt 0.3203125 0.578125
vt 0.296875 0.6484375
vt 0.3203125 0.6484375
vt 0.3203125 0.578125
vt 0.296875 0.578125
vt 0.3671875 0.6484375
vt 0.390625 0.6484375
vt 0.390625 0.578125
vt 0.3671875 0.578125
vt 0.34375 0.6484375
vt 0.3671875 0.6484375
vt 0.3671875 0.578125
vt 0.34375 0.578125
vt 0.34375 0.6484375
vt 0.3203125 0.6484375
vt 0.3203125 0.671875
vt 0.34375 0.671875
vt 0.3671875 0.671875
vt 0.34375 0.671875
vt 0.34375 0.6484375
vt 0.3671875 0.6484375
vn 0 0 -1
vn 1 0 0
vn 0 0 1
vn -1 0 0
vn 0 1 0
vn 0 -1 0
usemtl m_045d0150-7f3e-996d-39a8-b6d4157e351e
f 356/1060/265 359/1059/265 357/1058/265 354/1057/265
f 355/1064/266 356/1063/266 354/1062/266 353/1061/266
f 360/1068/267 355/1067/267 353/1066/267 358/1065/267
f 359/1072/268 360/1071/268 358/1070/268 357/1069/268
f 358/1076/269 353/1075/269 354/1074/269 357/1073/269
f 359/1080/270 356/1079/270 355/1078/270 360/1077/270
o legRight
v 0.23125 0.653125 0.10625
v 0.23125 0.653125 -0.10625
v 0.23125 0.471875 0.10625
v 0.23125 0.471875 -0.10625
v 0.018750000000000003 0.653125 -0.10625
v 0.018750000000000003 0.653125 0.10625
v 0.018750000000000003 0.471875 -0.10625
v 0.018750000000000003 0.471875 0.10625
vt 0.4375 0.90625
vt 0.4609375 0.90625
vt 0.4609375 0.890625
vt 0.4375 0.890625
vt 0.4140625 0.90625
vt 0.4375 0.90625
vt 0.4375 0.890625
vt 0.4140625 0.890625
vt 0.484375 0.90625
vt 0.5078125 0.90625
vt 0.5078125 0.890625
vt 0.484375 0.890625
vt 0.4609375 0.90625
vt 0.484375 0.90625
vt 0.484375 0.890625
vt 0.4609375 0.890625
vt 0.4609375 0.90625
vt 0.4375 0.90625
vt 0.4375 0.9296875
vt 0.4609375 0.9296875
vt 0.484375 0.9296875
vt 0.4609375 0.9296875
vt 0.4609375 0.90625
vt 0.484375 0.90625
vn 0 0 -1
vn 1 0 0
vn 0 0 1
vn -1 0 0
vn 0 1 0
vn 0 -1 0
usemtl m_045d0150-7f3e-996d-39a8-b6d4157e351e
f 364/1084/271 367/1083/271 365/1082/271 362/1081/271
f 363/1088/272 364/1087/272 362/1086/272 361/1085/272
f 368/1092/273 363/1091/273 361/1090/273 366/1089/273
f 367/1096/274 368/1095/274 366/1094/274 365/1093/274
f 366/1100/275 361/1099/275 362/1098/275 365/1097/275
f 367/1104/276 364/1103/276 363/1102/276 368/1101/276